STARTFONT 2.1
COMMENT
COMMENT Converted from OpenType font "Lato-Bold.ttf" by "otf2bdf 3.0".
COMMENT
FONT -FreeType-Lato-Bold-R-Normal--29-210-100-100-P-154-ISO10646-1
SIZE 21 100 100
FONTBOUNDINGBOX 54 39 -15 -8
STARTPROPERTIES 19
FOUNDRY "FreeType"
FAMILY_NAME "Lato"
WEIGHT_NAME "Bold"
SLANT "R"
SETWIDTH_NAME "Normal"
ADD_STYLE_NAME ""
PIXEL_SIZE 29
POINT_SIZE 210
RESOLUTION_X 100
RESOLUTION_Y 100
SPACING "P"
AVERAGE_WIDTH 154
CHARSET_REGISTRY "ISO10646"
CHARSET_ENCODING "1"
FONT_ASCENT 28
FONT_DESCENT 6
COPYRIGHT "Copyright (c) 2011-2015 by tyPoland Lukasz Dziedzic (http://www.typoland.com/) with Reserved Font Name "Lato". Licensed under the SIL Open Font License, Version 1.1 (http://scripts.sil.org/OFL). "
_OTF_FONTFILE "Lato-Bold.ttf"
_OTF_PSNAME "Lato-Bold"
ENDPROPERTIES
CHARS 2164
STARTCHAR 0000
ENCODING 0
SWIDTH 0 0
DWIDTH 0 0
BBX 0 0 0 0
BITMAP
ENDCHAR
STARTCHAR 0020
ENCODING 32
SWIDTH 240 0
DWIDTH 7 0
BBX 0 0 0 0
BITMAP
ENDCHAR
STARTCHAR 0021
ENCODING 33
SWIDTH 274 0
DWIDTH 8 0
BBX 4 21 2 0
BITMAP
F0
F0
F0
F0
F0
F0
F0
F0
F0
F0
70
70
60
00
00
00
00
60
F0
F0
60
ENDCHAR
STARTCHAR 0022
ENCODING 34
SWIDTH 377 0
DWIDTH 11 0
BBX 8 8 2 13
BITMAP
E7
E7
E7
E7
E7
C6
C6
C6
ENDCHAR
STARTCHAR 0023
ENCODING 35
SWIDTH 582 0
DWIDTH 17 0
BBX 15 21 1 0
BITMAP
0718
0E38
0E38
0E38
0E38
0E38
7FFE
FFFE
FFFE
1C70
1C70
1C70
FFFC
FFFC
FFFC
38E0
38E0
38E0
71C0
71C0
71C0
ENDCHAR
STARTCHAR 0024
ENCODING 36
SWIDTH 582 0
DWIDTH 17 0
BBX 15 27 1 -3
BITMAP
00C0
00C0
01C0
07F0
1FF8
3FFC
7998
7180
7180
7180
7980
7F80
3FC0
1FF8
03FC
03FC
039E
031E
031E
631C
733C
FFF8
7FF0
0FE0
0300
0300
0700
ENDCHAR
STARTCHAR 0025
ENCODING 37
SWIDTH 822 0
DWIDTH 24 0
BBX 22 21 1 0
BITMAP
1E0078
7F80E0
7F81E0
E3C1C0
E1C380
E1C700
E3CF00
7F9E00
7F1C00
1E3800
0079E0
00F7F0
00E7F8
01CE38
03CE1C
078E1C
070E1C
0E0E38
1C07F8
3C07F0
7801E0
ENDCHAR
STARTCHAR 0026
ENCODING 38
SWIDTH 720 0
DWIDTH 21 0
BBX 20 21 1 0
BITMAP
03E000
07F800
0FFC00
1E3C00
1C1C00
1C1000
1C0000
1E0000
0F0000
0F8000
1FC1C0
3BE380
71F380
F0FB80
F07F80
F03F00
F01F00
783F80
7FFFC0
3FF3E0
0FC1F0
ENDCHAR
STARTCHAR 0027
ENCODING 39
SWIDTH 205 0
DWIDTH 6 0
BBX 3 8 2 13
BITMAP
E0
E0
E0
E0
E0
C0
C0
C0
ENDCHAR
STARTCHAR 0028
ENCODING 40
SWIDTH 274 0
DWIDTH 8 0
BBX 6 28 1 -5
BITMAP
08
1C
1C
3C
38
78
70
70
70
F0
E0
E0
E0
E0
E0
E0
E0
E0
F0
70
70
70
78
38
3C
1C
1C
08
ENDCHAR
STARTCHAR 0029
ENCODING 41
SWIDTH 274 0
DWIDTH 8 0
BBX 6 28 1 -5
BITMAP
40
E0
E0
F0
70
78
38
38
38
3C
1C
1C
1C
1C
1C
1C
1C
3C
3C
38
38
38
70
70
F0
E0
E0
40
ENDCHAR
STARTCHAR 002A
ENCODING 42
SWIDTH 411 0
DWIDTH 12 0
BBX 10 10 1 11
BITMAP
0C00
0C00
4C80
FFC0
1F00
1F00
FF80
6CC0
0C00
0C00
ENDCHAR
STARTCHAR 002B
ENCODING 43
SWIDTH 582 0
DWIDTH 17 0
BBX 14 14 1 2
BITMAP
0380
0380
0380
0380
0380
FFFC
FFFC
FFFC
0380
0380
0380
0380
0380
0380
ENDCHAR
STARTCHAR 002C
ENCODING 44
SWIDTH 240 0
DWIDTH 7 0
BBX 5 8 1 -4
BITMAP
70
F0
F8
70
30
30
60
C0
ENDCHAR
STARTCHAR 002D
ENCODING 45
SWIDTH 377 0
DWIDTH 11 0
BBX 7 3 2 7
BITMAP
FE
FE
FE
ENDCHAR
STARTCHAR 002E
ENCODING 46
SWIDTH 240 0
DWIDTH 7 0
BBX 5 4 1 0
BITMAP
70
F8
F8
70
ENDCHAR
STARTCHAR 002F
ENCODING 47
SWIDTH 480 0
DWIDTH 14 0
BBX 12 23 1 -2
BITMAP
0070
00E0
00E0
01C0
01C0
01C0
0380
0380
0700
0700
0700
0E00
0E00
0C00
1C00
1C00
3800
3800
3800
7000
7000
E000
E000
ENDCHAR
STARTCHAR 0030
ENCODING 48
SWIDTH 582 0
DWIDTH 17 0
BBX 15 21 1 0
BITMAP
07C0
1FF0
3FF8
7C78
783C
F01C
F01E
F01E
F01E
E01E
E01E
E01E
E01E
F01E
F01E
F01C
783C
7C7C
3FF8
1FF0
07C0
ENDCHAR
STARTCHAR 0031
ENCODING 49
SWIDTH 582 0
DWIDTH 17 0
BBX 13 21 2 0
BITMAP
0380
0780
1F80
3F80
7F80
FB80
6380
0380
0380
0380
0380
0380
0380
0380
0380
0380
0380
0380
7FF8
7FF8
7FF8
ENDCHAR
STARTCHAR 0032
ENCODING 50
SWIDTH 582 0
DWIDTH 17 0
BBX 14 21 1 0
BITMAP
07C0
1FF0
3FF8
7C7C
783C
703C
803C
003C
003C
0078
0078
00F0
01E0
03C0
0780
0F00
1E00
3C00
7FFC
FFFC
FFFC
ENDCHAR
STARTCHAR 0033
ENCODING 51
SWIDTH 582 0
DWIDTH 17 0
BBX 14 21 1 0
BITMAP
07E0
1FF0
3FF8
7C7C
783C
701C
003C
003C
0078
03F0
03F0
03F8
007C
001C
001C
601C
F03C
787C
7FF8
3FF0
0FC0
ENDCHAR
STARTCHAR 0034
ENCODING 52
SWIDTH 582 0
DWIDTH 17 0
BBX 16 21 0 0
BITMAP
0038
0078
00F8
01F8
01F8
03B8
07B8
0F38
0E38
1E38
3C38
7838
7038
FFFF
FFFF
7FFF
0038
0038
0038
0038
0038
ENDCHAR
STARTCHAR 0035
ENCODING 53
SWIDTH 582 0
DWIDTH 17 0
BBX 14 21 1 0
BITMAP
1FF8
1FF8
1FF8
1C00
3800
3800
3800
3FC0
3FF0
7FF8
107C
003C
003C
001C
001C
003C
203C
7078
FFF0
7FE0
0F80
ENDCHAR
STARTCHAR 0036
ENCODING 54
SWIDTH 582 0
DWIDTH 17 0
BBX 15 21 1 0
BITMAP
00F8
01F0
03E0
03C0
0780
0F00
1F00
1E00
3FE0
7FF8
7FFC
783C
F01E
F01E
F01E
F01E
701C
787C
3FF8
1FF0
07C0
ENDCHAR
STARTCHAR 0037
ENCODING 55
SWIDTH 582 0
DWIDTH 17 0
BBX 15 21 1 0
BITMAP
FFFE
FFFE
FFFE
001C
003C
0038
0078
0070
00F0
00E0
01E0
01C0
03C0
03C0
0780
0780
0F00
0F00
1E00
1E00
3C00
ENDCHAR
STARTCHAR 0038
ENCODING 56
SWIDTH 582 0
DWIDTH 17 0
BBX 15 21 1 0
BITMAP
07C0
1FF0
3FF8
7C7C
783C
703C
703C
783C
3C78
3FF0
0FF0
3FF8
783C
F01C
F01E
F01E
F01E
783C
7FFC
3FF0
0FE0
ENDCHAR
STARTCHAR 0039
ENCODING 57
SWIDTH 582 0
DWIDTH 17 0
BBX 14 21 1 0
BITMAP
07C0
1FF0
3FF8
787C
703C
F01C
F01C
F01C
F03C
787C
7FFC
3FF8
0F78
00F0
01E0
01E0
03C0
0780
0F00
1F00
3E00
ENDCHAR
STARTCHAR 003A
ENCODING 58
SWIDTH 240 0
DWIDTH 7 0
BBX 5 14 1 0
BITMAP
70
F8
F8
70
00
00
00
00
00
00
70
F8
F8
70
ENDCHAR
STARTCHAR 003B
ENCODING 59
SWIDTH 274 0
DWIDTH 8 0
BBX 6 18 1 -4
BITMAP
70
F8
F8
70
00
00
00
00
00
00
38
78
7C
38
18
18
30
60
ENDCHAR
STARTCHAR 003C
ENCODING 60
SWIDTH 582 0
DWIDTH 17 0
BBX 12 13 2 3
BITMAP
0030
00F0
03F0
0FC0
3F00
FC00
F800
7E00
1F80
07E0
01F0
0070
0010
ENDCHAR
STARTCHAR 003D
ENCODING 61
SWIDTH 582 0
DWIDTH 17 0
BBX 13 8 2 6
BITMAP
FFF8
FFF8
FFF8
0000
0000
FFF8
FFF8
FFF8
ENDCHAR
STARTCHAR 003E
ENCODING 62
SWIDTH 582 0
DWIDTH 17 0
BBX 12 13 3 3
BITMAP
C000
F000
FC00
3F00
0FC0
03F0
01F0
07E0
1F80
7E00
F800
E000
8000
ENDCHAR
STARTCHAR 003F
ENCODING 63
SWIDTH 445 0
DWIDTH 13 0
BBX 11 21 1 0
BITMAP
1F00
7FC0
FFE0
61E0
00E0
00E0
00E0
01E0
03C0
0F80
0E00
0E00
0E00
0C00
0000
0000
0000
0C00
1E00
1E00
0C00
ENDCHAR
STARTCHAR 0040
ENCODING 64
SWIDTH 822 0
DWIDTH 24 0
BBX 22 24 1 -3
BITMAP
007E00
03FF80
07FFE0
0F81F0
1E0078
3C0038
38001C
701F9C
707F8C
60E30C
E1C70C
E3870C
E3871C
E3861C
638F38
73FFF8
71FBF0
78E1C0
380000
1E0010
0F8070
07FFF8
03FFE0
007F00
ENDCHAR
STARTCHAR 0041
ENCODING 65
SWIDTH 685 0
DWIDTH 20 0
BBX 20 21 0 0
BITMAP
00F000
01F800
01F800
01F800
03FC00
03DC00
039E00
079E00
070E00
0F0F00
0F0F00
0E0780
1E0780
1FFF80
3FFFC0
3FFFC0
3C01E0
7801E0
7801E0
F000F0
F000F0
ENDCHAR
STARTCHAR 0042
ENCODING 66
SWIDTH 651 0
DWIDTH 19 0
BBX 16 21 2 0
BITMAP
FFE0
FFF8
FFFC
F03E
F01E
F01E
F01E
F01E
F03C
FFF8
FFF8
FFFC
F01E
F00F
F00F
F00F
F00F
F01E
FFFE
FFFC
FFF0
ENDCHAR
STARTCHAR 0043
ENCODING 67
SWIDTH 651 0
DWIDTH 19 0
BBX 18 21 1 0
BITMAP
01FC00
07FF00
1FFFC0
3F0780
3C0100
780000
780000
F80000
F00000
F00000
F00000
F00000
F00000
F80000
780000
7C0000
3C0100
3F0780
1FFFC0
07FF00
01FC00
ENDCHAR
STARTCHAR 0044
ENCODING 68
SWIDTH 754 0
DWIDTH 22 0
BBX 19 21 2 0
BITMAP
FFF000
FFFC00
FFFF00
F01F80
F00780
F003C0
F003C0
F001E0
F001E0
F001E0
F001E0
F001E0
F001E0
F001E0
F003C0
F003C0
F00780
F01F80
FFFF00
FFFC00
FFF000
ENDCHAR
STARTCHAR 0045
ENCODING 69
SWIDTH 582 0
DWIDTH 17 0
BBX 14 21 2 0
BITMAP
FFFC
FFFC
FFFC
F000
F000
F000
F000
F000
F000
FFF0
FFF0
FFF0
F000
F000
F000
F000
F000
F000
FFFC
FFFC
FFFC
ENDCHAR
STARTCHAR 0046
ENCODING 70
SWIDTH 548 0
DWIDTH 16 0
BBX 14 21 2 0
BITMAP
FFFC
FFFC
FFFC
F000
F000
F000
F000
F000
F000
FFF0
FFF0
FFF0
F000
F000
F000
F000
F000
F000
F000
F000
F000
ENDCHAR
STARTCHAR 0047
ENCODING 71
SWIDTH 720 0
DWIDTH 21 0
BBX 19 21 1 0
BITMAP
01FE00
07FF80
1FFFE0
3F03C0
3C0080
7C0000
780000
F80000
F00000
F00000
F00FE0
F00FE0
F00FE0
F801E0
7801E0
7C01E0
3E01E0
1F03E0
0FFFE0
07FFC0
00FE00
ENDCHAR
STARTCHAR 0048
ENCODING 72
SWIDTH 754 0
DWIDTH 22 0
BBX 18 21 2 0
BITMAP
F003C0
F003C0
F003C0
F003C0
F003C0
F003C0
F003C0
F003C0
F003C0
FFFFC0
FFFFC0
FFFFC0
F003C0
F003C0
F003C0
F003C0
F003C0
F003C0
F003C0
F003C0
F003C0
ENDCHAR
STARTCHAR 0049
ENCODING 73
SWIDTH 308 0
DWIDTH 9 0
BBX 4 21 2 0
BITMAP
F0
F0
F0
F0
F0
F0
F0
F0
F0
F0
F0
F0
F0
F0
F0
F0
F0
F0
F0
F0
F0
ENDCHAR
STARTCHAR 004A
ENCODING 74
SWIDTH 411 0
DWIDTH 12 0
BBX 10 21 0 0
BITMAP
03C0
03C0
03C0
03C0
03C0
03C0
03C0
03C0
03C0
03C0
03C0
03C0
03C0
03C0
03C0
03C0
03C0
07C0
7F80
FF00
FC00
ENDCHAR
STARTCHAR 004B
ENCODING 75
SWIDTH 685 0
DWIDTH 20 0
BBX 18 21 2 0
BITMAP
F007C0
F00F00
F01F00
F03E00
F03C00
F07800
F0F000
F1F000
F1E000
FFC000
FFC000
FFE000
F1F000
F0F000
F07800
F07C00
F03E00
F01E00
F00F00
F00F80
F007C0
ENDCHAR
STARTCHAR 004C
ENCODING 76
SWIDTH 514 0
DWIDTH 15 0
BBX 13 21 2 0
BITMAP
F000
F000
F000
F000
F000
F000
F000
F000
F000
F000
F000
F000
F000
F000
F000
F000
F000
F000
FFF8
FFF8
FFF8
ENDCHAR
STARTCHAR 004D
ENCODING 77
SWIDTH 925 0
DWIDTH 27 0
BBX 23 21 2 0
BITMAP
F8001E
F8003E
FC003E
FC007E
FE007E
FE00FE
FF00EE
F701EE
F781CE
F383CE
F3C38E
F1C78E
F1EF0E
F0EF0E
F0FE0E
F07E0E
F07C0E
F0380E
F0000E
F0000E
F0000E
ENDCHAR
STARTCHAR 004E
ENCODING 78
SWIDTH 754 0
DWIDTH 22 0
BBX 18 21 2 0
BITMAP
F001C0
F001C0
F801C0
FC01C0
FE01C0
FF01C0
FF01C0
F781C0
F7C1C0
F3E1C0
F1E1C0
F0F1C0
F0F9C0
F07DC0
F03FC0
F01FC0
F00FC0
F00FC0
F007C0
F003C0
F001C0
ENDCHAR
STARTCHAR 004F
ENCODING 79
SWIDTH 788 0
DWIDTH 23 0
BBX 21 21 1 0
BITMAP
01FC00
07FF00
0FFFC0
1F07E0
3C01F0
7800F0
780078
F00078
F00078
F00078
F00078
F00078
F00078
F00078
780078
7800F0
3C01F0
1F07E0
0FFFC0
07FF80
01FC00
ENDCHAR
STARTCHAR 0050
ENCODING 80
SWIDTH 617 0
DWIDTH 18 0
BBX 15 21 2 0
BITMAP
FFE0
FFF8
FFFC
F07E
F01E
F01E
F01E
F01E
F01E
F01E
F07C
FFFC
FFF8
FFE0
F000
F000
F000
F000
F000
F000
F000
ENDCHAR
STARTCHAR 0051
ENCODING 81
SWIDTH 788 0
DWIDTH 23 0
BBX 22 25 1 -4
BITMAP
01FC00
07FF00
0FFFC0
1F07E0
3C01F0
7800F0
780078
F80078
F00078
F00078
F00078
F00078
F00078
F00078
780078
7800F0
3C01F0
1F07E0
0FFFC0
07FF80
01FFC0
0001E0
0000F0
0000F8
00007C
ENDCHAR
STARTCHAR 0052
ENCODING 82
SWIDTH 651 0
DWIDTH 19 0
BBX 17 21 2 0
BITMAP
FFE000
FFF800
FFFC00
F07C00
F03E00
F01E00
F01E00
F01E00
F03C00
F07C00
FFF800
FFF000
FFE000
F1F000
F0F000
F07800
F07C00
F03C00
F01E00
F01F00
F00F80
ENDCHAR
STARTCHAR 0053
ENCODING 83
SWIDTH 548 0
DWIDTH 16 0
BBX 14 21 1 0
BITMAP
0FE0
1FF8
3FF8
7838
7000
7000
7000
7800
7F00
3FE0
1FF0
07F8
00FC
003C
003C
003C
603C
F078
FFF0
7FE0
1FC0
ENDCHAR
STARTCHAR 0054
ENCODING 84
SWIDTH 582 0
DWIDTH 17 0
BBX 17 21 0 0
BITMAP
FFFF80
FFFF80
FFFF80
01E000
01E000
01E000
01E000
01E000
01E000
01E000
01E000
01E000
01E000
01E000
01E000
01E000
01E000
01E000
01E000
01E000
01E000
ENDCHAR
STARTCHAR 0055
ENCODING 85
SWIDTH 754 0
DWIDTH 22 0
BBX 17 21 2 0
BITMAP
F00380
F00380
F00380
F00380
F00380
F00380
F00380
F00380
F00380
F00380
F00380
F00380
F00380
F00780
F00780
780780
780F80
3E1F00
3FFE00
1FFC00
03F000
ENDCHAR
STARTCHAR 0056
ENCODING 86
SWIDTH 685 0
DWIDTH 20 0
BBX 20 21 0 0
BITMAP
F000F0
F800F0
7801E0
7801E0
3C03C0
3C03C0
3C03C0
1E0780
1E0780
0F0700
0F0F00
0F0F00
079E00
079E00
039C00
03FC00
03FC00
01F800
01F800
00F000
00F000
ENDCHAR
STARTCHAR 0057
ENCODING 87
SWIDTH 1028 0
DWIDTH 30 0
BBX 30 21 0 0
BITMAP
F803803C
7807803C
7807C078
7C07C078
3C0FC078
3C0FE078
3C0EE0F0
1E1EE0F0
1E1CF0F0
1E1CF1E0
1F3C71E0
0F3879E0
0F3879C0
0F783BC0
07F03FC0
07F03F80
07F01F80
03E01F80
03E01F80
03E00F00
01C00F00
ENDCHAR
STARTCHAR 0058
ENCODING 88
SWIDTH 651 0
DWIDTH 19 0
BBX 19 21 0 0
BITMAP
F801E0
7C03C0
3C07C0
1E0780
1F0F00
0F0F00
079E00
07BC00
03FC00
03F800
01F800
03F800
03FC00
07BE00
0F1E00
0F0F00
1E0F00
3C0780
3C07C0
7803C0
F801E0
ENDCHAR
STARTCHAR 0059
ENCODING 89
SWIDTH 651 0
DWIDTH 19 0
BBX 19 21 0 0
BITMAP
F003E0
7803C0
7807C0
3C0780
3E0F00
1E0F00
0F1E00
0F1E00
07BC00
07B800
03F800
01F000
01F000
01E000
01E000
01E000
01E000
01E000
01E000
01E000
01E000
ENDCHAR
STARTCHAR 005A
ENCODING 90
SWIDTH 617 0
DWIDTH 18 0
BBX 16 21 1 0
BITMAP
FFFF
FFFF
FFFF
003E
003C
0078
00F8
00F0
01E0
03E0
07C0
0780
0F80
1F00
1E00
3C00
7C00
7800
FFFF
FFFF
FFFF
ENDCHAR
STARTCHAR 005B
ENCODING 91
SWIDTH 308 0
DWIDTH 9 0
BBX 6 27 2 -5
BITMAP
FC
FC
FC
E0
E0
E0
E0
E0
E0
E0
E0
E0
E0
E0
E0
E0
E0
E0
E0
E0
E0
E0
E0
E0
FC
FC
FC
ENDCHAR
STARTCHAR 005C
ENCODING 92
SWIDTH 480 0
DWIDTH 14 0
BBX 12 23 1 -2
BITMAP
E000
E000
7000
7000
3000
3800
3800
1C00
1C00
0C00
0E00
0E00
0700
0700
0700
0380
0380
01C0
01C0
01C0
00E0
00E0
0070
ENDCHAR
STARTCHAR 005D
ENCODING 93
SWIDTH 308 0
DWIDTH 9 0
BBX 6 27 1 -5
BITMAP
FC
FC
FC
1C
1C
1C
1C
1C
1C
1C
1C
1C
1C
1C
1C
1C
1C
1C
1C
1C
1C
1C
1C
1C
FC
FC
FC
ENDCHAR
STARTCHAR 005E
ENCODING 94
SWIDTH 582 0
DWIDTH 17 0
BBX 14 11 1 10
BITMAP
0380
0780
07C0
0FC0
0EE0
1CE0
1C70
3C78
3838
783C
F01C
ENDCHAR
STARTCHAR 005F
ENCODING 95
SWIDTH 480 0
DWIDTH 14 0
BBX 11 3 1 -4
BITMAP
FFE0
FFE0
FFE0
ENDCHAR
STARTCHAR 0060
ENCODING 96
SWIDTH 411 0
DWIDTH 12 0
BBX 7 4 1 17
BITMAP
F8
38
3C
1E
ENDCHAR
STARTCHAR 0061
ENCODING 97
SWIDTH 514 0
DWIDTH 15 0
BBX 12 15 1 0
BITMAP
0F80
3FE0
FFE0
70F0
00F0
0070
0070
0FF0
7FF0
F870
E070
E070
F1F0
FFF0
3E70
ENDCHAR
STARTCHAR 0062
ENCODING 98
SWIDTH 548 0
DWIDTH 16 0
BBX 13 21 2 0
BITMAP
E000
E000
E000
E000
E000
E000
E3C0
EFF0
FFF0
F8F8
F078
E038
E038
E038
E038
E078
E078
F0F8
FFF0
EFE0
E7C0
ENDCHAR
STARTCHAR 0063
ENCODING 99
SWIDTH 480 0
DWIDTH 14 0
BBX 13 15 1 0
BITMAP
0FC0
3FE0
7FF0
7820
F000
F000
F000
F000
F000
F000
F000
7870
7FF8
3FE0
0FC0
ENDCHAR
STARTCHAR 0064
ENCODING 100
SWIDTH 548 0
DWIDTH 16 0
BBX 14 21 1 0
BITMAP
003C
003C
003C
003C
003C
003C
0FBC
3FFC
7FFC
787C
F03C
F03C
F03C
F03C
F03C
F03C
F03C
787C
7FFC
3FBC
1F1C
ENDCHAR
STARTCHAR 0065
ENCODING 101
SWIDTH 514 0
DWIDTH 15 0
BBX 14 15 1 0
BITMAP
0FC0
1FE0
3FF0
7878
F038
F038
FFFC
FFF8
F000
F000
F000
7838
3FF8
1FF0
0FC0
ENDCHAR
STARTCHAR 0066
ENCODING 102
SWIDTH 342 0
DWIDTH 10 0
BBX 9 21 1 0
BITMAP
0780
1F80
3F80
3C00
3800
3800
FF80
FF80
FF80
3800
3800
3800
3800
3800
3800
3800
3800
3800
3800
3800
3800
ENDCHAR
STARTCHAR 0067
ENCODING 103
SWIDTH 514 0
DWIDTH 15 0
BBX 14 20 1 -5
BITMAP
1F80
3FFC
7FFC
70F0
F070
F070
70F0
7FE0
3FE0
3F80
7000
7FE0
7FF8
7FF8
E03C
E038
F078
FFF8
7FF0
1FC0
ENDCHAR
STARTCHAR 0068
ENCODING 104
SWIDTH 548 0
DWIDTH 16 0
BBX 13 21 2 0
BITMAP
E000
E000
E000
E000
E000
E000
E7C0
EFE0
FFF0
F8F0
E078
E078
E078
E078
E078
E078
E078
E078
E078
E078
E078
ENDCHAR
STARTCHAR 0069
ENCODING 105
SWIDTH 240 0
DWIDTH 7 0
BBX 5 21 1 0
BITMAP
70
78
F8
78
70
00
70
70
70
70
70
70
70
70
70
70
70
70
70
70
70
ENDCHAR
STARTCHAR 006A
ENCODING 106
SWIDTH 240 0
DWIDTH 7 0
BBX 7 26 -1 -5
BITMAP
1C
1E
3E
1E
1C
00
1C
1C
1C
1C
1C
1C
1C
1C
1C
1C
1C
1C
1C
1C
1C
1C
1C
FC
FC
F0
ENDCHAR
STARTCHAR 006B
ENCODING 107
SWIDTH 548 0
DWIDTH 16 0
BBX 14 21 2 0
BITMAP
E000
E000
E000
E000
E000
E000
E078
E0F0
E1E0
E1E0
E3C0
E780
FF00
FF00
FF80
E7C0
E3C0
E1E0
E0F0
E0F0
E07C
ENDCHAR
STARTCHAR 006C
ENCODING 108
SWIDTH 240 0
DWIDTH 7 0
BBX 3 21 2 0
BITMAP
E0
E0
E0
E0
E0
E0
E0
E0
E0
E0
E0
E0
E0
E0
E0
E0
E0
E0
E0
E0
E0
ENDCHAR
STARTCHAR 006D
ENCODING 109
SWIDTH 822 0
DWIDTH 24 0
BBX 21 15 2 0
BITMAP
E787C0
EFCFE0
FFFFF0
F0F8F0
E0F078
E0F078
E0F078
E0F078
E0F078
E0F078
E0F078
E0F078
E0F078
E0F078
E0F078
ENDCHAR
STARTCHAR 006E
ENCODING 110
SWIDTH 548 0
DWIDTH 16 0
BBX 13 15 2 0
BITMAP
E7C0
FFE0
FFF0
F8F0
E078
E078
E078
E078
E078
E078
E078
E078
E078
E078
E078
ENDCHAR
STARTCHAR 006F
ENCODING 111
SWIDTH 582 0
DWIDTH 17 0
BBX 15 15 1 0
BITMAP
0FC0
1FF0
3FF8
787C
F03C
F01C
F01E
F01E
F01E
F01C
F03C
787C
3FF8
1FF0
0FC0
ENDCHAR
STARTCHAR 0070
ENCODING 112
SWIDTH 548 0
DWIDTH 16 0
BBX 13 20 2 -5
BITMAP
E7C0
EFF0
FFF0
F8F8
F078
E038
E038
E038
E038
E078
E078
F0F8
FFF0
FFE0
E7C0
E000
E000
E000
E000
E000
ENDCHAR
STARTCHAR 0071
ENCODING 113
SWIDTH 548 0
DWIDTH 16 0
BBX 14 20 1 -5
BITMAP
0F9C
3FFC
7FFC
787C
F03C
F03C
F03C
F03C
F03C
F03C
F03C
787C
7FFC
3FBC
1F3C
003C
003C
003C
003C
003C
ENDCHAR
STARTCHAR 0072
ENCODING 114
SWIDTH 377 0
DWIDTH 11 0
BBX 9 15 2 0
BITMAP
E780
EF80
FF80
F800
F000
E000
E000
E000
E000
E000
E000
E000
E000
E000
E000
ENDCHAR
STARTCHAR 0073
ENCODING 115
SWIDTH 445 0
DWIDTH 13 0
BBX 11 15 1 0
BITMAP
1F00
7FC0
7FE0
F0C0
F000
F000
7E00
3F80
07C0
01E0
01E0
E1E0
FFC0
FFC0
3F00
ENDCHAR
STARTCHAR 0074
ENCODING 116
SWIDTH 377 0
DWIDTH 11 0
BBX 10 20 1 0
BITMAP
1800
1800
3800
3800
3800
FF80
FF80
FF80
3800
3800
3800
3800
3800
3800
3800
3800
3C00
3F80
3FC0
1F00
ENDCHAR
STARTCHAR 0075
ENCODING 117
SWIDTH 548 0
DWIDTH 16 0
BBX 13 15 2 0
BITMAP
E078
E078
E078
E078
E078
E078
E078
E078
E078
E078
E078
F0F8
FFF8
7FF8
3E38
ENDCHAR
STARTCHAR 0076
ENCODING 118
SWIDTH 514 0
DWIDTH 15 0
BBX 15 15 0 0
BITMAP
F01E
701E
781C
783C
3838
3C38
1C78
1E70
1E70
0EE0
0EE0
07E0
07C0
07C0
0380
ENDCHAR
STARTCHAR 0077
ENCODING 119
SWIDTH 788 0
DWIDTH 23 0
BBX 23 15 0 0
BITMAP
F0381E
703C1E
787C1C
787C1C
387E3C
38EE38
3CEE38
1CE778
1CC770
1DC770
0FC370
0F83E0
0F83E0
0F83E0
0701C0
ENDCHAR
STARTCHAR 0078
ENCODING 120
SWIDTH 514 0
DWIDTH 15 0
BBX 15 15 0 0
BITMAP
F81E
783C
3C38
1C70
1EF0
0FE0
07C0
07C0
0FE0
0EE0
1EF0
3C78
3878
783C
F01E
ENDCHAR
STARTCHAR 0079
ENCODING 121
SWIDTH 514 0
DWIDTH 15 0
BBX 15 20 0 -5
BITMAP
F00E
781E
781C
383C
3C38
3C38
1E78
1E70
0EF0
0FE0
07E0
07C0
07C0
03C0
0380
0780
0700
0F00
0E00
1E00
ENDCHAR
STARTCHAR 007A
ENCODING 122
SWIDTH 445 0
DWIDTH 13 0
BBX 11 15 1 0
BITMAP
FFE0
FFE0
FFE0
01C0
03C0
0780
0700
0E00
1E00
3C00
7800
7000
FFE0
FFE0
FFE0
ENDCHAR
STARTCHAR 007B
ENCODING 123
SWIDTH 308 0
DWIDTH 9 0
BBX 7 27 1 -5
BITMAP
0E
3E
7E
78
70
70
70
70
70
70
38
78
70
E0
E0
70
38
38
70
70
70
70
70
78
7E
3E
0E
ENDCHAR
STARTCHAR 007C
ENCODING 124
SWIDTH 274 0
DWIDTH 8 0
BBX 3 27 2 -5
BITMAP
E0
E0
E0
E0
E0
E0
E0
E0
E0
E0
E0
E0
E0
E0
E0
E0
E0
E0
E0
E0
E0
E0
E0
E0
E0
E0
E0
ENDCHAR
STARTCHAR 007D
ENCODING 125
SWIDTH 308 0
DWIDTH 9 0
BBX 7 27 1 -5
BITMAP
E0
F8
F8
3C
1C
1C
1C
1C
3C
38
38
38
1C
1E
1E
1C
38
38
38
1C
1C
1C
1C
3C
F8
F8
E0
ENDCHAR
STARTCHAR 007E
ENCODING 126
SWIDTH 582 0
DWIDTH 17 0
BBX 14 5 1 6
BITMAP
000C
1F1C
7FFC
7FF8
F1F0
ENDCHAR
STARTCHAR 00A0
ENCODING 160
SWIDTH 240 0
DWIDTH 7 0
BBX 0 0 0 0
BITMAP
ENDCHAR
STARTCHAR 00A1
ENCODING 161
SWIDTH 274 0
DWIDTH 8 0
BBX 4 20 2 -5
BITMAP
E0
F0
F0
E0
00
00
00
60
60
E0
F0
F0
F0
F0
F0
F0
F0
F0
F0
F0
ENDCHAR
STARTCHAR 00A2
ENCODING 162
SWIDTH 582 0
DWIDTH 17 0
BBX 13 21 2 -3
BITMAP
01C0
0180
0180
0FE0
3FF0
7FF8
7990
F180
F180
E380
E380
E380
E300
F300
7B10
7FF8
3FF0
0FE0
0300
0300
0700
ENDCHAR
STARTCHAR 00A3
ENCODING 163
SWIDTH 582 0
DWIDTH 17 0
BBX 15 21 1 0
BITMAP
03F0
0FF8
1FFC
1E1E
1C0C
3C00
3C00
3C00
3C00
3C00
FFF0
FFF0
FFF0
3C00
3C00
3C00
3C00
3800
7FFE
FFFE
FFFE
ENDCHAR
STARTCHAR 00A4
ENCODING 164
SWIDTH 582 0
DWIDTH 17 0
BBX 13 13 2 3
BITMAP
4030
EF38
FFF0
7FE0
38E0
7070
7070
7070
38E0
3FE0
7FF0
EFB8
4010
ENDCHAR
STARTCHAR 00A5
ENCODING 165
SWIDTH 582 0
DWIDTH 17 0
BBX 17 21 0 0
BITMAP
F00780
780F00
780E00
3C1E00
3C1C00
1E3C00
1E3C00
0E7800
0F7800
077000
07F000
03E000
3FFE00
3FFE00
01C000
3FFE00
3FFE00
01C000
01C000
01C000
01C000
ENDCHAR
STARTCHAR 00A6
ENCODING 166
SWIDTH 274 0
DWIDTH 8 0
BBX 3 27 2 -5
BITMAP
E0
E0
E0
E0
E0
E0
E0
E0
E0
E0
E0
E0
00
00
00
E0
E0
E0
E0
E0
E0
E0
E0
E0
E0
E0
E0
ENDCHAR
STARTCHAR 00A7
ENCODING 167
SWIDTH 514 0
DWIDTH 15 0
BBX 12 23 1 -2
BITMAP
0F80
1FE0
3FF0
7860
7000
7800
3E00
3F80
3FE0
73F0
E0F0
F070
F870
7E70
3FE0
0FE0
01E0
00F0
00F0
70E0
FFE0
7FC0
1F00
ENDCHAR
STARTCHAR 00A8
ENCODING 168
SWIDTH 411 0
DWIDTH 12 0
BBX 10 4 1 17
BITMAP
6380
F3C0
F3C0
6380
ENDCHAR
STARTCHAR 00A9
ENCODING 169
SWIDTH 822 0
DWIDTH 24 0
BBX 22 21 1 0
BITMAP
00FC00
07FF00
0F03C0
1C00E0
387C70
31FE30
63FF18
678218
C70018
C7000C
C7000C
C7000C
C70018
678618
63FF18
31FE30
38FC70
1C00E0
0F03C0
07FF00
00FC00
ENDCHAR
STARTCHAR 00AA
ENCODING 170
SWIDTH 377 0
DWIDTH 11 0
BBX 8 9 1 12
BITMAP
3C
7E
67
03
3F
7F
E3
FF
7B
ENDCHAR
STARTCHAR 00AB
ENCODING 171
SWIDTH 445 0
DWIDTH 13 0
BBX 11 12 1 2
BITMAP
0840
1CE0
18C0
39C0
7380
7380
E700
7380
39C0
39C0
1CE0
0840
ENDCHAR
STARTCHAR 00AC
ENCODING 172
SWIDTH 582 0
DWIDTH 17 0
BBX 13 7 2 4
BITMAP
FFF8
FFF8
FFF8
0038
0038
0038
0038
ENDCHAR
STARTCHAR 00AD
ENCODING 173
SWIDTH 377 0
DWIDTH 11 0
BBX 7 3 2 7
BITMAP
FE
FE
FE
ENDCHAR
STARTCHAR 00AE
ENCODING 174
SWIDTH 822 0
DWIDTH 24 0
BBX 22 21 1 0
BITMAP
00FC00
07FF00
0F03C0
1C00E0
3BFC70
33FE30
63FF18
638718
C38718
C3870C
C3FE0C
C3FC0C
C39C18
638E18
638F18
338730
3B83F0
1C00E0
0F03C0
07FF00
00FC00
ENDCHAR
STARTCHAR 00AF
ENCODING 175
SWIDTH 411 0
DWIDTH 12 0
BBX 9 3 1 17
BITMAP
FF80
FF80
FF80
ENDCHAR
STARTCHAR 00B0
ENCODING 176
SWIDTH 411 0
DWIDTH 12 0
BBX 10 11 1 10
BITMAP
1E00
3F00
7F80
F1C0
E1C0
E0C0
E1C0
E1C0
7F80
3F00
1E00
ENDCHAR
STARTCHAR 00B1
ENCODING 177
SWIDTH 582 0
DWIDTH 17 0
BBX 14 17 1 1
BITMAP
0380
0380
0380
0380
0380
FFFC
FFFC
FFFC
0380
0380
0380
0380
0380
0000
FFFC
FFFC
FFFC
ENDCHAR
STARTCHAR 00B2
ENCODING 178
SWIDTH 342 0
DWIDTH 10 0
BBX 8 11 1 13
BITMAP
3C
7E
E6
06
0E
0C
18
30
7F
FF
FF
ENDCHAR
STARTCHAR 00B3
ENCODING 179
SWIDTH 342 0
DWIDTH 10 0
BBX 8 11 1 13
BITMAP
3C
7E
E6
C6
06
1C
1E
07
C7
FE
7C
ENDCHAR
STARTCHAR 00B4
ENCODING 180
SWIDTH 411 0
DWIDTH 12 0
BBX 7 4 4 17
BITMAP
3E
38
78
F0
ENDCHAR
STARTCHAR 00B5
ENCODING 181
SWIDTH 651 0
DWIDTH 19 0
BBX 16 20 2 -5
BITMAP
F038
F038
F038
F038
F038
F038
F038
F038
F038
F038
F078
F8FC
FFFF
FF9F
FF0F
F000
F000
F000
F000
7000
ENDCHAR
STARTCHAR 00B6
ENCODING 182
SWIDTH 720 0
DWIDTH 21 0
BBX 19 24 1 -3
BITMAP
0FFFE0
3FFFE0
7FFFE0
FFC700
FFC700
FFC700
FFC700
FFC700
7FC700
7FC700
3FC700
07C700
01C700
01C700
01C700
01C700
01C700
01C700
01C700
01C700
01C700
01C700
01C700
01C700
ENDCHAR
STARTCHAR 00B7
ENCODING 183
SWIDTH 274 0
DWIDTH 8 0
BBX 6 5 1 6
BITMAP
78
F8
FC
FC
78
ENDCHAR
STARTCHAR 00B8
ENCODING 184
SWIDTH 411 0
DWIDTH 12 0
BBX 6 6 3 -5
BITMAP
30
30
78
1C
7C
F8
ENDCHAR
STARTCHAR 00B9
ENCODING 185
SWIDTH 342 0
DWIDTH 10 0
BBX 7 11 1 13
BITMAP
1C
3C
7C
FC
5C
1C
1C
1C
1C
7E
7E
ENDCHAR
STARTCHAR 00BA
ENCODING 186
SWIDTH 411 0
DWIDTH 12 0
BBX 10 9 1 12
BITMAP
3E00
7F80
F380
E180
E1C0
E180
E380
7F80
3E00
ENDCHAR
STARTCHAR 00BB
ENCODING 187
SWIDTH 445 0
DWIDTH 13 0
BBX 10 12 2 2
BITMAP
4200
C600
E700
7380
7380
39C0
39C0
7380
7380
E700
E700
C600
ENDCHAR
STARTCHAR 00BC
ENCODING 188
SWIDTH 754 0
DWIDTH 22 0
BBX 20 21 1 0
BITMAP
1C01C0
3C0380
7C0300
FC0700
5C0E00
1C0C00
1C1C00
1C3800
1C3800
7E7000
7E60E0
00E1E0
01C1E0
01C3E0
0387E0
030EE0
070CE0
0E1FF0
0C0FF0
1C00E0
3800E0
ENDCHAR
STARTCHAR 00BD
ENCODING 189
SWIDTH 720 0
DWIDTH 21 0
BBX 19 21 1 0
BITMAP
1C0380
3C0700
7C0600
FC0E00
5C1C00
1C1800
1C3800
1C7000
1C7000
7EE000
7EC780
01CFC0
039CC0
0380C0
0701C0
060180
0E0300
1C0600
180FE0
381FE0
701FE0
ENDCHAR
STARTCHAR 00BE
ENCODING 190
SWIDTH 754 0
DWIDTH 22 0
BBX 20 21 1 0
BITMAP
3C01C0
7E0380
E60300
C60700
060E00
1C0C00
1E1C00
073800
C73800
FE7000
7C60E0
00E1E0
01C1E0
01C3E0
0387E0
030EE0
070CE0
0E1FF0
0C0FF0
1C00E0
3800E0
ENDCHAR
STARTCHAR 00BF
ENCODING 191
SWIDTH 445 0
DWIDTH 13 0
BBX 11 20 1 -5
BITMAP
0700
0F00
0F80
0700
0000
0000
0000
0700
0700
0F00
1E00
3C00
7800
F000
E000
F000
F0C0
7FE0
7FC0
1F00
ENDCHAR
STARTCHAR 00C0
ENCODING 192
SWIDTH 685 0
DWIDTH 20 0
BBX 20 27 0 0
BITMAP
0F0000
07C000
03C000
01E000
00F000
000000
00F000
01F800
01F800
01F800
03FC00
03DC00
039E00
079E00
070E00
0F0F00
0F0F00
0E0780
1E0780
1FFF80
3FFFC0
3FFFC0
3C01E0
7801E0
7801E0
F000F0
F000F0
ENDCHAR
STARTCHAR 00C1
ENCODING 193
SWIDTH 685 0
DWIDTH 20 0
BBX 20 27 0 0
BITMAP
000F00
003E00
003C00
007800
00F000
000000
00F000
01F800
01F800
01F800
03FC00
03DC00
039E00
079E00
070E00
0F0F00
0F0F00
0E0780
1E0780
1FFF80
3FFFC0
3FFFC0
3C01E0
7801E0
7801E0
F000F0
F000F0
ENDCHAR
STARTCHAR 00C2
ENCODING 194
SWIDTH 685 0
DWIDTH 20 0
BBX 20 26 0 0
BITMAP
00F000
01F800
03BC00
071E00
000000
00F000
01F800
01F800
01F800
03FC00
03DC00
039E00
079E00
070E00
0F0F00
0F0F00
0E0780
1E0780
1FFF80
3FFFC0
3FFFC0
3C01E0
7801E0
7801E0
F000F0
F000F0
ENDCHAR
STARTCHAR 00C3
ENCODING 195
SWIDTH 685 0
DWIDTH 20 0
BBX 20 26 0 0
BITMAP
03C600
07FE00
07FC00
063C00
000000
00F000
01F800
01F800
01F800
03FC00
03DC00
039E00
079E00
070E00
0F0F00
0F0F00
0E0780
1E0780
1FFF80
3FFFC0
3FFFC0
3C01E0
7801E0
7801E0
F000F0
F000F0
ENDCHAR
STARTCHAR 00C4
ENCODING 196
SWIDTH 685 0
DWIDTH 20 0
BBX 20 26 0 0
BITMAP
070C00
071E00
079E00
070C00
000000
00F000
01F800
01F800
01F800
03FC00
03DC00
039E00
079E00
070E00
0F0F00
0F0F00
0E0780
1E0780
1FFF80
3FFFC0
3FFFC0
3C01E0
7801E0
7801E0
F000F0
F000F0
ENDCHAR
STARTCHAR 00C5
ENCODING 197
SWIDTH 685 0
DWIDTH 20 0
BBX 20 27 0 0
BITMAP
00F000
019800
019800
019800
00F000
000000
00F000
01F800
01F800
01F800
03FC00
03DC00
039E00
079E00
070E00
0F0F00
0F0F00
0E0780
1E0780
1FFF80
3FFFC0
3FFFC0
3C01E0
7801E0
7801E0
F000F0
F000F0
ENDCHAR
STARTCHAR 00C6
ENCODING 198
SWIDTH 925 0
DWIDTH 27 0
BBX 26 21 0 0
BITMAP
003FFFC0
003FFFC0
007FFFC0
007F0000
00FF0000
00EF0000
01E70000
01C70000
03C78000
0387FF00
0787FF00
0707FF00
0F078000
1FFF8000
1FFF8000
3FFF8000
3C038000
7803C000
7803FFC0
F003FFC0
F003FFC0
ENDCHAR
STARTCHAR 00C7
ENCODING 199
SWIDTH 651 0
DWIDTH 19 0
BBX 18 26 1 -5
BITMAP
01FC00
07FF00
1FFFC0
3F0780
3C0100
780000
780000
F00000
F00000
F00000
F00000
F00000
F00000
F80000
780000
7C0000
3E0180
3FCFC0
1FFF80
07FF00
01F800
006000
007800
001800
00F800
00F000
ENDCHAR
STARTCHAR 00C8
ENCODING 200
SWIDTH 582 0
DWIDTH 17 0
BBX 14 27 2 0
BITMAP
7800
3E00
1E00
0F00
0780
0000
FFFC
FFFC
FFFC
F000
F000
F000
F000
F000
F000
FFF0
FFF0
FFF0
F000
F000
F000
F000
F000
F000
FFFC
FFFC
FFFC
ENDCHAR
STARTCHAR 00C9
ENCODING 201
SWIDTH 582 0
DWIDTH 17 0
BBX 14 27 2 0
BITMAP
0078
01F0
01E0
03C0
0780
0000
FFFC
FFFC
FFFC
F000
F000
F000
F000
F000
F000
FFF0
FFF0
FFF0
F000
F000
F000
F000
F000
F000
FFFC
FFFC
FFFC
ENDCHAR
STARTCHAR 00CA
ENCODING 202
SWIDTH 582 0
DWIDTH 17 0
BBX 14 26 2 0
BITMAP
0780
0FC0
1DE0
38F0
0000
FFFC
FFFC
FFFC
F000
F000
F000
F000
F000
F000
FFF0
FFF0
FFF0
F000
F000
F000
F000
F000
F000
FFFC
FFFC
FFFC
ENDCHAR
STARTCHAR 00CB
ENCODING 203
SWIDTH 582 0
DWIDTH 17 0
BBX 14 26 2 0
BITMAP
3860
38F0
3CF0
3860
0000
FFFC
FFFC
FFFC
F000
F000
F000
F000
F000
F000
FFF0
FFF0
FFF0
F000
F000
F000
F000
F000
F000
FFFC
FFFC
FFFC
ENDCHAR
STARTCHAR 00CC
ENCODING 204
SWIDTH 308 0
DWIDTH 9 0
BBX 8 27 -2 0
BITMAP
F0
7C
3C
1E
0F
00
0F
0F
0F
0F
0F
0F
0F
0F
0F
0F
0F
0F
0F
0F
0F
0F
0F
0F
0F
0F
0F
ENDCHAR
STARTCHAR 00CD
ENCODING 205
SWIDTH 308 0
DWIDTH 9 0
BBX 8 27 2 0
BITMAP
0F
3E
3C
78
F0
00
F0
F0
F0
F0
F0
F0
F0
F0
F0
F0
F0
F0
F0
F0
F0
F0
F0
F0
F0
F0
F0
ENDCHAR
STARTCHAR 00CE
ENCODING 206
SWIDTH 308 0
DWIDTH 9 0
BBX 10 26 0 0
BITMAP
1E00
3F00
7780
E3C0
0000
3C00
3C00
3C00
3C00
3C00
3C00
3C00
3C00
3C00
3C00
3C00
3C00
3C00
3C00
3C00
3C00
3C00
3C00
3C00
3C00
3C00
ENDCHAR
STARTCHAR 00CF
ENCODING 207
SWIDTH 308 0
DWIDTH 9 0
BBX 10 26 0 0
BITMAP
E180
E3C0
F3C0
E180
0000
3C00
3C00
3C00
3C00
3C00
3C00
3C00
3C00
3C00
3C00
3C00
3C00
3C00
3C00
3C00
3C00
3C00
3C00
3C00
3C00
3C00
ENDCHAR
STARTCHAR 00D0
ENCODING 208
SWIDTH 754 0
DWIDTH 22 0
BBX 21 21 0 0
BITMAP
1FFC00
1FFF00
1FFFC0
1E07E0
1E01F0
1E00F0
1E00F8
1E0078
1E0078
1E0078
FFC078
FFC078
1E0078
1E0078
1E00F8
1E00F0
1E01F0
1E07E0
1FFFC0
1FFF00
1FFC00
ENDCHAR
STARTCHAR 00D1
ENCODING 209
SWIDTH 754 0
DWIDTH 22 0
BBX 18 26 2 0
BITMAP
03C600
07FE00
07FC00
063C00
000000
F001C0
F001C0
F801C0
FC01C0
FE01C0
FF01C0
FF01C0
F781C0
F7C1C0
F3E1C0
F1E1C0
F0F1C0
F0F9C0
F07DC0
F03FC0
F01FC0
F00FC0
F00FC0
F007C0
F003C0
F001C0
ENDCHAR
STARTCHAR 00D2
ENCODING 210
SWIDTH 788 0
DWIDTH 23 0
BBX 21 27 1 0
BITMAP
078000
03E000
01E000
00F000
007800
000000
01FC00
07FF00
0FFFC0
1F07E0
3C01F0
7800F0
780078
F00078
F00078
F00078
F00078
F00078
F00078
F00078
780078
7800F0
3C01F0
1F07E0
0FFFC0
07FF80
01FC00
ENDCHAR
STARTCHAR 00D3
ENCODING 211
SWIDTH 788 0
DWIDTH 23 0
BBX 21 27 1 0
BITMAP
000780
001F00
001E00
003C00
007800
000000
01FC00
07FF00
0FFFC0
1F07E0
3C01F0
7800F0
780078
F00078
F00078
F00078
F00078
F00078
F00078
F00078
780078
7800F0
3C01F0
1F07E0
0FFFC0
07FF80
01FC00
ENDCHAR
STARTCHAR 00D4
ENCODING 212
SWIDTH 788 0
DWIDTH 23 0
BBX 21 26 1 0
BITMAP
007800
00FC00
01DE00
038F00
000000
01FC00
07FF00
0FFFC0
1F07E0
3C01F0
7800F0
780078
F00078
F00078
F00078
F00078
F00078
F00078
F00078
780078
7800F0
3C01F0
1F07E0
0FFFC0
07FF80
01FC00
ENDCHAR
STARTCHAR 00D5
ENCODING 213
SWIDTH 788 0
DWIDTH 23 0
BBX 21 26 1 0
BITMAP
01E300
03FF00
03FE00
031E00
000000
01FC00
07FF00
0FFFC0
1F07E0
3C01F0
7800F0
780078
F00078
F00078
F00078
F00078
F00078
F00078
F00078
780078
7800F0
3C01F0
1F07E0
0FFFC0
07FF80
01FC00
ENDCHAR
STARTCHAR 00D6
ENCODING 214
SWIDTH 788 0
DWIDTH 23 0
BBX 21 26 1 0
BITMAP
038600
038F00
03CF00
038600
000000
01FC00
07FF00
0FFFC0
1F07E0
3C01F0
7800F0
780078
F00078
F00078
F00078
F00078
F00078
F00078
F00078
780078
7800F0
3C01F0
1F07E0
0FFFC0
07FF80
01FC00
ENDCHAR
STARTCHAR 00D7
ENCODING 215
SWIDTH 582 0
DWIDTH 17 0
BBX 13 13 2 3
BITMAP
6030
F078
78F0
3DE0
1FC0
0F80
0F80
1FC0
3DE0
78F0
F078
E038
4010
ENDCHAR
STARTCHAR 00D8
ENCODING 216
SWIDTH 788 0
DWIDTH 23 0
BBX 21 22 1 -1
BITMAP
01FC78
07FFF0
0FFFE0
1F07C0
3C03E0
7807F0
780EF0
F80E78
F01C78
F03878
F03878
F07078
F0E078
F1C078
79C078
7B80F0
3F01F0
3F07E0
1FFFC0
1FFF80
39FC00
700000
ENDCHAR
STARTCHAR 00D9
ENCODING 217
SWIDTH 754 0
DWIDTH 22 0
BBX 17 27 2 0
BITMAP
1E0000
0F8000
078000
03C000
01E000
000000
F00380
F00380
F00380
F00380
F00380
F00380
F00380
F00380
F00380
F00380
F00380
F00380
F00380
F00780
F00780
780780
780F80
3E1F00
3FFE00
1FFC00
03F000
ENDCHAR
STARTCHAR 00DA
ENCODING 218
SWIDTH 754 0
DWIDTH 22 0
BBX 17 27 2 0
BITMAP
001E00
007C00
007800
00F000
01E000
000000
F00380
F00380
F00380
F00380
F00380
F00380
F00380
F00380
F00380
F00380
F00380
F00380
F00380
F00780
F00780
780780
780F80
3E1F00
3FFE00
1FFC00
03F000
ENDCHAR
STARTCHAR 00DB
ENCODING 219
SWIDTH 754 0
DWIDTH 22 0
BBX 17 26 2 0
BITMAP
01E000
03F000
077800
0E3C00
000000
F00380
F00380
F00380
F00380
F00380
F00380
F00380
F00380
F00380
F00380
F00380
F00380
F00380
F00780
F00780
780780
780F80
3E1F00
3FFE00
1FFC00
03F000
ENDCHAR
STARTCHAR 00DC
ENCODING 220
SWIDTH 754 0
DWIDTH 22 0
BBX 17 26 2 0
BITMAP
0E1800
0E3C00
0F3C00
0E1800
000000
F00380
F00380
F00380
F00380
F00380
F00380
F00380
F00380
F00380
F00380
F00380
F00380
F00380
F00780
F00780
780780
780F80
3E1F00
3FFE00
1FFC00
03F000
ENDCHAR
STARTCHAR 00DD
ENCODING 221
SWIDTH 651 0
DWIDTH 19 0
BBX 19 27 0 0
BITMAP
001E00
007C00
007800
00F000
01E000
000000
F003E0
7803C0
7807C0
3C0780
3E0F00
1E0F00
0F1E00
0F1E00
07BC00
07B800
03F800
01F000
01F000
01E000
01E000
01E000
01E000
01E000
01E000
01E000
01E000
ENDCHAR
STARTCHAR 00DE
ENCODING 222
SWIDTH 617 0
DWIDTH 18 0
BBX 15 21 2 0
BITMAP
F000
F000
F000
F000
FFE0
FFF8
FFFC
F03E
F01E
F01E
F01E
F01E
F01E
F03E
FFFC
FFF8
FFE0
F000
F000
F000
F000
ENDCHAR
STARTCHAR 00DF
ENCODING 223
SWIDTH 582 0
DWIDTH 17 0
BBX 15 21 2 0
BITMAP
0FC0
3FF0
7FF8
7878
F03C
F03C
E038
E0F0
E1E0
E3C0
E3C0
E3E0
E1F8
E0FC
E03C
E01E
E01E
E61E
EFFC
E7F8
E1F0
ENDCHAR
STARTCHAR 00E0
ENCODING 224
SWIDTH 514 0
DWIDTH 15 0
BBX 12 21 1 0
BITMAP
7C00
1C00
1E00
0E00
0100
0000
0F80
3FE0
FFE0
70F0
00F0
0070
0070
0FF0
7FF0
F870
E070
E070
F1F0
FFF0
3E70
ENDCHAR
STARTCHAR 00E1
ENCODING 225
SWIDTH 514 0
DWIDTH 15 0
BBX 12 21 1 0
BITMAP
03E0
0380
0780
0F00
0000
0000
0F80
3FE0
FFE0
70F0
00F0
0070
0070
0FF0
7FF0
F870
E070
E070
F1F0
FFF0
3E70
ENDCHAR
STARTCHAR 00E2
ENCODING 226
SWIDTH 514 0
DWIDTH 15 0
BBX 12 21 1 0
BITMAP
0F00
1F80
3BC0
71E0
0000
0000
0F80
3FE0
FFE0
70F0
00F0
0070
0070
0FF0
7FF0
F870
E070
E070
F1F0
FFF0
3E70
ENDCHAR
STARTCHAR 00E3
ENCODING 227
SWIDTH 514 0
DWIDTH 15 0
BBX 12 21 1 0
BITMAP
1CC0
3FC0
7FC0
6380
0000
0000
0F80
3FE0
FFE0
70F0
00F0
0070
0070
0FF0
7FF0
F870
E070
E070
F1F0
FFF0
3E70
ENDCHAR
STARTCHAR 00E4
ENCODING 228
SWIDTH 514 0
DWIDTH 15 0
BBX 12 21 1 0
BITMAP
31C0
79E0
79E0
31C0
0000
0000
0F80
3FE0
FFE0
70F0
00F0
0070
0070
0FF0
7FF0
F870
E070
E070
F1F0
FFF0
3E70
ENDCHAR
STARTCHAR 00E5
ENCODING 229
SWIDTH 514 0
DWIDTH 15 0
BBX 12 22 1 0
BITMAP
0F00
1F80
1980
1980
1F80
0F00
0000
0F80
3FE0
FFE0
70F0
00F0
0070
0070
0FF0
7FF0
F870
E070
E070
F1F0
FFF0
3E70
ENDCHAR
STARTCHAR 00E6
ENCODING 230
SWIDTH 788 0
DWIDTH 23 0
BBX 22 15 1 0
BITMAP
0F87C0
3FCFF0
FFDFF0
70FC78
00F838
007038
0FFFFC
3FFFF8
787000
E07000
E0F800
F1FC38
FFDFF8
7F8FF0
3E07C0
ENDCHAR
STARTCHAR 00E7
ENCODING 231
SWIDTH 480 0
DWIDTH 14 0
BBX 13 20 1 -5
BITMAP
0FC0
3FE0
7FF0
7870
F000
F000
F000
F000
F000
F000
F000
7830
7FF8
3FF0
0FC0
0700
0780
01C0
07C0
0F80
ENDCHAR
STARTCHAR 00E8
ENCODING 232
SWIDTH 514 0
DWIDTH 15 0
BBX 14 21 1 0
BITMAP
3E00
0E00
0F00
0700
0080
0000
0FC0
1FE0
3FF0
7878
F038
F038
FFFC
FFF8
F000
F000
F000
7838
3FF8
1FF0
0FC0
ENDCHAR
STARTCHAR 00E9
ENCODING 233
SWIDTH 514 0
DWIDTH 15 0
BBX 14 21 1 0
BITMAP
01F0
01C0
03C0
0780
0000
0000
0FC0
1FE0
3FF0
7878
F038
F038
FFFC
FFF8
F000
F000
F000
7838
3FF8
1FF0
0FC0
ENDCHAR
STARTCHAR 00EA
ENCODING 234
SWIDTH 514 0
DWIDTH 15 0
BBX 14 21 1 0
BITMAP
0780
0FC0
1DE0
38F0
0000
0000
0FC0
1FE0
3FF0
7878
F038
F038
FFFC
FFF8
F000
F000
F000
7838
3FF8
1FF0
0FC0
ENDCHAR
STARTCHAR 00EB
ENCODING 235
SWIDTH 514 0
DWIDTH 15 0
BBX 14 21 1 0
BITMAP
18E0
3CF0
3CF0
18E0
0000
0000
0FC0
1FE0
3FF0
7878
F038
F038
FFFC
FFF8
F000
F000
F000
7838
3FF8
1FF0
0FC0
ENDCHAR
STARTCHAR 00EC
ENCODING 236
SWIDTH 240 0
DWIDTH 7 0
BBX 7 21 -1 0
BITMAP
F8
38
3C
1C
02
00
1C
1C
1C
1C
1C
1C
1C
1C
1C
1C
1C
1C
1C
1C
1C
ENDCHAR
STARTCHAR 00ED
ENCODING 237
SWIDTH 240 0
DWIDTH 7 0
BBX 7 21 2 0
BITMAP
3E
38
78
F0
00
00
E0
E0
E0
E0
E0
E0
E0
E0
E0
E0
E0
E0
E0
E0
E0
ENDCHAR
STARTCHAR 00EE
ENCODING 238
SWIDTH 240 0
DWIDTH 7 0
BBX 10 21 -1 0
BITMAP
1E00
3F00
7780
E3C0
0000
0000
1C00
1C00
1C00
1C00
1C00
1C00
1C00
1C00
1C00
1C00
1C00
1C00
1C00
1C00
1C00
ENDCHAR
STARTCHAR 00EF
ENCODING 239
SWIDTH 240 0
DWIDTH 7 0
BBX 9 21 -1 0
BITMAP
7380
F780
F780
7380
0000
0000
1C00
1C00
1C00
1C00
1C00
1C00
1C00
1C00
1C00
1C00
1C00
1C00
1C00
1C00
1C00
ENDCHAR
STARTCHAR 00F0
ENCODING 240
SWIDTH 582 0
DWIDTH 17 0
BBX 14 21 1 0
BITMAP
1C10
1FF0
0FF0
03E0
0FF0
0478
0038
0F9C
3FDC
7FFC
787C
F03C
F01C
E01C
F01C
F01C
F03C
7878
7FF8
3FF0
0FC0
ENDCHAR
STARTCHAR 00F1
ENCODING 241
SWIDTH 548 0
DWIDTH 16 0
BBX 13 21 2 0
BITMAP
0E60
1FE0
3FE0
31C0
0000
0000
E7C0
FFE0
FFF0
F8F0
E078
E078
E078
E078
E078
E078
E078
E078
E078
E078
E078
ENDCHAR
STARTCHAR 00F2
ENCODING 242
SWIDTH 582 0
DWIDTH 17 0
BBX 15 21 1 0
BITMAP
1F00
0700
0780
0380
0040
0000
0FC0
1FF0
3FF8
787C
F03C
F01C
F01E
F01E
F01E
F01C
F03C
787C
3FF8
1FF0
0FC0
ENDCHAR
STARTCHAR 00F3
ENCODING 243
SWIDTH 582 0
DWIDTH 17 0
BBX 15 21 1 0
BITMAP
00F8
00E0
01E0
03C0
0000
0000
0FC0
1FF0
3FF8
787C
F03C
F01C
F01E
F01E
F01E
F01C
F03C
787C
3FF8
1FF0
0FC0
ENDCHAR
STARTCHAR 00F4
ENCODING 244
SWIDTH 582 0
DWIDTH 17 0
BBX 15 21 1 0
BITMAP
03C0
07E0
0EF0
1C78
0000
0000
0FC0
1FF0
3FF8
787C
F03C
F01C
F01E
F01E
F01E
F01C
F03C
787C
3FF8
1FF0
0FC0
ENDCHAR
STARTCHAR 00F5
ENCODING 245
SWIDTH 582 0
DWIDTH 17 0
BBX 15 21 1 0
BITMAP
0730
0FF0
1FF0
18E0
0000
0000
0FC0
1FF0
3FF8
787C
F03C
F01C
F01E
F01E
F01E
F01C
F03C
787C
3FF8
1FF0
0FC0
ENDCHAR
STARTCHAR 00F6
ENCODING 246
SWIDTH 582 0
DWIDTH 17 0
BBX 15 21 1 0
BITMAP
0C70
1E78
1E78
0C70
0000
0000
0FC0
1FF0
3FF8
787C
F03C
F01C
F01E
F01E
F01E
F01C
F03C
787C
3FF8
1FF0
0FC0
ENDCHAR
STARTCHAR 00F7
ENCODING 247
SWIDTH 582 0
DWIDTH 17 0
BBX 14 14 1 2
BITMAP
0380
07C0
07C0
0380
0000
FFFC
FFFC
FFFC
0000
0000
0380
07C0
07C0
0380
ENDCHAR
STARTCHAR 00F8
ENCODING 248
SWIDTH 582 0
DWIDTH 17 0
BBX 15 18 1 -1
BITMAP
0006
000E
0FDC
1FF8
7FF8
787C
F0FC
F0DE
F1DE
E39E
E71E
FE1C
7C3C
787C
3FF8
7FF0
67C0
E000
ENDCHAR
STARTCHAR 00F9
ENCODING 249
SWIDTH 548 0
DWIDTH 16 0
BBX 13 21 2 0
BITMAP
7C00
1C00
1E00
0E00
0100
0000
E078
E078
E078
E078
E078
E078
E078
E078
E078
E078
E078
F0F8
FFF8
7FF8
3E38
ENDCHAR
STARTCHAR 00FA
ENCODING 250
SWIDTH 548 0
DWIDTH 16 0
BBX 13 21 2 0
BITMAP
03E0
0380
0780
0F00
0000
0000
E078
E078
E078
E078
E078
E078
E078
E078
E078
E078
E078
F0F8
FFF8
7FF8
3E38
ENDCHAR
STARTCHAR 00FB
ENCODING 251
SWIDTH 548 0
DWIDTH 16 0
BBX 13 21 2 0
BITMAP
0F00
1F80
3BC0
71E0
0000
0000
E078
E078
E078
E078
E078
E078
E078
E078
E078
E078
E078
F0F8
FFF8
7FF8
3E38
ENDCHAR
STARTCHAR 00FC
ENCODING 252
SWIDTH 548 0
DWIDTH 16 0
BBX 13 21 2 0
BITMAP
31C0
79E0
79E0
31C0
0000
0000
E078
E078
E078
E078
E078
E078
E078
E078
E078
E078
E078
F0F8
FFF8
7FF8
3E38
ENDCHAR
STARTCHAR 00FD
ENCODING 253
SWIDTH 514 0
DWIDTH 15 0
BBX 15 26 0 -5
BITMAP
00F8
00E0
01E0
03C0
0000
0000
F00E
781E
781C
383C
3C38
3C38
1E78
1E70
0EF0
0FE0
07E0
07C0
07C0
03C0
0380
0780
0700
0F00
0E00
1E00
ENDCHAR
STARTCHAR 00FE
ENCODING 254
SWIDTH 548 0
DWIDTH 16 0
BBX 13 26 2 -5
BITMAP
E000
E000
E000
E000
E000
E000
E3C0
EFF0
FFF0
F8F8
F078
E038
E038
E038
E038
E078
E078
F0F8
FFF0
EFE0
E780
E000
E000
E000
E000
E000
ENDCHAR
STARTCHAR 00FF
ENCODING 255
SWIDTH 514 0
DWIDTH 15 0
BBX 15 26 0 -5
BITMAP
0C70
1E78
1E78
0C70
0000
0000
F00E
781E
781C
383C
3C38
3C38
1E78
1E70
0EF0
0FE0
07E0
07C0
07C0
03C0
0380
0780
0700
0F00
0E00
1E00
ENDCHAR
STARTCHAR 0100
ENCODING 256
SWIDTH 685 0
DWIDTH 20 0
BBX 20 25 0 0
BITMAP
07FC00
07FC00
000000
000000
00F000
01F800
01F800
01F800
03FC00
03DC00
039E00
079E00
070E00
0F0F00
0F0F00
0E0780
1E0780
1FFF80
3FFFC0
3FFFC0
3C01E0
7801E0
7801E0
F000F0
F000F0
ENDCHAR
STARTCHAR 0101
ENCODING 257
SWIDTH 514 0
DWIDTH 15 0
BBX 12 20 1 0
BITMAP
7FC0
7FC0
7FC0
0000
0000
0F80
3FE0
FFE0
70F0
00F0
0070
0070
0FF0
7FF0
F870
E070
E070
F1F0
FFF0
3E70
ENDCHAR
STARTCHAR 0102
ENCODING 258
SWIDTH 685 0
DWIDTH 20 0
BBX 20 26 0 0
BITMAP
070E00
071C00
03FC00
01F000
000000
00F000
01F800
01F800
01F800
03FC00
03DC00
039E00
079E00
070E00
0F0F00
0F0F00
0E0780
1E0780
1FFF80
3FFFC0
3FFFC0
3C01E0
7801E0
7801E0
F000F0
F000F0
ENDCHAR
STARTCHAR 0103
ENCODING 259
SWIDTH 514 0
DWIDTH 15 0
BBX 12 21 1 0
BITMAP
70C0
31C0
3FC0
1F00
0000
0000
0F80
3FE0
FFE0
70F0
00F0
0070
0070
0FF0
7FF0
F870
E070
E070
F1F0
FFF0
3E70
ENDCHAR
STARTCHAR 0104
ENCODING 260
SWIDTH 685 0
DWIDTH 20 0
BBX 21 26 0 -5
BITMAP
00F000
01F800
01F800
01F800
03FC00
039C00
039E00
079E00
070E00
0F0F00
0F0F00
0E0780
1E0780
1FFF80
3FFFC0
3FFFC0
3C01E0
7801E0
7801E0
F000F0
F000F0
000060
0000C0
0001C0
0001F8
0000F8
ENDCHAR
STARTCHAR 0105
ENCODING 261
SWIDTH 514 0
DWIDTH 15 0
BBX 14 20 1 -5
BITMAP
0F80
3FE0
FFE0
70F0
00F0
0070
0070
0FF0
7FF0
F070
E070
E1F0
FFF0
FF70
3C30
0060
00E0
00E0
00F8
007C
ENDCHAR
STARTCHAR 0106
ENCODING 262
SWIDTH 651 0
DWIDTH 19 0
BBX 18 27 1 0
BITMAP
000780
001F00
001E00
003C00
007800
000000
01FC00
07FF00
1FFFC0
3F0780
3C0100
780000
780000
F80000
F00000
F00000
F00000
F00000
F00000
F80000
780000
7C0000
3C0100
3F0780
1FFFC0
07FF00
01FC00
ENDCHAR
STARTCHAR 0107
ENCODING 263
SWIDTH 480 0
DWIDTH 14 0
BBX 13 21 1 0
BITMAP
01F0
01C0
03C0
0780
0000
0000
0FC0
3FE0
7FF0
7820
F000
F000
F000
F000
F000
F000
F000
7870
7FF8
3FE0
0FC0
ENDCHAR
STARTCHAR 0108
ENCODING 264
SWIDTH 651 0
DWIDTH 19 0
BBX 18 26 1 0
BITMAP
007800
00FC00
01DE00
038F00
000000
01FC00
07FF00
1FFFC0
3F0780
3C0100
780000
780000
F80000
F00000
F00000
F00000
F00000
F00000
F80000
780000
7C0000
3C0100
3F0780
1FFFC0
07FF00
01FC00
ENDCHAR
STARTCHAR 0109
ENCODING 265
SWIDTH 480 0
DWIDTH 14 0
BBX 13 21 1 0
BITMAP
0780
0FC0
1DE0
38F0
0000
0000
0FC0
3FE0
7FF0
7820
F000
F000
F000
F000
F000
F000
F000
7870
7FF8
3FE0
0FC0
ENDCHAR
STARTCHAR 010A
ENCODING 266
SWIDTH 651 0
DWIDTH 19 0
BBX 18 26 1 0
BITMAP
007000
007800
007800
007000
000000
01FC00
07FF00
1FFFC0
3F0780
3C0100
780000
780000
F80000
F00000
F00000
F00000
F00000
F00000
F80000
780000
7C0000
3C0100
3F0780
1FFFC0
07FF00
01FC00
ENDCHAR
STARTCHAR 010B
ENCODING 267
SWIDTH 480 0
DWIDTH 14 0
BBX 13 21 1 0
BITMAP
0700
0780
0780
0780
0700
0000
0FC0
3FE0
7FF0
7820
F000
F000
F000
F000
F000
F000
F000
7870
7FF8
3FE0
0FC0
ENDCHAR
STARTCHAR 010C
ENCODING 268
SWIDTH 651 0
DWIDTH 19 0
BBX 18 26 1 0
BITMAP
038F00
01DE00
00FC00
007800
000000
01FC00
07FF00
1FFFC0
3F0780
3C0100
780000
780000
F80000
F00000
F00000
F00000
F00000
F00000
F80000
780000
7C0000
3C0100
3F0780
1FFFC0
07FF00
01FC00
ENDCHAR
STARTCHAR 010D
ENCODING 269
SWIDTH 480 0
DWIDTH 14 0
BBX 13 21 1 0
BITMAP
38F0
1DE0
0FC0
0780
0000
0000
0FC0
3FE0
7FF0
7820
F000
F000
F000
F000
F000
F000
F000
7870
7FF8
3FE0
0FC0
ENDCHAR
STARTCHAR 010E
ENCODING 270
SWIDTH 754 0
DWIDTH 22 0
BBX 19 26 2 0
BITMAP
1C7800
0EF000
07E000
03C000
000000
FFF000
FFFC00
FFFF00
F01F80
F00780
F003C0
F003C0
F001E0
F001E0
F001E0
F001E0
F001E0
F001E0
F001E0
F003C0
F003C0
F00780
F01F80
FFFF00
FFFC00
FFF000
ENDCHAR
STARTCHAR 010F
ENCODING 271
SWIDTH 548 0
DWIDTH 16 0
BBX 19 21 1 0
BITMAP
003CE0
003CE0
003DC0
003DC0
003D80
003C00
0FBC00
3FFC00
7FFC00
787C00
F03C00
F03C00
F03C00
F03C00
F03C00
F03C00
F03C00
787C00
7FFC00
3FBC00
1F1C00
ENDCHAR
STARTCHAR 0110
ENCODING 272
SWIDTH 754 0
DWIDTH 22 0
BBX 21 21 0 0
BITMAP
1FFC00
1FFF00
1FFFC0
1E07E0
1E01F0
1E00F0
1E00F8
1E0078
1E0078
1E0078
FFC078
FFC078
1E0078
1E0078
1E00F8
1E00F0
1E01F0
1E07E0
1FFFC0
1FFF00
1FFC00
ENDCHAR
STARTCHAR 0111
ENCODING 273
SWIDTH 548 0
DWIDTH 16 0
BBX 16 21 1 0
BITMAP
003C
003C
003C
01FF
01FF
003C
0FBC
3FFC
7FFC
787C
F03C
F03C
F03C
F03C
F03C
F03C
F03C
787C
7FFC
3FBC
1F1C
ENDCHAR
STARTCHAR 0112
ENCODING 274
SWIDTH 582 0
DWIDTH 17 0
BBX 14 25 2 0
BITMAP
3FE0
3FE0
0000
0000
FFFC
FFFC
FFFC
F000
F000
F000
F000
F000
F000
FFF0
FFF0
FFF0
F000
F000
F000
F000
F000
F000
FFFC
FFFC
FFFC
ENDCHAR
STARTCHAR 0113
ENCODING 275
SWIDTH 514 0
DWIDTH 15 0
BBX 14 20 1 0
BITMAP
3FE0
3FE0
3FE0
0000
0000
0FC0
1FE0
3FF0
7878
F038
F038
FFFC
FFF8
F000
F000
F000
7838
3FF8
1FF0
0FC0
ENDCHAR
STARTCHAR 0114
ENCODING 276
SWIDTH 582 0
DWIDTH 17 0
BBX 14 26 2 0
BITMAP
3870
38E0
1FE0
0F80
0000
FFFC
FFFC
FFFC
F000
F000
F000
F000
F000
F000
FFF0
FFF0
FFF0
F000
F000
F000
F000
F000
F000
FFFC
FFFC
FFFC
ENDCHAR
STARTCHAR 0115
ENCODING 277
SWIDTH 514 0
DWIDTH 15 0
BBX 14 21 1 0
BITMAP
3860
18E0
1FE0
0F80
0000
0000
0FC0
1FE0
3FF0
7878
F038
F038
FFFC
FFF8
F000
F000
F000
7838
3FF8
1FF0
0FC0
ENDCHAR
STARTCHAR 0116
ENCODING 278
SWIDTH 582 0
DWIDTH 17 0
BBX 14 26 2 0
BITMAP
0700
0780
0780
0700
0000
FFFC
FFFC
FFFC
F000
F000
F000
F000
F000
F000
FFF0
FFF0
FFF0
F000
F000
F000
F000
F000
F000
FFFC
FFFC
FFFC
ENDCHAR
STARTCHAR 0117
ENCODING 279
SWIDTH 514 0
DWIDTH 15 0
BBX 14 21 1 0
BITMAP
0700
0780
0780
0780
0700
0000
0FC0
1FE0
3FF0
7878
F038
F038
FFFC
FFF8
F000
F000
F000
7838
3FF8
1FF0
0FC0
ENDCHAR
STARTCHAR 0118
ENCODING 280
SWIDTH 582 0
DWIDTH 17 0
BBX 14 26 2 -5
BITMAP
FFFC
FFFC
FFFC
F000
F000
F000
F000
F000
F000
FFF0
FFF0
FFF0
F000
F000
F000
F000
F000
F000
FFFC
FFFC
FFFC
0070
00E0
00E0
00F8
007C
ENDCHAR
STARTCHAR 0119
ENCODING 281
SWIDTH 514 0
DWIDTH 15 0
BBX 14 20 1 -5
BITMAP
0FC0
1FE0
3FF0
7878
F038
F038
FFFC
FFF8
F000
F000
F000
7810
3FF8
3FF8
0FE0
0300
0700
0700
07C0
03E0
ENDCHAR
STARTCHAR 011A
ENCODING 282
SWIDTH 582 0
DWIDTH 17 0
BBX 14 26 2 0
BITMAP
38F0
1DE0
0FC0
0780
0000
FFFC
FFFC
FFFC
F000
F000
F000
F000
F000
F000
FFF0
FFF0
FFF0
F000
F000
F000
F000
F000
F000
FFFC
FFFC
FFFC
ENDCHAR
STARTCHAR 011B
ENCODING 283
SWIDTH 514 0
DWIDTH 15 0
BBX 14 21 1 0
BITMAP
38F0
1DE0
0FC0
0780
0000
0000
0FC0
1FE0
3FF0
7878
F038
F038
FFFC
FFF8
F000
F000
F000
7838
3FF8
1FF0
0FC0
ENDCHAR
STARTCHAR 011C
ENCODING 284
SWIDTH 720 0
DWIDTH 21 0
BBX 19 26 1 0
BITMAP
007800
00FC00
01DE00
038F00
000000
01FE00
07FF80
1FFFE0
3F03C0
3C0080
7C0000
780000
F80000
F00000
F00000
F00FE0
F00FE0
F00FE0
F801E0
7801E0
7C01E0
3E01E0
1F03E0
0FFFE0
07FFC0
00FE00
ENDCHAR
STARTCHAR 011D
ENCODING 285
SWIDTH 514 0
DWIDTH 15 0
BBX 14 26 1 -5
BITMAP
0780
0FC0
1DE0
38F0
0000
0000
1F80
3FFC
7FFC
70F0
F070
F070
70F0
7FE0
3FE0
3F80
7000
7FE0
7FF8
7FF8
E03C
E038
F078
FFF8
7FF0
1FC0
ENDCHAR
STARTCHAR 011E
ENCODING 286
SWIDTH 720 0
DWIDTH 21 0
BBX 19 26 1 0
BITMAP
038700
038E00
01FE00
00F800
000000
01FE00
07FF80
1FFFE0
3F03C0
3C0080
7C0000
780000
F80000
F00000
F00000
F00FE0
F00FE0
F00FE0
F801E0
7801E0
7C01E0
3E01E0
1F03E0
0FFFE0
07FFC0
00FE00
ENDCHAR
STARTCHAR 011F
ENCODING 287
SWIDTH 514 0
DWIDTH 15 0
BBX 14 26 1 -5
BITMAP
3860
18E0
1FE0
0F80
0000
0000
1F80
3FFC
7FFC
70F0
F070
F070
70F0
7FE0
3FE0
3F80
7000
7FE0
7FF8
7FF8
E03C
E038
F078
FFF8
7FF0
1FC0
ENDCHAR
STARTCHAR 0120
ENCODING 288
SWIDTH 720 0
DWIDTH 21 0
BBX 19 26 1 0
BITMAP
007000
007800
007800
007000
000000
01FE00
07FF80
1FFFE0
3F03C0
3C0080
7C0000
780000
F80000
F00000
F00000
F00FE0
F00FE0
F00FE0
F801E0
7801E0
7C01E0
3E01E0
1F03E0
0FFFE0
07FFC0
00FE00
ENDCHAR
STARTCHAR 0121
ENCODING 289
SWIDTH 514 0
DWIDTH 15 0
BBX 14 26 1 -5
BITMAP
0700
0780
0780
0780
0700
0000
1F80
3FFC
7FFC
70F0
F070
F070
70F0
7FE0
3FE0
3F80
7000
7FE0
7FF8
7FF8
E03C
E038
F078
FFF8
7FF0
1FC0
ENDCHAR
STARTCHAR 0122
ENCODING 290
SWIDTH 720 0
DWIDTH 21 0
BBX 19 26 1 -5
BITMAP
01FE00
07FF80
1FFFE0
3F03C0
3C0080
7C0000
780000
F80000
F00000
F00000
F00FE0
F00FE0
F00FE0
F801E0
7801E0
7C01E0
3E01E0
1F03E0
0FFFE0
07FFC0
00FE00
000000
007000
00E000
00E000
00C000
ENDCHAR
STARTCHAR 0123
ENCODING 291
SWIDTH 514 0
DWIDTH 15 0
BBX 14 26 1 -5
BITMAP
0180
0380
0380
0700
0000
0000
1F80
3FFC
7FFC
70F0
F070
F070
70F0
7FE0
3FE0
3F80
7000
7FE0
7FF8
7FF8
E03C
E038
F078
FFF8
7FF0
1FC0
ENDCHAR
STARTCHAR 0124
ENCODING 292
SWIDTH 754 0
DWIDTH 22 0
BBX 18 26 2 0
BITMAP
01E000
03F000
077800
0E3C00
000000
F003C0
F003C0
F003C0
F003C0
F003C0
F003C0
F003C0
F003C0
F003C0
FFFFC0
FFFFC0
FFFFC0
F003C0
F003C0
F003C0
F003C0
F003C0
F003C0
F003C0
F003C0
F003C0
ENDCHAR
STARTCHAR 0125
ENCODING 293
SWIDTH 548 0
DWIDTH 16 0
BBX 16 26 -1 0
BITMAP
1E00
3F00
7780
E3C0
0000
1C00
1C00
1C00
1C00
1C00
1C00
1CF8
1DFC
1FFE
1F1E
1C0F
1C0F
1C0F
1C0F
1C0F
1C0F
1C0F
1C0F
1C0F
1C0F
1C0F
ENDCHAR
STARTCHAR 0126
ENCODING 294
SWIDTH 788 0
DWIDTH 23 0
BBX 22 21 0 0
BITMAP
3C00F0
3C00F0
3C00F0
FFFFFC
FFFFFC
FFFFFC
3C00F0
3C00F0
3C00F0
3FFFF0
3FFFF0
3FFFF0
3C00F0
3C00F0
3C00F0
3C00F0
3C00F0
3C00F0
3C00F0
3C00F0
3C00F0
ENDCHAR
STARTCHAR 0127
ENCODING 295
SWIDTH 548 0
DWIDTH 16 0
BBX 15 21 0 0
BITMAP
3800
3800
3800
FF80
FF80
3800
39F0
3BF8
3FFC
3E3C
381E
381E
381E
381E
381E
381E
381E
381E
381E
381E
381E
ENDCHAR
STARTCHAR 0128
ENCODING 296
SWIDTH 308 0
DWIDTH 9 0
BBX 10 26 0 0
BITMAP
78C0
FFC0
FF80
C780
0000
3C00
3C00
3C00
3C00
3C00
3C00
3C00
3C00
3C00
3C00
3C00
3C00
3C00
3C00
3C00
3C00
3C00
3C00
3C00
3C00
3C00
ENDCHAR
STARTCHAR 0129
ENCODING 297
SWIDTH 240 0
DWIDTH 7 0
BBX 9 21 -1 0
BITMAP
3980
7F80
FF80
C700
0000
0000
1C00
1C00
1C00
1C00
1C00
1C00
1C00
1C00
1C00
1C00
1C00
1C00
1C00
1C00
1C00
ENDCHAR
STARTCHAR 012A
ENCODING 298
SWIDTH 308 0
DWIDTH 9 0
BBX 9 25 0 0
BITMAP
FF80
FF80
0000
0000
3C00
3C00
3C00
3C00
3C00
3C00
3C00
3C00
3C00
3C00
3C00
3C00
3C00
3C00
3C00
3C00
3C00
3C00
3C00
3C00
3C00
ENDCHAR
STARTCHAR 012B
ENCODING 299
SWIDTH 240 0
DWIDTH 7 0
BBX 9 20 -1 0
BITMAP
FF80
FF80
FF80
0000
0000
1C00
1C00
1C00
1C00
1C00
1C00
1C00
1C00
1C00
1C00
1C00
1C00
1C00
1C00
1C00
ENDCHAR
STARTCHAR 012C
ENCODING 300
SWIDTH 308 0
DWIDTH 9 0
BBX 10 26 0 0
BITMAP
E1C0
E380
7F80
3E00
0000
3C00
3C00
3C00
3C00
3C00
3C00
3C00
3C00
3C00
3C00
3C00
3C00
3C00
3C00
3C00
3C00
3C00
3C00
3C00
3C00
3C00
ENDCHAR
STARTCHAR 012D
ENCODING 301
SWIDTH 240 0
DWIDTH 7 0
BBX 9 21 -1 0
BITMAP
E180
6380
7F80
3E00
0000
0000
1C00
1C00
1C00
1C00
1C00
1C00
1C00
1C00
1C00
1C00
1C00
1C00
1C00
1C00
1C00
ENDCHAR
STARTCHAR 012E
ENCODING 302
SWIDTH 308 0
DWIDTH 9 0
BBX 6 26 1 -5
BITMAP
78
78
78
78
78
78
78
78
78
78
78
78
78
78
78
78
78
78
78
78
78
30
60
E0
7C
7C
ENDCHAR
STARTCHAR 012F
ENCODING 303
SWIDTH 240 0
DWIDTH 7 0
BBX 6 26 1 -5
BITMAP
70
78
F8
78
70
00
70
70
70
70
70
70
70
70
70
70
70
70
70
70
70
60
E0
E0
F8
7C
ENDCHAR
STARTCHAR 0130
ENCODING 304
SWIDTH 308 0
DWIDTH 9 0
BBX 5 26 2 0
BITMAP
70
78
78
70
00
F0
F0
F0
F0
F0
F0
F0
F0
F0
F0
F0
F0
F0
F0
F0
F0
F0
F0
F0
F0
F0
ENDCHAR
STARTCHAR 0131
ENCODING 305
SWIDTH 240 0
DWIDTH 7 0
BBX 3 15 2 0
BITMAP
E0
E0
E0
E0
E0
E0
E0
E0
E0
E0
E0
E0
E0
E0
E0
ENDCHAR
STARTCHAR 0132
ENCODING 306
SWIDTH 754 0
DWIDTH 22 0
BBX 17 21 2 0
BITMAP
F00780
F00780
F00780
F00780
F00780
F00780
F00780
F00780
F00780
F00780
F00780
F00780
F00780
F00780
F00780
F00780
F00780
F00F80
F0FF00
F1FE00
F1F800
ENDCHAR
STARTCHAR 0133
ENCODING 307
SWIDTH 514 0
DWIDTH 15 0
BBX 13 26 1 -5
BITMAP
7070
7878
F8F8
7878
7070
0000
7070
7070
7070
7070
7070
7070
7070
7070
7070
7070
7070
7070
7070
7070
7070
0070
0070
03F0
03F0
03C0
ENDCHAR
STARTCHAR 0134
ENCODING 308
SWIDTH 411 0
DWIDTH 12 0
BBX 14 26 0 0
BITMAP
01E0
03F0
0778
0E3C
0000
03C0
03C0
03C0
03C0
03C0
03C0
03C0
03C0
03C0
03C0
03C0
03C0
03C0
03C0
03C0
03C0
03C0
07C0
7F80
FF00
FC00
ENDCHAR
STARTCHAR 0135
ENCODING 309
SWIDTH 240 0
DWIDTH 7 0
BBX 10 26 -1 -5
BITMAP
1E00
3F00
7780
E3C0
0000
0000
1C00
1C00
1C00
1C00
1C00
1C00
1C00
1C00
1C00
1C00
1C00
1C00
1C00
1C00
1C00
1C00
1C00
FC00
FC00
F000
ENDCHAR
STARTCHAR 0136
ENCODING 310
SWIDTH 685 0
DWIDTH 20 0
BBX 18 26 2 -5
BITMAP
F007C0
F00F00
F01F00
F03E00
F03C00
F07800
F0F000
F1F000
F1E000
FFC000
FFC000
FFE000
F1F000
F0F000
F07800
F07C00
F03E00
F01E00
F00F00
F00F80
F007C0
000000
01C000
038000
038000
030000
ENDCHAR
STARTCHAR 0137
ENCODING 311
SWIDTH 548 0
DWIDTH 16 0
BBX 14 26 2 -5
BITMAP
E000
E000
E000
E000
E000
E000
E078
E0F0
E1E0
E1E0
E3C0
E780
FF00
FF00
FF80
E7C0
E3C0
E1E0
E0F0
E0F0
E07C
0000
0700
0E00
0E00
0C00
ENDCHAR
STARTCHAR 0138
ENCODING 312
SWIDTH 548 0
DWIDTH 16 0
BBX 14 15 2 0
BITMAP
E078
E0F0
E1E0
E1E0
E3C0
E780
FF00
FF00
FF80
E7C0
E3C0
E1E0
E0F0
E0F0
E07C
ENDCHAR
STARTCHAR 0139
ENCODING 313
SWIDTH 514 0
DWIDTH 15 0
BBX 13 27 2 0
BITMAP
0780
1F00
1E00
3C00
7800
0000
F000
F000
F000
F000
F000
F000
F000
F000
F000
F000
F000
F000
F000
F000
F000
F000
F000
F000
FFF8
FFF8
FFF8
ENDCHAR
STARTCHAR 013A
ENCODING 314
SWIDTH 240 0
DWIDTH 7 0
BBX 8 27 2 0
BITMAP
0F
3E
3C
78
F0
00
E0
E0
E0
E0
E0
E0
E0
E0
E0
E0
E0
E0
E0
E0
E0
E0
E0
E0
E0
E0
E0
ENDCHAR
STARTCHAR 013B
ENCODING 315
SWIDTH 514 0
DWIDTH 15 0
BBX 13 26 2 -5
BITMAP
F000
F000
F000
F000
F000
F000
F000
F000
F000
F000
F000
F000
F000
F000
F000
F000
F000
F000
FFF8
FFF8
FFF8
0000
0700
0E00
0E00
0C00
ENDCHAR
STARTCHAR 013C
ENCODING 316
SWIDTH 240 0
DWIDTH 7 0
BBX 4 26 2 -5
BITMAP
E0
E0
E0
E0
E0
E0
E0
E0
E0
E0
E0
E0
E0
E0
E0
E0
E0
E0
E0
E0
E0
00
70
E0
E0
C0
ENDCHAR
STARTCHAR 013D
ENCODING 317
SWIDTH 514 0
DWIDTH 15 0
BBX 13 21 2 0
BITMAP
F1C0
F1C0
F380
F380
F300
F000
F000
F000
F000
F000
F000
F000
F000
F000
F000
F000
F000
F000
FFF8
FFF8
FFF8
ENDCHAR
STARTCHAR 013E
ENCODING 318
SWIDTH 240 0
DWIDTH 7 0
BBX 9 21 2 0
BITMAP
E380
E380
E700
E700
E600
E000
E000
E000
E000
E000
E000
E000
E000
E000
E000
E000
E000
E000
E000
E000
E000
ENDCHAR
STARTCHAR 013F
ENCODING 319
SWIDTH 548 0
DWIDTH 16 0
BBX 13 21 2 0
BITMAP
F000
F000
F000
F000
F000
F000
F000
F000
F0E0
F0F0
F0F0
F0F0
F0E0
F000
F000
F000
F000
F000
FFF8
FFF8
FFF8
ENDCHAR
STARTCHAR 0140
ENCODING 320
SWIDTH 377 0
DWIDTH 11 0
BBX 10 21 2 0
BITMAP
E000
E000
E000
E000
E000
E000
E000
E000
E380
E7C0
E7C0
E380
E000
E000
E000
E000
E000
E000
E000
E000
E000
ENDCHAR
STARTCHAR 0141
ENCODING 321
SWIDTH 548 0
DWIDTH 16 0
BBX 15 21 0 0
BITMAP
1E00
1E00
1E00
1E00
1E00
1E00
1E10
1E70
1FF0
1FE0
3F80
7E00
FE00
FE00
9E00
1E00
1E00
1E00
1FFE
1FFE
1FFE
ENDCHAR
STARTCHAR 0142
ENCODING 322
SWIDTH 342 0
DWIDTH 10 0
BBX 8 21 1 0
BITMAP
3C
3C
3C
3C
3C
3C
3C
3F
3F
FE
FC
FC
3C
3C
3C
3C
3C
3C
3C
3C
3C
ENDCHAR
STARTCHAR 0143
ENCODING 323
SWIDTH 754 0
DWIDTH 22 0
BBX 18 27 2 0
BITMAP
001E00
007C00
007800
00F000
01E000
000000
F001C0
F001C0
F801C0
FC01C0
FE01C0
FF01C0
FF01C0
F781C0
F7C1C0
F3E1C0
F1E1C0
F0F1C0
F0F9C0
F07DC0
F03FC0
F01FC0
F00FC0
F00FC0
F007C0
F003C0
F001C0
ENDCHAR
STARTCHAR 0144
ENCODING 324
SWIDTH 548 0
DWIDTH 16 0
BBX 13 21 2 0
BITMAP
01F0
01C0
03C0
0780
0000
0000
E7C0
FFE0
FFF0
F8F0
E078
E078
E078
E078
E078
E078
E078
E078
E078
E078
E078
ENDCHAR
STARTCHAR 0145
ENCODING 325
SWIDTH 754 0
DWIDTH 22 0
BBX 18 26 2 -5
BITMAP
F001C0
F001C0
F801C0
FC01C0
FE01C0
FF01C0
FF01C0
F781C0
F7C1C0
F3E1C0
F1E1C0
F0F1C0
F0F9C0
F07DC0
F03FC0
F01FC0
F00FC0
F00FC0
F007C0
F003C0
F001C0
000000
00E000
01C000
01C000
018000
ENDCHAR
STARTCHAR 0146
ENCODING 326
SWIDTH 548 0
DWIDTH 16 0
BBX 13 20 2 -5
BITMAP
E7C0
FFE0
FFF0
F8F0
E078
E078
E078
E078
E078
E078
E078
E078
E078
E078
E078
0000
0700
0E00
0E00
0C00
ENDCHAR
STARTCHAR 0147
ENCODING 327
SWIDTH 754 0
DWIDTH 22 0
BBX 18 26 2 0
BITMAP
071E00
03BC00
01F800
00F000
000000
F001C0
F001C0
F801C0
FC01C0
FE01C0
FF01C0
FF01C0
F781C0
F7C1C0
F3E1C0
F1E1C0
F0F1C0
F0F9C0
F07DC0
F03FC0
F01FC0
F00FC0
F00FC0
F007C0
F003C0
F001C0
ENDCHAR
STARTCHAR 0148
ENCODING 328
SWIDTH 548 0
DWIDTH 16 0
BBX 13 21 2 0
BITMAP
38F0
1DE0
0FC0
0780
0000
0000
E7C0
FFE0
FFF0
F8F0
E078
E078
E078
E078
E078
E078
E078
E078
E078
E078
E078
ENDCHAR
STARTCHAR 0149
ENCODING 329
SWIDTH 617 0
DWIDTH 18 0
BBX 17 22 0 0
BITMAP
600000
F00000
700000
700000
700000
700000
600000
EE7C00
4FFE00
0FFF00
0F8F00
0E0780
0E0780
0E0780
0E0780
0E0780
0E0780
0E0780
0E0780
0E0780
0E0780
0E0780
ENDCHAR
STARTCHAR 014A
ENCODING 330
SWIDTH 754 0
DWIDTH 22 0
BBX 18 26 2 -5
BITMAP
F001C0
F001C0
F801C0
FC01C0
FE01C0
FF01C0
FF01C0
F781C0
F7C1C0
F3E1C0
F1E1C0
F0F1C0
F0F9C0
F07DC0
F03FC0
F01FC0
F00FC0
F00FC0
F007C0
F003C0
F001C0
0003C0
0003C0
003F80
003F80
003E00
ENDCHAR
STARTCHAR 014B
ENCODING 331
SWIDTH 548 0
DWIDTH 16 0
BBX 13 20 2 -5
BITMAP
E7C0
FFE0
FFF0
F8F0
E078
E078
E078
E078
E078
E078
E078
E078
E078
E078
E078
0078
00F0
07F0
07E0
07C0
ENDCHAR
STARTCHAR 014C
ENCODING 332
SWIDTH 788 0
DWIDTH 23 0
BBX 21 25 1 0
BITMAP
03FE00
03FE00
000000
000000
01FC00
07FF00
0FFFC0
1F07E0
3C01F0
7800F0
780078
F00078
F00078
F00078
F00078
F00078
F00078
F00078
780078
7800F0
3C01F0
1F07E0
0FFFC0
07FF80
01FC00
ENDCHAR
STARTCHAR 014D
ENCODING 333
SWIDTH 582 0
DWIDTH 17 0
BBX 15 20 1 0
BITMAP
1FF0
1FF0
1FF0
0000
0000
0FC0
1FF0
3FF8
787C
F03C
F01C
F01E
F01E
F01E
F01C
F03C
787C
3FF8
1FF0
0FC0
ENDCHAR
STARTCHAR 014E
ENCODING 334
SWIDTH 788 0
DWIDTH 23 0
BBX 21 26 1 0
BITMAP
038700
038E00
01FE00
00F800
000000
01FC00
07FF00
0FFFC0
1F07E0
3C01F0
7800F0
780078
F00078
F00078
F00078
F00078
F00078
F00078
F00078
780078
7800F0
3C01F0
1F07E0
0FFFC0
07FF80
01FC00
ENDCHAR
STARTCHAR 014F
ENCODING 335
SWIDTH 582 0
DWIDTH 17 0
BBX 15 21 1 0
BITMAP
1C30
0C70
0FF0
07C0
0000
0000
0FC0
1FF0
3FF8
787C
F03C
F01C
F01E
F01E
F01E
F01C
F03C
787C
3FF8
1FF0
0FC0
ENDCHAR
STARTCHAR 0150
ENCODING 336
SWIDTH 788 0
DWIDTH 23 0
BBX 21 26 1 0
BITMAP
0079E0
00F380
00E700
01CE00
000000
01FC00
07FF00
0FFFC0
1F07E0
3C01F0
7800F0
780078
F00078
F00078
F00078
F00078
F00078
F00078
F00078
780078
7800F0
3C01F0
1F07E0
0FFFC0
07FF80
01FC00
ENDCHAR
STARTCHAR 0151
ENCODING 337
SWIDTH 582 0
DWIDTH 17 0
BBX 15 21 1 0
BITMAP
03DE
03B8
0770
0EE0
0000
0000
0FC0
1FF0
3FF8
787C
F03C
F01C
F01E
F01E
F01E
F01C
F03C
787C
3FF8
1FF0
0FC0
ENDCHAR
STARTCHAR 0152
ENCODING 338
SWIDTH 1062 0
DWIDTH 31 0
BBX 29 21 1 0
BITMAP
01F8FFF8
0FFEFFF8
1FFFFFF8
3F0FF000
3C03F000
7801F000
7801F000
F800F000
F000F000
F000FFE0
F000FFE0
F000FFE0
F000F000
F000F000
7801F000
7801F000
3C03F000
3F07F000
1FFFFFF8
0FFEFFF8
01F8FFF8
ENDCHAR
STARTCHAR 0153
ENCODING 339
SWIDTH 857 0
DWIDTH 25 0
BBX 23 15 1 0
BITMAP
0F81F0
3FE3F8
7FF7FC
787E1E
F03C0E
F03C0E
F03FFE
F03FFE
F03C00
F03C00
F03E00
787F0E
7FF7FE
3FE7FC
0F81F0
ENDCHAR
STARTCHAR 0154
ENCODING 340
SWIDTH 651 0
DWIDTH 19 0
BBX 17 27 2 0
BITMAP
007800
01F000
01E000
03C000
078000
000000
FFE000
FFF800
FFFC00
F07C00
F03E00
F01E00
F01E00
F01E00
F03C00
F07C00
FFF800
FFF000
FFE000
F1F000
F0F000
F07800
F07C00
F03C00
F01E00
F01F00
F00F80
ENDCHAR
STARTCHAR 0155
ENCODING 341
SWIDTH 377 0
DWIDTH 11 0
BBX 9 21 2 0
BITMAP
0F80
0E00
1E00
3C00
0000
0000
E780
EF80
FF80
F800
F000
E000
E000
E000
E000
E000
E000
E000
E000
E000
E000
ENDCHAR
STARTCHAR 0156
ENCODING 342
SWIDTH 651 0
DWIDTH 19 0
BBX 17 26 2 -5
BITMAP
FFE000
FFF800
FFFC00
F07C00
F03E00
F01E00
F01E00
F01E00
F03C00
F07C00
FFF800
FFF000
FFE000
F1F000
F0F000
F07800
F07C00
F03C00
F01E00
F01F00
F00F80
000000
01C000
038000
038000
030000
ENDCHAR
STARTCHAR 0157
ENCODING 343
SWIDTH 377 0
DWIDTH 11 0
BBX 9 20 2 -5
BITMAP
E780
EF80
FF80
F800
F000
E000
E000
E000
E000
E000
E000
E000
E000
E000
E000
0000
7000
E000
E000
C000
ENDCHAR
STARTCHAR 0158
ENCODING 344
SWIDTH 651 0
DWIDTH 19 0
BBX 17 26 2 0
BITMAP
38F000
1DE000
0FC000
078000
000000
FFE000
FFF800
FFFC00
F07C00
F03E00
F01E00
F01E00
F01E00
F03C00
F07C00
FFF800
FFF000
FFE000
F1F000
F0F000
F07800
F07C00
F03C00
F01E00
F01F00
F00F80
ENDCHAR
STARTCHAR 0159
ENCODING 345
SWIDTH 377 0
DWIDTH 11 0
BBX 10 21 1 0
BITMAP
E3C0
7780
3F00
1E00
0000
0000
73C0
77C0
7FC0
7C00
7800
7000
7000
7000
7000
7000
7000
7000
7000
7000
7000
ENDCHAR
STARTCHAR 015A
ENCODING 346
SWIDTH 548 0
DWIDTH 16 0
BBX 14 27 1 0
BITMAP
003C
00F8
00F0
01E0
03C0
0000
0FE0
1FF8
3FF8
7838
7000
7000
7000
7800
7F00
3FE0
1FF0
07F8
00FC
003C
003C
003C
603C
F078
FFF0
7FE0
1FC0
ENDCHAR
STARTCHAR 015B
ENCODING 347
SWIDTH 445 0
DWIDTH 13 0
BBX 11 21 1 0
BITMAP
03E0
0380
0780
0F00
0000
0000
1F00
7FC0
7FE0
F0C0
F000
F000
7E00
3F80
07C0
01E0
01E0
E1E0
FFC0
FFC0
3F00
ENDCHAR
STARTCHAR 015C
ENCODING 348
SWIDTH 548 0
DWIDTH 16 0
BBX 14 26 1 0
BITMAP
03C0
07E0
0EF0
1C78
0000
0FE0
1FF8
3FF8
7838
7000
7000
7000
7800
7F00
3FE0
1FF0
07F8
00FC
003C
003C
003C
603C
F078
FFF0
7FE0
1FC0
ENDCHAR
STARTCHAR 015D
ENCODING 349
SWIDTH 445 0
DWIDTH 13 0
BBX 11 21 1 0
BITMAP
0F00
1F80
3BC0
71E0
0000
0000
1F00
7FC0
7FE0
F0C0
F000
F000
7E00
3F80
07C0
01E0
01E0
E1E0
FFC0
FFC0
3F00
ENDCHAR
STARTCHAR 015E
ENCODING 350
SWIDTH 548 0
DWIDTH 16 0
BBX 14 26 1 -5
BITMAP
0FE0
1FF8
3FF8
7838
7000
7000
7000
7800
7F00
3FE0
1FF0
07F8
00FC
003C
003C
003C
603C
F078
FFF0
7FE0
1FC0
0300
07C0
01C0
07C0
0780
ENDCHAR
STARTCHAR 015F
ENCODING 351
SWIDTH 445 0
DWIDTH 13 0
BBX 11 20 1 -5
BITMAP
1F00
7FC0
7FE0
F0C0
F000
F000
7E00
3F80
0FC0
03E0
01E0
41E0
F3C0
FFC0
3F00
0C00
1F00
0700
1F00
1E00
ENDCHAR
STARTCHAR 0160
ENCODING 352
SWIDTH 548 0
DWIDTH 16 0
BBX 14 26 1 0
BITMAP
1C78
0EF0
07E0
03C0
0000
0FE0
1FF8
3FF8
7838
7000
7000
7000
7800
7F00
3FE0
1FF0
07F8
00FC
003C
003C
003C
603C
F078
FFF0
7FE0
1FC0
ENDCHAR
STARTCHAR 0161
ENCODING 353
SWIDTH 445 0
DWIDTH 13 0
BBX 11 21 1 0
BITMAP
71E0
3BC0
1F80
0F00
0000
0000
1F00
7FC0
7FE0
F0C0
F000
F000
7E00
3F80
07C0
01E0
01E0
E1E0
FFC0
FFC0
3F00
ENDCHAR
STARTCHAR 0162
ENCODING 354
SWIDTH 582 0
DWIDTH 17 0
BBX 17 26 0 -5
BITMAP
FFFF80
FFFF80
FFFF80
01E000
01E000
01E000
01E000
01E000
01E000
01E000
01E000
01E000
01E000
01E000
01E000
01E000
01E000
01E000
01E000
01E000
01E000
01C000
01E000
007000
01F000
03E000
ENDCHAR
STARTCHAR 0163
ENCODING 355
SWIDTH 377 0
DWIDTH 11 0
BBX 10 25 1 -5
BITMAP
1800
1800
3800
3800
3800
FF80
FF80
FF80
3800
3800
3800
3800
3800
3800
3800
3800
3800
3F80
3FC0
0F00
0C00
0F00
0380
1F80
1F00
ENDCHAR
STARTCHAR 0164
ENCODING 356
SWIDTH 582 0
DWIDTH 17 0
BBX 17 26 0 0
BITMAP
0E3C00
077800
03F000
01E000
000000
FFFF80
FFFF80
FFFF80
01E000
01E000
01E000
01E000
01E000
01E000
01E000
01E000
01E000
01E000
01E000
01E000
01E000
01E000
01E000
01E000
01E000
01E000
ENDCHAR
STARTCHAR 0165
ENCODING 357
SWIDTH 377 0
DWIDTH 11 0
BBX 12 21 1 0
BITMAP
0070
1870
18E0
38E0
38C0
3800
FF80
FF80
FF80
3800
3800
3800
3800
3800
3800
3800
3800
3C00
3F80
3FC0
1F00
ENDCHAR
STARTCHAR 0166
ENCODING 358
SWIDTH 617 0
DWIDTH 18 0
BBX 16 21 1 0
BITMAP
FFFF
FFFF
FFFF
03C0
03C0
03C0
03C0
03C0
03C0
7FFC
7FFC
03C0
03C0
03C0
03C0
03C0
03C0
03C0
03C0
03C0
03C0
ENDCHAR
STARTCHAR 0167
ENCODING 359
SWIDTH 377 0
DWIDTH 11 0
BBX 10 20 1 0
BITMAP
1800
1800
3800
3800
3800
FF80
FF80
FF80
3800
3800
FF80
FF80
3800
3800
3800
3800
3C00
3F80
3FC0
0F00
ENDCHAR
STARTCHAR 0168
ENCODING 360
SWIDTH 754 0
DWIDTH 22 0
BBX 17 26 2 0
BITMAP
078C00
0FFC00
0FF800
0C7800
000000
F00380
F00380
F00380
F00380
F00380
F00380
F00380
F00380
F00380
F00380
F00380
F00380
F00380
F00780
F00780
780780
780F80
3E1F00
3FFE00
1FFC00
03F000
ENDCHAR
STARTCHAR 0169
ENCODING 361
SWIDTH 548 0
DWIDTH 16 0
BBX 13 21 2 0
BITMAP
1CC0
3FC0
7FC0
6380
0000
0000
E078
E078
E078
E078
E078
E078
E078
E078
E078
E078
E078
F0F8
FFF8
7FF8
3E38
ENDCHAR
STARTCHAR 016A
ENCODING 362
SWIDTH 754 0
DWIDTH 22 0
BBX 17 25 2 0
BITMAP
0FF800
0FF800
000000
000000
F00380
F00380
F00380
F00380
F00380
F00380
F00380
F00380
F00380
F00380
F00380
F00380
F00380
F00780
F00780
780780
780F80
3E1F00
3FFE00
1FFC00
03F000
ENDCHAR
STARTCHAR 016B
ENCODING 363
SWIDTH 548 0
DWIDTH 16 0
BBX 13 20 2 0
BITMAP
7FC0
7FC0
7FC0
0000
0000
E078
E078
E078
E078
E078
E078
E078
E078
E078
E078
E078
F0F8
FFF8
7FF8
3E38
ENDCHAR
STARTCHAR 016C
ENCODING 364
SWIDTH 754 0
DWIDTH 22 0
BBX 17 26 2 0
BITMAP
0E1C00
0E3800
07F800
03E000
000000
F00380
F00380
F00380
F00380
F00380
F00380
F00380
F00380
F00380
F00380
F00380
F00380
F00380
F00780
F00780
780780
780F80
3E1F00
3FFE00
1FFC00
03F000
ENDCHAR
STARTCHAR 016D
ENCODING 365
SWIDTH 548 0
DWIDTH 16 0
BBX 13 21 2 0
BITMAP
70C0
31C0
3FC0
1F00
0000
0000
E078
E078
E078
E078
E078
E078
E078
E078
E078
E078
E078
F0F8
FFF8
7FF8
3E38
ENDCHAR
STARTCHAR 016E
ENCODING 366
SWIDTH 754 0
DWIDTH 22 0
BBX 17 27 2 0
BITMAP
01E000
033000
033000
033000
01E000
000000
F00380
F00380
F00380
F00380
F00380
F00380
F00380
F00380
F00380
F00380
F00380
F00380
F00380
F00780
F00780
780780
780F80
3E1F00
3FFE00
1FFC00
03F000
ENDCHAR
STARTCHAR 016F
ENCODING 367
SWIDTH 548 0
DWIDTH 16 0
BBX 13 22 2 0
BITMAP
0F00
1F80
1980
1980
1F80
0F00
0000
E078
E078
E078
E078
E078
E078
E078
E078
E078
E078
E078
F0F8
FFF8
7FF8
3E38
ENDCHAR
STARTCHAR 0170
ENCODING 368
SWIDTH 754 0
DWIDTH 22 0
BBX 17 26 2 0
BITMAP
01E780
03CE00
039C00
073800
000000
F00380
F00380
F00380
F00380
F00380
F00380
F00380
F00380
F00380
F00380
F00380
F00380
F00380
F00780
F00780
780780
780F80
3E1F00
3FFE00
1FFC00
03F000
ENDCHAR
STARTCHAR 0171
ENCODING 369
SWIDTH 548 0
DWIDTH 16 0
BBX 13 21 2 0
BITMAP
0F78
0EE0
1DC0
3B80
0000
0000
E078
E078
E078
E078
E078
E078
E078
E078
E078
E078
E078
F0F8
FFF8
7FF8
3E38
ENDCHAR
STARTCHAR 0172
ENCODING 370
SWIDTH 754 0
DWIDTH 22 0
BBX 17 26 2 -5
BITMAP
F00380
F00380
F00380
F00380
F00380
F00380
F00380
F00380
F00380
F00380
F00380
F00380
F00380
F00780
F00780
780780
780F80
7E1F00
3FFE00
1FFC00
07F800
01C000
018000
038000
03F000
01F000
ENDCHAR
STARTCHAR 0173
ENCODING 371
SWIDTH 548 0
DWIDTH 16 0
BBX 14 20 2 -5
BITMAP
E078
E078
E078
E078
E078
E078
E078
E078
E078
E078
E078
F0F8
FFF8
7FF8
3E38
0030
0060
00E0
00FC
007C
ENDCHAR
STARTCHAR 0174
ENCODING 372
SWIDTH 1028 0
DWIDTH 30 0
BBX 30 26 0 0
BITMAP
00078000
000FC000
001DE000
0038F000
00000000
F803803C
7807803C
7807C078
7C07C078
3C0FC078
3C0FE078
3C0EE0F0
1E1EE0F0
1E1CF0F0
1E1CF1E0
1F3C71E0
0F3879E0
0F3879C0
0F783BC0
07F03FC0
07F03F80
07F01F80
03E01F80
03E01F80
03E00F00
01C00F00
ENDCHAR
STARTCHAR 0175
ENCODING 373
SWIDTH 788 0
DWIDTH 23 0
BBX 23 21 0 0
BITMAP
003C00
007E00
00EF00
01C780
000000
000000
F0381E
703C1E
787C1C
787C1C
387E3C
38EE38
3CEE38
1CE778
1CC770
1DC770
0FC370
0F83E0
0F83E0
0F83E0
0701C0
ENDCHAR
STARTCHAR 0176
ENCODING 374
SWIDTH 651 0
DWIDTH 19 0
BBX 19 26 0 0
BITMAP
00F000
01F800
03BC00
071E00
000000
F003E0
7803C0
7807C0
3C0780
3E0F00
1E0F00
0F1E00
0F1E00
07BC00
07B800
03F800
01F000
01F000
01E000
01E000
01E000
01E000
01E000
01E000
01E000
01E000
ENDCHAR
STARTCHAR 0177
ENCODING 375
SWIDTH 514 0
DWIDTH 15 0
BBX 15 26 0 -5
BITMAP
03C0
07E0
0EF0
1C78
0000
0000
F00E
781E
781C
383C
3C38
3C38
1E78
1E70
0EF0
0FE0
07E0
07C0
07C0
03C0
0380
0780
0700
0F00
0E00
1E00
ENDCHAR
STARTCHAR 0178
ENCODING 376
SWIDTH 651 0
DWIDTH 19 0
BBX 19 26 0 0
BITMAP
070C00
071E00
079E00
070C00
000000
F003E0
7803C0
7807C0
3C0780
3E0F00
1E0F00
0F1E00
0F1E00
07BC00
07B800
03F800
01F000
01F000
01E000
01E000
01E000
01E000
01E000
01E000
01E000
01E000
ENDCHAR
STARTCHAR 0179
ENCODING 377
SWIDTH 617 0
DWIDTH 18 0
BBX 16 27 1 0
BITMAP
003C
00F8
00F0
01E0
03C0
0000
FFFF
FFFF
FFFF
003E
003C
0078
00F8
00F0
01E0
03E0
07C0
0780
0F80
1F00
1E00
3C00
7C00
7800
FFFF
FFFF
FFFF
ENDCHAR
STARTCHAR 017A
ENCODING 378
SWIDTH 445 0
DWIDTH 13 0
BBX 11 21 1 0
BITMAP
03E0
0380
0780
0F00
0000
0000
FFE0
FFE0
FFE0
01C0
03C0
0780
0700
0E00
1E00
3C00
7800
7000
FFE0
FFE0
FFE0
ENDCHAR
STARTCHAR 017B
ENCODING 379
SWIDTH 617 0
DWIDTH 18 0
BBX 16 26 1 0
BITMAP
0380
03C0
03C0
0380
0000
FFFF
FFFF
FFFF
003E
003C
0078
00F8
00F0
01E0
03E0
07C0
0780
0F80
1F00
1E00
3C00
7C00
7800
FFFF
FFFF
FFFF
ENDCHAR
STARTCHAR 017C
ENCODING 380
SWIDTH 445 0
DWIDTH 13 0
BBX 11 21 1 0
BITMAP
0E00
0F00
0F00
0F00
0E00
0000
FFE0
FFE0
FFE0
01C0
03C0
0780
0700
0E00
1E00
3C00
7800
7000
FFE0
FFE0
FFE0
ENDCHAR
STARTCHAR 017D
ENCODING 381
SWIDTH 617 0
DWIDTH 18 0
BBX 16 26 1 0
BITMAP
1C78
0EF0
07E0
03C0
0000
FFFF
FFFF
FFFF
003E
003C
0078
00F8
00F0
01E0
03E0
07C0
0780
0F80
1F00
1E00
3C00
7C00
7800
FFFF
FFFF
FFFF
ENDCHAR
STARTCHAR 017E
ENCODING 382
SWIDTH 445 0
DWIDTH 13 0
BBX 11 21 1 0
BITMAP
71E0
3BC0
1F80
0F00
0000
0000
FFE0
FFE0
FFE0
01C0
03C0
0780
0700
0E00
1E00
3C00
7800
7000
FFE0
FFE0
FFE0
ENDCHAR
STARTCHAR 017F
ENCODING 383
SWIDTH 308 0
DWIDTH 9 0
BBX 9 21 1 0
BITMAP
0780
1F80
3F80
3C00
3C00
3800
F800
F800
7800
3800
3800
3800
3800
3800
3800
3800
3800
3800
3800
3800
3800
ENDCHAR
STARTCHAR 0180
ENCODING 384
SWIDTH 548 0
DWIDTH 16 0
BBX 15 21 0 0
BITMAP
3800
3800
FF80
FF80
3800
3800
38F0
3BFC
3FFC
3E3E
3C1E
380E
380E
380E
380E
380E
381E
3C3E
3FFC
3BF8
39F0
ENDCHAR
STARTCHAR 0181
ENCODING 385
SWIDTH 822 0
DWIDTH 24 0
BBX 23 21 0 0
BITMAP
0FFFC0
3FFFF0
7FFFF8
79E07C
71E03C
F1E03C
71E03C
61E03C
01E078
01FFF0
01FFE0
01FFF8
01E07C
01E03C
01E01E
01E01E
01E03C
01E07C
01FFF8
01FFF0
01FFC0
ENDCHAR
STARTCHAR 0182
ENCODING 386
SWIDTH 617 0
DWIDTH 18 0
BBX 15 21 2 0
BITMAP
FFFE
FFFE
FFFE
F000
F000
F000
F000
F000
F000
FFE0
FFF8
FFFC
F03E
F01E
F01E
F01E
F01E
F03E
FFFC
FFF8
FFE0
ENDCHAR
STARTCHAR 0183
ENCODING 387
SWIDTH 548 0
DWIDTH 16 0
BBX 13 21 2 0
BITMAP
FFF0
FFF0
FFF0
E000
E000
E000
E3C0
EFF0
FFF0
F8F8
F078
E038
E038
E038
E038
E078
E078
F0F8
FFF0
EFE0
E780
ENDCHAR
STARTCHAR 0184
ENCODING 388
SWIDTH 685 0
DWIDTH 20 0
BBX 20 21 0 0
BITMAP
070000
0F0000
1F0000
3F0000
7F0000
FF0000
3F0000
1FFE00
0FFF80
0FFFC0
0F03E0
0F01E0
0F00F0
0F00F0
0F00F0
0F00F0
0F01E0
0F03E0
0FFFC0
0FFF80
0FFE00
ENDCHAR
STARTCHAR 0185
ENCODING 389
SWIDTH 582 0
DWIDTH 17 0
BBX 17 21 -1 0
BITMAP
0E0000
1E0000
3E0000
7E0000
FE0000
7E0000
1E7C00
1EFE00
1FFF00
1F0F00
1E0780
1E0780
1E0780
1E0780
1E0780
1E0780
1E0780
1F0F00
1FFF00
1FFE00
1E7800
ENDCHAR
STARTCHAR 0186
ENCODING 390
SWIDTH 651 0
DWIDTH 19 0
BBX 18 21 0 0
BITMAP
0FE000
3FF800
7FFE00
783F00
200F80
000780
000780
0003C0
0003C0
0003C0
0003C0
0003C0
0003C0
0003C0
0007C0
000780
200F80
783F00
FFFE00
3FFC00
0FE000
ENDCHAR
STARTCHAR 0187
ENCODING 391
SWIDTH 651 0
DWIDTH 19 0
BBX 22 26 1 0
BITMAP
00007C
0001FC
0001FC
0001C0
0003C0
01FFC0
07FFC0
1FFFC0
3F0780
3C0100
7C0000
780000
F80000
F00000
F00000
F00000
F00000
F00000
F80000
780000
7C0000
3C0100
3F0780
1FFFC0
07FF00
01FC00
ENDCHAR
STARTCHAR 0188
ENCODING 392
SWIDTH 480 0
DWIDTH 14 0
BBX 16 21 1 0
BITMAP
001F
003F
003F
0078
0070
0070
0FF0
1FF0
3FF0
7830
F000
F000
F000
F000
F000
F000
F000
7870
7FF8
3FE0
0FC0
ENDCHAR
STARTCHAR 0189
ENCODING 393
SWIDTH 754 0
DWIDTH 22 0
BBX 21 21 0 0
BITMAP
1FFC00
1FFF00
1FFFC0
1E07E0
1E01F0
1E00F0
1E00F8
1E0078
1E0078
1E0078
FFC078
FFC078
1E0078
1E0078
1E00F8
1E00F0
1E01F0
1E07E0
1FFFC0
1FFF00
1FFC00
ENDCHAR
STARTCHAR 018A
ENCODING 394
SWIDTH 925 0
DWIDTH 27 0
BBX 26 21 0 0
BITMAP
0FFFE000
3FFFF800
7FFFFC00
71E03E00
71E01F00
F1E00F80
71E00780
71E00780
01E00780
01E003C0
01E003C0
01E003C0
01E007C0
01E00780
01E00780
01E00F80
01E01F00
01E03E00
01FFFC00
01FFF800
01FFE000
ENDCHAR
STARTCHAR 018B
ENCODING 395
SWIDTH 617 0
DWIDTH 18 0
BBX 15 21 1 0
BITMAP
7FFE
7FFE
7FFE
001E
001E
001E
001E
001E
001E
0FFE
3FFE
7FFE
F81E
F01E
F01E
F01E
F01E
781E
7FFE
3FFE
0FFE
ENDCHAR
STARTCHAR 018C
ENCODING 396
SWIDTH 548 0
DWIDTH 16 0
BBX 14 21 1 0
BITMAP
7FFC
7FFC
7FFC
003C
003C
003C
0FBC
3FFC
7FFC
787C
F03C
F03C
F03C
F03C
F03C
F03C
F03C
787C
7FFC
3FBC
1F1C
ENDCHAR
STARTCHAR 018D
ENCODING 397
SWIDTH 514 0
DWIDTH 15 0
BBX 15 21 0 0
BITMAP
07E0
1FF0
3FF8
7C7C
783C
701E
F01E
701E
701E
781C
783C
3C78
1FF0
07C0
03F0
00F0
0078
1878
3FF8
3FF0
1FE0
ENDCHAR
STARTCHAR 018E
ENCODING 398
SWIDTH 582 0
DWIDTH 17 0
BBX 13 21 1 0
BITMAP
FFF8
FFF8
FFF8
0078
0078
0078
0078
0078
0078
3FF8
3FF8
3FF8
0078
0078
0078
0078
0078
0078
FFF8
FFF8
FFF8
ENDCHAR
STARTCHAR 018F
ENCODING 399
SWIDTH 720 0
DWIDTH 21 0
BBX 19 21 1 0
BITMAP
07F000
3FFC00
7FFF00
FC1F80
700780
0003C0
0003C0
0001E0
0001E0
0001E0
FFFFE0
FFFFE0
FFFFE0
F001E0
F001E0
7003C0
7807C0
3E0F80
3FFF00
0FFE00
03F000
ENDCHAR
STARTCHAR 0190
ENCODING 400
SWIDTH 582 0
DWIDTH 17 0
BBX 16 21 1 0
BITMAP
07F0
1FFC
3FFE
7C1E
7800
7800
7800
7C00
3FF0
0FF0
3FF0
7C00
7800
F000
F000
F000
7806
7C1F
3FFE
1FFC
07E0
ENDCHAR
STARTCHAR 0191
ENCODING 401
SWIDTH 548 0
DWIDTH 16 0
BBX 18 26 -2 -5
BITMAP
0FFFC0
0FFFC0
0FFFC0
0F0000
0F0000
0F0000
0F0000
0F0000
0F0000
0FFF00
0FFF00
0FFF00
0F0000
0F0000
0F0000
0F0000
0F0000
0F0000
0F0000
0F0000
0F0000
0F0000
0F0000
FF0000
FE0000
F80000
ENDCHAR
STARTCHAR 0192
ENCODING 402
SWIDTH 342 0
DWIDTH 10 0
BBX 12 27 -2 -6
BITMAP
01F0
03F0
07F0
0780
0700
0700
3FF0
3FF0
1FF0
0700
0700
0700
0700
0700
0700
0700
0700
0700
0700
0700
0700
0700
0F00
0F00
FE00
FE00
F800
ENDCHAR
STARTCHAR 0193
ENCODING 403
SWIDTH 720 0
DWIDTH 21 0
BBX 23 26 1 0
BITMAP
00003E
00007E
0000FE
0000E0
0001E0
01FFE0
07FFE0
1FFFE0
3F03C0
3C0080
7C0000
780000
F80000
F00000
F00000
F00FE0
F00FE0
F00FE0
F801E0
7801E0
7C01E0
3E01E0
1F03E0
0FFFE0
07FFC0
01FE00
ENDCHAR
STARTCHAR 0194
ENCODING 404
SWIDTH 685 0
DWIDTH 20 0
BBX 22 21 -1 0
BITMAP
F8007C
7C00F8
3C00F0
1E01E0
0F01E0
0F83C0
078780
03C780
03EF00
01FE00
00FC00
007C00
00FC00
00FC00
01FE00
03CF00
078780
078780
0FFFC0
1FFFE0
3FFFF0
ENDCHAR
STARTCHAR 0195
ENCODING 405
SWIDTH 857 0
DWIDTH 25 0
BBX 21 21 2 0
BITMAP
E00000
E00000
E00000
E00000
E00000
E00000
E7C078
EFE078
FFF078
F8F078
E07878
E07878
E07878
E07878
E07878
E07878
E07878
E07C78
E03FF0
E01FF0
E00FC0
ENDCHAR
STARTCHAR 0196
ENCODING 406
SWIDTH 342 0
DWIDTH 10 0
BBX 7 21 2 0
BITMAP
F0
F0
F0
F0
F0
F0
F0
F0
F0
F0
F0
F0
F0
F0
F0
F0
F0
F0
7E
7E
3E
ENDCHAR
STARTCHAR 0197
ENCODING 407
SWIDTH 308 0
DWIDTH 9 0
BBX 9 21 0 0
BITMAP
1E00
1E00
1E00
1E00
1E00
1E00
1E00
1E00
1E00
FF80
FF80
1E00
1E00
1E00
1E00
1E00
1E00
1E00
1E00
1E00
1E00
ENDCHAR
STARTCHAR 0198
ENCODING 408
SWIDTH 720 0
DWIDTH 21 0
BBX 18 21 2 0
BITMAP
F007C0
F01FC0
F03FC0
F03C00
F07800
F0F800
F0F000
F1F000
F1E000
FFC000
FFC000
FFE000
F1F000
F0F800
F07800
F07C00
F03E00
F01F00
F00F00
F00F80
F007C0
ENDCHAR
STARTCHAR 0199
ENCODING 409
SWIDTH 548 0
DWIDTH 16 0
BBX 14 21 2 0
BITMAP
1F00
7F00
FE00
F000
E000
E000
E078
E0F0
E1E0
E1E0
E3C0
E780
FF00
FF00
FF80
E7C0
E3C0
E1E0
E0F0
E0F0
E07C
ENDCHAR
STARTCHAR 019A
ENCODING 410
SWIDTH 274 0
DWIDTH 8 0
BBX 8 21 0 0
BITMAP
3C
3C
3C
3C
3C
3C
3C
3C
3C
FF
FF
FF
3C
3C
3C
3C
3C
3C
3C
3C
3C
ENDCHAR
STARTCHAR 019B
ENCODING 411
SWIDTH 548 0
DWIDTH 16 0
BBX 15 21 0 0
BITMAP
7800
7C00
7E00
0E20
0FE0
0FE0
3F00
3F80
0780
07C0
07C0
0FC0
0FE0
1EE0
1CE0
3CF0
3C70
7878
783E
703E
F01E
ENDCHAR
STARTCHAR 019C
ENCODING 412
SWIDTH 1097 0
DWIDTH 32 0
BBX 27 21 2 0
BITMAP
F00F01E0
F00F01E0
F00F01E0
F00F01E0
F00F01E0
F00F01E0
F00F01E0
F00F01E0
F00F01E0
F00F01E0
F00F01E0
F00F01E0
F00F01E0
F00F01E0
F00F01E0
F01F01E0
781F03E0
7C3F87E0
7FF3FEE0
3FE3FCE0
0FC0F8E0
ENDCHAR
STARTCHAR 019D
ENCODING 413
SWIDTH 754 0
DWIDTH 22 0
BBX 22 27 -2 -6
BITMAP
0F001C
0F001C
0F801C
0FC01C
0FE01C
0FF01C
0FF01C
0F781C
0F7C1C
0F3E1C
0F1E1C
0F0F1C
0F0F9C
0F07DC
0F03FC
0F01FC
0F00FC
0F00FC
0F007C
0F003C
0F001C
0F0000
0F0000
0F0000
FE0000
FE0000
F80000
ENDCHAR
STARTCHAR 019E
ENCODING 414
SWIDTH 617 0
DWIDTH 18 0
BBX 15 20 1 -5
BITMAP
E1F0
F3FC
FFFC
3E3E
3C1E
3C1E
3C1E
3C1E
3C1E
3C1E
3C1E
3C1E
3C1E
3C1E
3C1E
001E
001E
001E
001E
001E
ENDCHAR
STARTCHAR 019F
ENCODING 415
SWIDTH 788 0
DWIDTH 23 0
BBX 21 21 1 0
BITMAP
01FC00
07FF00
0FFFC0
1F07E0
3C01F0
7C00F0
7800F8
F80078
F00078
FFFFF8
FFFFF8
FFFFF8
F00078
F00078
780078
7800F0
3C01F0
1F07E0
0FFFC0
07FF80
01FC00
ENDCHAR
STARTCHAR 01A0
ENCODING 416
SWIDTH 857 0
DWIDTH 25 0
BBX 24 23 1 0
BITMAP
00000E
00001F
01FC0E
07FF8E
0FFFDE
1F07FC
3C01F0
7800F0
780078
F00078
F00078
F00078
F00078
F00078
F00078
F00078
780078
7800F0
3C01F0
1F07E0
0FFFC0
07FF80
01FC00
ENDCHAR
STARTCHAR 01A1
ENCODING 417
SWIDTH 617 0
DWIDTH 18 0
BBX 18 18 1 0
BITMAP
000080
0003C0
0003C0
0FC3C0
1FF180
3FFB80
787F00
F03C00
F01C00
F01E00
F01E00
F01E00
F01E00
F03C00
787C00
3FF800
1FF000
0FC000
ENDCHAR
STARTCHAR 01A2
ENCODING 418
SWIDTH 1028 0
DWIDTH 30 0
BBX 27 26 1 -5
BITMAP
01F81F00
07FF7F80
1FFFFFC0
3F0FE3C0
3C03C1E0
7801E1E0
7801E1E0
F800F1E0
F000F1E0
F000F1E0
F000F1E0
F000F1E0
F000F1E0
F000F1E0
7801E1E0
7801E1E0
3C03C1E0
3F0FC1E0
1FFF81E0
0FFF01E0
01F801E0
000001E0
000001E0
000001E0
000001E0
000001E0
ENDCHAR
STARTCHAR 01A3
ENCODING 419
SWIDTH 822 0
DWIDTH 24 0
BBX 21 20 1 -5
BITMAP
0FC3E0
1FF7F0
3FFFF0
787C78
F03C78
F03C78
F03C78
F03C78
F03C78
F03C78
F03C78
787878
3FF878
1FF078
0FC078
000078
000078
000078
000078
000078
ENDCHAR
STARTCHAR 01A4
ENCODING 420
SWIDTH 788 0
DWIDTH 23 0
BBX 22 21 0 0
BITMAP
0FFF80
3FFFE0
7FFFF8
79E0F8
71E07C
F1E03C
71E03C
71E03C
01E03C
01E07C
01E0F8
01FFF8
01FFE0
01FF80
01E000
01E000
01E000
01E000
01E000
01E000
01E000
ENDCHAR
STARTCHAR 01A5
ENCODING 421
SWIDTH 548 0
DWIDTH 16 0
BBX 13 26 2 -5
BITMAP
1F00
7F00
FE00
F000
E000
E000
E3C0
EFF0
FFF0
F8F8
F078
E038
E038
E038
E038
E078
E078
F0F8
FFF0
EFE0
E780
E000
E000
E000
E000
E000
ENDCHAR
STARTCHAR 01A6
ENCODING 422
SWIDTH 617 0
DWIDTH 18 0
BBX 17 24 2 -3
BITMAP
F00000
F00000
F00000
FFE000
FFF800
FFFC00
F07C00
F03E00
F01E00
F01E00
F01E00
F03C00
F07C00
FFF800
FFF000
FFE000
F1F000
F0F000
F07800
F07C00
F03C00
001E00
001F00
000F80
ENDCHAR
STARTCHAR 01A7
ENCODING 423
SWIDTH 548 0
DWIDTH 16 0
BBX 14 21 1 0
BITMAP
1FC0
7FE0
7FF0
70F8
0078
0038
0078
00F8
03F8
0FF0
3FE0
7F80
FC00
F800
F000
F000
F018
F878
7FFC
3FF8
0FC0
ENDCHAR
STARTCHAR 01A8
ENCODING 424
SWIDTH 445 0
DWIDTH 13 0
BBX 11 15 1 0
BITMAP
1F00
7FC0
FFC0
61E0
01E0
01C0
07C0
3F00
7800
E000
E000
F0C0
FFE0
7FC0
3F00
ENDCHAR
STARTCHAR 01A9
ENCODING 425
SWIDTH 617 0
DWIDTH 18 0
BBX 16 21 1 0
BITMAP
FFFF
FFFF
FFFF
7800
3C00
1E00
0F00
0F80
07C0
03C0
01C0
03C0
0780
0F00
0F00
1E00
3C00
7800
FFFF
FFFF
FFFF
ENDCHAR
STARTCHAR 01AA
ENCODING 426
SWIDTH 342 0
DWIDTH 10 0
BBX 15 28 -2 -5
BITMAP
1F00
3F80
7FC0
73C0
F1C0
F1C0
F3C0
7FC0
7FC0
1FC0
01C0
01C0
01C0
01C0
01C0
01C0
01C0
01C0
01C0
01C0
01C0
01C0
01C0
01E0
01E0
00FE
00FE
003E
ENDCHAR
STARTCHAR 01AB
ENCODING 427
SWIDTH 377 0
DWIDTH 11 0
BBX 10 25 1 -5
BITMAP
1800
1800
3800
3800
3800
FF80
FF80
FF80
3800
3800
3800
3800
3800
3800
3800
3800
3800
3FC0
3FC0
1FC0
01C0
03C0
1F80
1F80
1F00
ENDCHAR
STARTCHAR 01AC
ENCODING 428
SWIDTH 685 0
DWIDTH 20 0
BBX 18 21 1 0
BITMAP
1FFFC0
7FFFC0
FFFFC0
F0F000
E0F000
E0F000
E0F000
C0F000
00F000
00F000
00F000
00F000
00F000
00F000
00F000
00F000
00F000
00F000
00F000
00F000
00F000
ENDCHAR
STARTCHAR 01AD
ENCODING 429
SWIDTH 377 0
DWIDTH 11 0
BBX 10 21 1 0
BITMAP
0F80
1F80
1F80
3C00
3800
3800
FF80
FF80
FF80
3800
3800
3800
3800
3800
3800
3800
3800
3C00
3F80
3FC0
1F00
ENDCHAR
STARTCHAR 01AE
ENCODING 430
SWIDTH 582 0
DWIDTH 17 0
BBX 17 27 0 -6
BITMAP
FFFF80
FFFF80
FFFF80
01E000
01E000
01E000
01E000
01E000
01E000
01E000
01E000
01E000
01E000
01E000
01E000
01E000
01E000
01E000
01E000
01E000
01E000
01E000
01E000
01E000
01FE00
00FE00
003E00
ENDCHAR
STARTCHAR 01AF
ENCODING 431
SWIDTH 857 0
DWIDTH 25 0
BBX 24 23 2 0
BITMAP
00000E
00001F
F0038E
F0038E
F0039E
F003FC
F003F0
F00380
F00380
F00380
F00380
F00380
F00380
F00380
F00380
F00780
F00780
780780
780F80
3E1F00
3FFE00
1FFC00
03F000
ENDCHAR
STARTCHAR 01B0
ENCODING 432
SWIDTH 651 0
DWIDTH 19 0
BBX 18 17 2 0
BITMAP
0003C0
0003C0
E07BC0
E07B80
E07F80
E07E00
E07800
E07800
E07800
E07800
E07800
E07800
E07800
F0F800
FFF800
7FF800
3E3800
ENDCHAR
STARTCHAR 01B1
ENCODING 433
SWIDTH 822 0
DWIDTH 24 0
BBX 21 21 1 0
BITMAP
FF8FF8
FF8FF8
FF8FF8
078F80
0F87C0
1E01E0
3C00F0
7800F0
780078
780078
700078
700078
700078
780078
780078
7800F0
3C01F0
1F03E0
0FFFC0
07FF00
01FC00
ENDCHAR
STARTCHAR 01B2
ENCODING 434
SWIDTH 720 0
DWIDTH 21 0
BBX 18 21 2 0
BITMAP
F03E00
F03F80
F03F80
F003C0
F003C0
F003C0
F003C0
F003C0
F003C0
F003C0
F003C0
F00780
F00780
F00780
F00F00
F01E00
F03E00
787C00
7FF800
3FE000
0F8000
ENDCHAR
STARTCHAR 01B3
ENCODING 435
SWIDTH 720 0
DWIDTH 21 0
BBX 21 21 0 0
BITMAP
F000F8
7801F8
7803F8
3C0780
3C0700
1E0F00
0F1E00
0F1E00
07BC00
07B800
03F800
01F000
01F000
01E000
01E000
01E000
01E000
01E000
01E000
01E000
01E000
ENDCHAR
STARTCHAR 01B4
ENCODING 436
SWIDTH 617 0
DWIDTH 18 0
BBX 17 20 0 -5
BITMAP
F00780
781F80
781F80
383C00
3C3C00
3C3800
1C7800
1E7000
0E7000
0FE000
07E000
07E000
07C000
03C000
038000
078000
070000
0F0000
0F0000
1E0000
ENDCHAR
STARTCHAR 01B5
ENCODING 437
SWIDTH 617 0
DWIDTH 18 0
BBX 16 21 1 0
BITMAP
FFFF
FFFF
FFFF
003E
003C
007C
00F8
00F0
01E0
7FFE
7FFE
7FFE
0F80
0F00
1E00
3E00
7C00
7800
FFFF
FFFF
FFFF
ENDCHAR
STARTCHAR 01B6
ENCODING 438
SWIDTH 445 0
DWIDTH 13 0
BBX 11 15 1 0
BITMAP
FFE0
FFE0
FFE0
01E0
03C0
0780
FFE0
FFE0
FFE0
1C00
3800
7000
FFE0
FFE0
FFE0
ENDCHAR
STARTCHAR 01B7
ENCODING 439
SWIDTH 582 0
DWIDTH 17 0
BBX 16 21 0 0
BITMAP
7FFE
7FFE
7FFE
003C
00F8
01F0
03E0
07C0
07F8
07FC
07FE
001F
000F
000F
000F
000F
301E
F83E
7FFC
3FF8
0FE0
ENDCHAR
STARTCHAR 01B8
ENCODING 440
SWIDTH 582 0
DWIDTH 17 0
BBX 16 21 1 0
BITMAP
7FFE
7FFE
7FFE
3E00
1F00
0F80
07C0
03E0
1FE0
3FF0
7FF0
F800
F000
F000
F000
F000
780C
7C1F
3FFE
1FFC
07F0
ENDCHAR
STARTCHAR 01B9
ENCODING 441
SWIDTH 445 0
DWIDTH 13 0
BBX 13 20 1 -5
BITMAP
7FF0
7FF0
7FF0
3800
1C00
1E00
0F00
0780
1FC0
7FC0
7800
F000
E000
E000
E000
F000
7870
7FF8
3FF0
0FC0
ENDCHAR
STARTCHAR 01BA
ENCODING 442
SWIDTH 445 0
DWIDTH 13 0
BBX 11 20 1 -5
BITMAP
FFE0
FFE0
FFC0
0380
0700
0E00
1F80
3FC0
01E0
01E0
01E0
01E0
0FC0
7F80
FE00
E000
E000
FE00
FE00
3E00
ENDCHAR
STARTCHAR 01BB
ENCODING 443
SWIDTH 582 0
DWIDTH 17 0
BBX 15 21 1 0
BITMAP
07C0
1FF0
3FF8
7878
703C
F03C
203C
003C
0038
0078
FFFE
FFFE
FFFE
03C0
0780
0F00
1E00
3C00
7FFC
FFFC
FFFC
ENDCHAR
STARTCHAR 01BC
ENCODING 444
SWIDTH 582 0
DWIDTH 17 0
BBX 15 21 1 0
BITMAP
FFFC
FFFC
7FFC
1E00
1C00
3C00
3C00
3FC0
7FF0
7FF8
107C
003C
001E
001E
001E
001E
603C
F07C
FFF8
7FF0
0FC0
ENDCHAR
STARTCHAR 01BD
ENCODING 445
SWIDTH 445 0
DWIDTH 13 0
BBX 11 15 1 0
BITMAP
FFE0
FFE0
FFC0
3800
3800
7F00
7FC0
7FE0
01E0
00E0
00E0
E1E0
FFC0
7F80
1F00
ENDCHAR
STARTCHAR 01BE
ENCODING 446
SWIDTH 445 0
DWIDTH 13 0
BBX 12 20 0 0
BITMAP
0600
0600
0E00
0E00
0E00
7FE0
7FE0
3FE0
0E00
0F00
0F80
07C0
01E0
00F0
0070
00F0
70F0
FFE0
3FE0
0F80
ENDCHAR
STARTCHAR 01BF
ENCODING 447
SWIDTH 548 0
DWIDTH 16 0
BBX 13 20 2 -5
BITMAP
E7E0
EFF0
FFF8
F878
F078
E038
E038
E038
E078
E070
E0F0
E1E0
E7C0
FF80
FE00
F800
E000
E000
E000
E000
ENDCHAR
STARTCHAR 01C0
ENCODING 448
SWIDTH 205 0
DWIDTH 6 0
BBX 3 27 2 -5
BITMAP
E0
E0
E0
E0
E0
E0
E0
E0
E0
E0
E0
E0
E0
E0
E0
E0
E0
E0
E0
E0
E0
E0
E0
E0
E0
E0
E0
ENDCHAR
STARTCHAR 01C1
ENCODING 449
SWIDTH 514 0
DWIDTH 15 0
BBX 12 27 1 -5
BITMAP
E070
E070
E070
E070
E070
E070
E070
E070
E070
E070
E070
E070
E070
E070
E070
E070
E070
E070
E070
E070
E070
E070
E070
E070
E070
E070
E070
ENDCHAR
STARTCHAR 01C2
ENCODING 450
SWIDTH 548 0
DWIDTH 16 0
BBX 13 27 1 -6
BITMAP
0780
0780
0780
0780
0780
0780
0780
0780
0780
FFF8
FFF8
FFF8
0780
0780
0780
FFF8
FFF8
FFF8
0780
0780
0780
0780
0780
0780
0780
0780
0780
ENDCHAR
STARTCHAR 01C3
ENCODING 451
SWIDTH 205 0
DWIDTH 6 0
BBX 4 21 1 0
BITMAP
F0
F0
F0
F0
F0
F0
F0
F0
F0
70
70
70
60
00
00
00
00
70
F0
F0
70
ENDCHAR
STARTCHAR 01C4
ENCODING 452
SWIDTH 1371 0
DWIDTH 40 0
BBX 37 26 2 0
BITMAP
000000E3C0
0000007780
0000003F00
0000001E00
0000000000
FFF007FFF8
FFFC07FFF8
FFFF07FFF8
F01F8001F0
F0078001E0
F003C003C0
F003C007C0
F001E00780
F001E00F00
F001E01F00
F001E03E00
F001E03C00
F001E07C00
F001E0F800
F003C0F000
F003C1E000
F00783E000
F01F83C000
FFFF07FFF8
FFFC07FFF8
FFF007FFF8
ENDCHAR
STARTCHAR 01C5
ENCODING 453
SWIDTH 1200 0
DWIDTH 35 0
BBX 32 21 2 0
BITMAP
FFF0038F
FFFC01DE
FFFF00FC
F01F8078
F0078000
F003C000
F003C7FF
F001E7FF
F001E7FF
F001E00E
F001E01E
F001E03C
F001E038
F001E070
F003C0F0
F003C1E0
F00783C0
F01F8380
FFFF07FF
FFFC07FF
FFF007FF
ENDCHAR
STARTCHAR 01C6
ENCODING 454
SWIDTH 1028 0
DWIDTH 30 0
BBX 28 21 1 0
BITMAP
003C38F0
003C1DE0
003C0FC0
003C0780
003C0000
003C0000
0FBC7FF0
3FFC7FF0
7FFC7FF0
787C00E0
F03C01E0
F03C03C0
F03C0380
F03C0700
F03C0F00
F03C1E00
F03C3C00
787C3800
7FFC7FF0
3FBC7FF0
1F1C7FF0
ENDCHAR
STARTCHAR 01C7
ENCODING 455
SWIDTH 960 0
DWIDTH 28 0
BBX 23 21 2 0
BITMAP
F0001E
F0001E
F0001E
F0001E
F0001E
F0001E
F0001E
F0001E
F0001E
F0001E
F0001E
F0001E
F0001E
F0001E
F0001E
F0001E
F0001E
F0003E
FFFBFC
FFFFF8
FFFFE0
ENDCHAR
STARTCHAR 01C8
ENCODING 456
SWIDTH 788 0
DWIDTH 23 0
BBX 19 26 2 -5
BITMAP
F001C0
F001E0
F003E0
F001E0
F001C0
F00000
F001C0
F001C0
F001C0
F001C0
F001C0
F001C0
F001C0
F001C0
F001C0
F001C0
F001C0
F001C0
FFF9C0
FFF9C0
FFF9C0
0001C0
0001C0
000FC0
000FC0
000F00
ENDCHAR
STARTCHAR 01C9
ENCODING 457
SWIDTH 514 0
DWIDTH 15 0
BBX 12 26 2 -5
BITMAP
E0E0
E0F0
E1F0
E0F0
E0E0
E000
E0E0
E0E0
E0E0
E0E0
E0E0
E0E0
E0E0
E0E0
E0E0
E0E0
E0E0
E0E0
E0E0
E0E0
E0E0
00E0
00E0
07E0
07E0
0780
ENDCHAR
STARTCHAR 01CA
ENCODING 458
SWIDTH 1200 0
DWIDTH 35 0
BBX 30 21 2 0
BITMAP
F001C03C
F001C03C
F801C03C
FC01C03C
FE01C03C
FF01C03C
FF01C03C
F781C03C
F7C1C03C
F3E1C03C
F1E1C03C
F0F1C03C
F0F9C03C
F07DC03C
F03FC03C
F01FC03C
F00FC03C
F00FC07C
F007C7F8
F003CFF0
F001CFC0
ENDCHAR
STARTCHAR 01CB
ENCODING 459
SWIDTH 1028 0
DWIDTH 30 0
BBX 26 26 2 -5
BITMAP
F001C380
F001C3C0
F801C7C0
FC01C3C0
FE01C380
FF01C000
FF01C380
F781C380
F7C1C380
F3E1C380
F1E1C380
F0F1C380
F0F9C380
F07DC380
F03FC380
F01FC380
F00FC380
F00FC380
F007C380
F003C380
F001C380
00000380
00000380
00001F80
00001F80
00001E00
ENDCHAR
STARTCHAR 01CC
ENCODING 460
SWIDTH 822 0
DWIDTH 24 0
BBX 21 26 2 -5
BITMAP
000070
000078
0000F8
000078
000070
000000
E7C070
FFE070
FFF070
F8F070
E07870
E07870
E07870
E07870
E07870
E07870
E07870
E07870
E07870
E07870
E07870
000070
000070
0003F0
0003F0
0003C0
ENDCHAR
STARTCHAR 01CD
ENCODING 461
SWIDTH 685 0
DWIDTH 20 0
BBX 20 26 0 0
BITMAP
071E00
03BC00
01F800
00F000
000000
00F000
01F800
01F800
01F800
03FC00
03DC00
039E00
079E00
070E00
0F0F00
0F0F00
0E0780
1E0780
1FFF80
3FFFC0
3FFFC0
3C01E0
7801E0
7801E0
F000F0
F000F0
ENDCHAR
STARTCHAR 01CE
ENCODING 462
SWIDTH 514 0
DWIDTH 15 0
BBX 12 21 1 0
BITMAP
71E0
3BC0
1F80
0F00
0000
0000
0F80
3FE0
FFE0
70F0
00F0
0070
0070
0FF0
7FF0
F870
E070
E070
F1F0
FFF0
3E70
ENDCHAR
STARTCHAR 01CF
ENCODING 463
SWIDTH 308 0
DWIDTH 9 0
BBX 10 26 0 0
BITMAP
E3C0
7780
3F00
1E00
0000
3C00
3C00
3C00
3C00
3C00
3C00
3C00
3C00
3C00
3C00
3C00
3C00
3C00
3C00
3C00
3C00
3C00
3C00
3C00
3C00
3C00
ENDCHAR
STARTCHAR 01D0
ENCODING 464
SWIDTH 240 0
DWIDTH 7 0
BBX 10 21 -1 0
BITMAP
E3C0
7780
3F00
1E00
0000
0000
1C00
1C00
1C00
1C00
1C00
1C00
1C00
1C00
1C00
1C00
1C00
1C00
1C00
1C00
1C00
ENDCHAR
STARTCHAR 01D1
ENCODING 465
SWIDTH 788 0
DWIDTH 23 0
BBX 21 26 1 0
BITMAP
038F00
01DE00
00FC00
007800
000000
01FC00
07FF00
0FFFC0
1F07E0
3C01F0
7800F0
780078
F00078
F00078
F00078
F00078
F00078
F00078
F00078
780078
7800F0
3C01F0
1F07E0
0FFFC0
07FF80
01FC00
ENDCHAR
STARTCHAR 01D2
ENCODING 466
SWIDTH 582 0
DWIDTH 17 0
BBX 15 21 1 0
BITMAP
1C78
0EF0
07E0
03C0
0000
0000
0FC0
1FF0
3FF8
787C
F03C
F01C
F01E
F01E
F01E
F01C
F03C
787C
3FF8
1FF0
0FC0
ENDCHAR
STARTCHAR 01D3
ENCODING 467
SWIDTH 754 0
DWIDTH 22 0
BBX 17 26 2 0
BITMAP
0E3C00
077800
03F000
01E000
000000
F00380
F00380
F00380
F00380
F00380
F00380
F00380
F00380
F00380
F00380
F00380
F00380
F00380
F00780
F00780
780780
780F80
3E1F00
3FFE00
1FFC00
03F000
ENDCHAR
STARTCHAR 01D4
ENCODING 468
SWIDTH 548 0
DWIDTH 16 0
BBX 13 21 2 0
BITMAP
71E0
3BC0
1F80
0F00
0000
0000
E078
E078
E078
E078
E078
E078
E078
E078
E078
E078
E078
F0F8
FFF8
7FF8
3E38
ENDCHAR
STARTCHAR 01D5
ENCODING 469
SWIDTH 754 0
DWIDTH 22 0
BBX 17 29 2 0
BITMAP
0FF800
0FF800
000000
0E1800
0E3C00
0F3C00
0E1800
000000
F00380
F00380
F00380
F00380
F00380
F00380
F00380
F00380
F00380
F00380
F00380
F00380
F00380
F00780
F00780
780780
780F80
3E1F00
3FFE00
1FFC00
03F000
ENDCHAR
STARTCHAR 01D6
ENCODING 470
SWIDTH 548 0
DWIDTH 16 0
BBX 13 25 2 0
BITMAP
7FC0
7FC0
7FC0
0000
31C0
79E0
79E0
31C0
0000
0000
E078
E078
E078
E078
E078
E078
E078
E078
E078
E078
E078
F0F8
FFF8
7FF8
3E38
ENDCHAR
STARTCHAR 01D7
ENCODING 471
SWIDTH 754 0
DWIDTH 22 0
BBX 17 31 2 0
BITMAP
000F00
003E00
003C00
007800
00F000
0E1800
0E3C00
0F3C00
0E1800
000000
F00380
F00380
F00380
F00380
F00380
F00380
F00380
F00380
F00380
F00380
F00380
F00380
F00380
F00780
F00780
780780
780F80
3E1F00
3FFE00
1FFC00
03F000
ENDCHAR
STARTCHAR 01D8
ENCODING 472
SWIDTH 548 0
DWIDTH 16 0
BBX 13 26 2 0
BITMAP
01F0
01C0
03C0
0780
0000
31C0
79E0
79E0
31C0
0000
0000
E078
E078
E078
E078
E078
E078
E078
E078
E078
E078
E078
F0F8
FFF8
7FF8
3E38
ENDCHAR
STARTCHAR 01D9
ENCODING 473
SWIDTH 754 0
DWIDTH 22 0
BBX 17 30 2 0
BITMAP
0E3C00
077800
03F000
01E000
0E1800
0E3C00
0F3C00
0E1800
000000
F00380
F00380
F00380
F00380
F00380
F00380
F00380
F00380
F00380
F00380
F00380
F00380
F00380
F00780
F00780
780780
780F80
3E1F00
3FFE00
1FFC00
03F000
ENDCHAR
STARTCHAR 01DA
ENCODING 474
SWIDTH 548 0
DWIDTH 16 0
BBX 13 26 2 0
BITMAP
71E0
39C0
1F80
0F00
0000
31C0
79E0
79E0
31C0
0000
0000
E078
E078
E078
E078
E078
E078
E078
E078
E078
E078
E078
F0F8
FFF8
7FF8
3E38
ENDCHAR
STARTCHAR 01DB
ENCODING 475
SWIDTH 754 0
DWIDTH 22 0
BBX 17 31 2 0
BITMAP
3C0000
1F0000
0F0000
078000
03C000
0E1800
0E3C00
0F3C00
0E1800
000000
F00380
F00380
F00380
F00380
F00380
F00380
F00380
F00380
F00380
F00380
F00380
F00380
F00380
F00780
F00780
780780
780F80
3E1F00
3FFE00
1FFC00
03F000
ENDCHAR
STARTCHAR 01DC
ENCODING 476
SWIDTH 548 0
DWIDTH 16 0
BBX 13 26 2 0
BITMAP
7800
3C00
1E00
0F00
0000
31C0
79E0
79E0
31C0
0000
0000
E078
E078
E078
E078
E078
E078
E078
E078
E078
E078
E078
F0F8
FFF8
7FF8
3E38
ENDCHAR
STARTCHAR 01DD
ENCODING 477
SWIDTH 514 0
DWIDTH 15 0
BBX 14 15 1 0
BITMAP
1F80
7FE0
FFF0
70F0
0078
0038
0038
FFFC
FFFC
E038
E078
F0F8
7FF0
3FE0
0F80
ENDCHAR
STARTCHAR 01DE
ENCODING 478
SWIDTH 685 0
DWIDTH 20 0
BBX 20 29 0 0
BITMAP
07FC00
07FC00
000000
070C00
071E00
079E00
070C00
000000
00F000
01F800
01F800
01F800
03FC00
03DC00
039E00
079E00
070E00
0F0F00
0F0F00
0E0780
1E0780
1FFF80
3FFFC0
3FFFC0
3C01E0
7801E0
7801E0
F000F0
F000F0
ENDCHAR
STARTCHAR 01DF
ENCODING 479
SWIDTH 514 0
DWIDTH 15 0
BBX 12 25 1 0
BITMAP
7FC0
7FC0
7FC0
0000
31C0
79E0
79E0
31C0
0000
0000
0F80
3FE0
FFE0
70F0
00F0
0070
0070
0FF0
7FF0
F870
E070
E070
F1F0
FFF0
3E70
ENDCHAR
STARTCHAR 01E0
ENCODING 480
SWIDTH 685 0
DWIDTH 20 0
BBX 20 30 0 0
BITMAP
07FC00
07FC00
000000
000000
00E000
00F000
00F000
00E000
000000
00F000
01F800
01F800
01F800
03FC00
03DC00
039E00
079E00
070E00
0F0F00
0F0F00
0E0780
1E0780
1FFF80
3FFFC0
3FFFC0
3C01E0
7801E0
7801E0
F000F0
F000F0
ENDCHAR
STARTCHAR 01E1
ENCODING 481
SWIDTH 514 0
DWIDTH 15 0
BBX 12 25 1 0
BITMAP
7FC0
7FC0
7FC0
0000
0E00
0F00
0F00
0F00
0E00
0000
0F80
3FE0
FFE0
70F0
00F0
0070
0070
0FF0
7FF0
F870
E070
E070
F1F0
FFF0
3E70
ENDCHAR
STARTCHAR 01E2
ENCODING 482
SWIDTH 925 0
DWIDTH 27 0
BBX 26 25 0 0
BITMAP
0007FC00
0007FC00
00000000
00000000
003FFFC0
003FFFC0
007FFFC0
007F0000
00FF0000
00EF0000
01E70000
01C70000
03C78000
0387FF00
0787FF00
0707FF00
0F078000
1FFF8000
1FFF8000
3FFF8000
3C038000
7803C000
7803FFC0
F003FFC0
F003FFC0
ENDCHAR
STARTCHAR 01E3
ENCODING 483
SWIDTH 788 0
DWIDTH 23 0
BBX 22 20 1 0
BITMAP
03FE00
03FE00
03FE00
000000
000000
0F87C0
3FCFF0
FFDFF0
70FC78
00F838
007038
0FFFFC
3FFFF8
787000
E07000
E0F800
F1FC38
FFDFF8
7F8FF0
3E07C0
ENDCHAR
STARTCHAR 01E4
ENCODING 484
SWIDTH 754 0
DWIDTH 22 0
BBX 21 21 1 0
BITMAP
01FE00
07FF80
1FFFE0
3F03C0
3C0080
7C0000
780000
F80000
F00000
F00FE0
F00FE0
F00FE0
F001E0
F80FF8
780FF8
7C0FF8
3E01E0
1F03E0
0FFFE0
07FFC0
01FE00
ENDCHAR
STARTCHAR 01E5
ENCODING 485
SWIDTH 548 0
DWIDTH 16 0
BBX 16 20 0 -5
BITMAP
07C0
1FFE
3FFE
3C38
3838
383C
3C38
1FF8
0FF0
1FC0
3800
3FF0
1FFC
1FFE
381E
FFFF
FFFF
781C
3FF8
0FE0
ENDCHAR
STARTCHAR 01E6
ENCODING 486
SWIDTH 720 0
DWIDTH 21 0
BBX 19 26 1 0
BITMAP
038F00
01DE00
00FC00
007800
000000
01FE00
07FF80
1FFFE0
3F03C0
3C0080
7C0000
780000
F80000
F00000
F00000
F00FE0
F00FE0
F00FE0
F801E0
7801E0
7C01E0
3E01E0
1F03E0
0FFFE0
07FFC0
00FE00
ENDCHAR
STARTCHAR 01E7
ENCODING 487
SWIDTH 514 0
DWIDTH 15 0
BBX 14 26 1 -5
BITMAP
38F0
1DE0
0FC0
0780
0000
0000
1F80
3FFC
7FFC
70F0
F070
F070
70F0
7FE0
3FE0
3F80
7000
7FE0
7FF8
7FF8
E03C
E038
F078
FFF8
7FF0
1FC0
ENDCHAR
STARTCHAR 01E8
ENCODING 488
SWIDTH 685 0
DWIDTH 20 0
BBX 18 26 2 0
BITMAP
0E3C00
077800
03F000
01E000
000000
F007C0
F00F00
F01F00
F03E00
F03C00
F07800
F0F000
F1F000
F1E000
FFC000
FFC000
FFE000
F1F000
F0F000
F07800
F07C00
F03E00
F01E00
F00F00
F00F80
F007C0
ENDCHAR
STARTCHAR 01E9
ENCODING 489
SWIDTH 548 0
DWIDTH 16 0
BBX 17 26 -1 0
BITMAP
E3C000
778000
3F0000
1E0000
000000
1C0000
1C0000
1C0000
1C0000
1C0000
1C0000
1C0F00
1C1E00
1C3C00
1C3C00
1C7800
1CF000
1FE000
1FE000
1FF000
1CF800
1C7800
1C3C00
1C1E00
1C1E00
1C0F80
ENDCHAR
STARTCHAR 01EA
ENCODING 490
SWIDTH 788 0
DWIDTH 23 0
BBX 21 26 1 -5
BITMAP
01FC00
07FF00
0FFFC0
1F07E0
3C01F0
7800F0
780078
F00078
F00078
F00078
F00078
F00078
F00078
F00078
780078
7800F0
3C01F0
3F07E0
1FFFC0
07FF80
01FE00
007000
006000
00E000
00FC00
007C00
ENDCHAR
STARTCHAR 01EB
ENCODING 491
SWIDTH 582 0
DWIDTH 17 0
BBX 15 20 1 -5
BITMAP
0FC0
1FF0
3FF8
787C
F03C
F01C
F01E
F01E
F01E
F01E
F03C
787C
7FF8
3FF0
0FE0
0300
0700
0700
07C0
03E0
ENDCHAR
STARTCHAR 01EC
ENCODING 492
SWIDTH 788 0
DWIDTH 23 0
BBX 21 30 1 -5
BITMAP
03FE00
03FE00
000000
000000
01FC00
07FF00
0FFFC0
1F07E0
3C01F0
7800F0
780078
F00078
F00078
F00078
F00078
F00078
F00078
F00078
7800F8
7800F0
3C01F0
3F07E0
1FFFC0
0FFF80
03FE00
007000
00E000
00E000
00F800
007C00
ENDCHAR
STARTCHAR 01ED
ENCODING 493
SWIDTH 582 0
DWIDTH 17 0
BBX 15 25 1 -5
BITMAP
1FF0
1FF0
1FF0
0000
0000
0FC0
1FF0
3FF8
787C
F03C
F01C
F01E
F01E
F01E
F01E
F01C
783C
7CF8
3FF0
0FE0
0300
0600
0600
07C0
03C0
ENDCHAR
STARTCHAR 01EE
ENCODING 494
SWIDTH 582 0
DWIDTH 17 0
BBX 16 26 0 0
BITMAP
0E3C
0778
03F0
01E0
0000
7FFE
7FFE
7FFE
003C
00F8
01F0
03E0
07C0
07F8
07FC
07FE
001F
000F
000F
000F
000F
301E
F83E
7FFC
3FF8
0FE0
ENDCHAR
STARTCHAR 01EF
ENCODING 495
SWIDTH 445 0
DWIDTH 13 0
BBX 13 26 -1 -5
BITMAP
38F0
1DE0
0FC0
0780
0000
0000
7FF0
7FF0
7FF0
00E0
01C0
03C0
0780
0F00
1FC0
1FF0
00F0
0078
0078
0038
0078
0078
70F0
FFF0
7FE0
1F80
ENDCHAR
STARTCHAR 01F0
ENCODING 496
SWIDTH 240 0
DWIDTH 7 0
BBX 10 26 -1 -5
BITMAP
E3C0
7780
3F00
1E00
0000
0000
1C00
1C00
1C00
1C00
1C00
1C00
1C00
1C00
1C00
1C00
1C00
1C00
1C00
1C00
1C00
1C00
1C00
FC00
FC00
F000
ENDCHAR
STARTCHAR 01F1
ENCODING 497
SWIDTH 1371 0
DWIDTH 40 0
BBX 37 21 2 0
BITMAP
FFF007FFF8
FFFC07FFF8
FFFF07FFF8
F01F8001F0
F0078001E0
F003C003C0
F003C007C0
F001E00780
F001E00F00
F001E01F00
F001E03E00
F001E03C00
F001E07C00
F001E0F800
F003C0F000
F003C1E000
F00783E000
F01F83C000
FFFF07FFF8
FFFC07FFF8
FFF007FFF8
ENDCHAR
STARTCHAR 01F2
ENCODING 498
SWIDTH 1200 0
DWIDTH 35 0
BBX 32 21 2 0
BITMAP
FFF00000
FFFC0000
FFFF0000
F01F8000
F0078000
F003C000
F003C7FF
F001E7FF
F001E7FF
F001E00E
F001E01E
F001E03C
F001E038
F001E070
F003C0F0
F003C1E0
F00783C0
F01F8380
FFFF07FF
FFFC07FF
FFF007FF
ENDCHAR
STARTCHAR 01F3
ENCODING 499
SWIDTH 1028 0
DWIDTH 30 0
BBX 28 21 1 0
BITMAP
003C0000
003C0000
003C0000
003C0000
003C0000
003C0000
0FBC7FF0
3FFC7FF0
7FFC7FF0
787C00E0
F03C01E0
F03C03C0
F03C0380
F03C0700
F03C0F00
F03C1E00
F03C3C00
787C3800
7FFC7FF0
3FBC7FF0
1F1C7FF0
ENDCHAR
STARTCHAR 01F4
ENCODING 500
SWIDTH 720 0
DWIDTH 21 0
BBX 19 27 1 0
BITMAP
000780
001F00
001E00
003C00
007800
000000
01FE00
07FF80
1FFFE0
3F03C0
3C0080
7C0000
780000
F80000
F00000
F00000
F00FE0
F00FE0
F00FE0
F801E0
7801E0
7C01E0
3E01E0
1F03E0
0FFFE0
07FFC0
00FE00
ENDCHAR
STARTCHAR 01F5
ENCODING 501
SWIDTH 514 0
DWIDTH 15 0
BBX 14 26 1 -5
BITMAP
01F0
01C0
03C0
0780
0000
0000
1F80
3FFC
7FFC
70F0
F070
F070
70F0
7FE0
3FE0
3F80
7000
7FE0
7FF8
7FF8
E03C
E038
F078
FFF8
7FF0
1FC0
ENDCHAR
STARTCHAR 01F6
ENCODING 502
SWIDTH 1062 0
DWIDTH 31 0
BBX 28 21 2 0
BITMAP
F003C000
F003C000
F003C000
F003C000
F003C000
F003C000
F003C7C0
F003C7E0
F003C7F0
FFFFC0F0
FFFFC0F0
FFFFC0F0
F003C0F0
F003C0F0
F003C0F0
F003C0E0
F003C1E0
F001E3C0
F001FFC0
F000FF80
F0007E00
ENDCHAR
STARTCHAR 01F7
ENCODING 503
SWIDTH 720 0
DWIDTH 21 0
BBX 18 26 2 -5
BITMAP
F1F800
F7FE00
FFFF00
FE0F80
FC0780
F803C0
F003C0
F003C0
F003C0
F00780
F00780
F00780
F00F00
F01F00
F03E00
F07C00
F1F800
F7F000
FFC000
FF8000
FE0000
F00000
F00000
F00000
F00000
F00000
ENDCHAR
STARTCHAR 01F8
ENCODING 504
SWIDTH 754 0
DWIDTH 22 0
BBX 18 27 2 0
BITMAP
03E000
00E000
00F000
007000
000800
000000
F001C0
F001C0
F801C0
FC01C0
FE01C0
FF01C0
FF01C0
F781C0
F7C1C0
F3E1C0
F1E1C0
F0F1C0
F0F9C0
F07DC0
F03FC0
F01FC0
F00FC0
F00FC0
F007C0
F003C0
F001C0
ENDCHAR
STARTCHAR 01F9
ENCODING 505
SWIDTH 548 0
DWIDTH 16 0
BBX 13 21 2 0
BITMAP
3E00
0E00
0F00
0700
0080
0000
E7C0
FFE0
FFF0
F8F0
E078
E078
E078
E078
E078
E078
E078
E078
E078
E078
E078
ENDCHAR
STARTCHAR 01FA
ENCODING 506
SWIDTH 685 0
DWIDTH 20 0
BBX 20 31 0 0
BITMAP
001F00
003C00
007800
00E000
00E000
019000
019800
019000
00E000
000000
00F000
01F800
01F800
01F800
03FC00
03DC00
039E00
079E00
070E00
0F0F00
0F0F00
0E0780
1E0780
1FFF80
3FFFC0
3FFFC0
3C01E0
7801E0
7801E0
F000F0
F000F0
ENDCHAR
STARTCHAR 01FB
ENCODING 507
SWIDTH 514 0
DWIDTH 15 0
BBX 12 27 1 0
BITMAP
01E0
03C0
0380
0700
0600
0F00
1F80
1980
1980
1F80
0F00
0000
0F80
3FE0
FFE0
70F0
00F0
0070
0070
0FF0
7FF0
F870
E070
E070
F1F0
FFF0
3E70
ENDCHAR
STARTCHAR 01FC
ENCODING 508
SWIDTH 925 0
DWIDTH 27 0
BBX 26 27 0 0
BITMAP
00000F00
00003E00
00003C00
00007800
0000F000
00000000
003FFFC0
003FFFC0
007FFFC0
007F0000
00FF0000
00EF0000
01E70000
01C70000
03C78000
0387FF00
0787FF00
0707FF00
0F078000
1FFF8000
1FFF8000
3FFF8000
3C038000
7803C000
7803FFC0
F003FFC0
F003FFC0
ENDCHAR
STARTCHAR 01FD
ENCODING 509
SWIDTH 788 0
DWIDTH 23 0
BBX 22 21 1 0
BITMAP
001F00
001C00
003C00
007800
000000
000000
0F87C0
3FCFF0
FFDFF0
70FC78
00F838
007038
0FFFFC
3FFFF8
787000
E07000
E0F800
F1FC38
FFDFF8
7F8FF0
3E07C0
ENDCHAR
STARTCHAR 01FE
ENCODING 510
SWIDTH 788 0
DWIDTH 23 0
BBX 21 28 1 -1
BITMAP
000780
001F00
001E00
003C00
007800
000000
01FC78
07FFF0
0FFFE0
1F07C0
3C03E0
7807F0
780EF0
F80E78
F01C78
F03878
F03878
F07078
F0E078
F1C078
79C078
7B80F0
3F01F0
3F07E0
1FFFC0
1FFF80
39FC00
700000
ENDCHAR
STARTCHAR 01FF
ENCODING 511
SWIDTH 582 0
DWIDTH 17 0
BBX 15 22 1 -1
BITMAP
00F8
00E0
01E0
03C0
0006
000E
0FDC
1FF8
7FF8
787C
F0FC
F0DE
F1DE
E39E
E71E
FE1C
7C3C
787C
3FF8
7FF0
67C0
E000
ENDCHAR
STARTCHAR 0200
ENCODING 512
SWIDTH 685 0
DWIDTH 20 0
BBX 20 26 0 0
BITMAP
3CE000
0E7000
073800
039C00
000000
00F000
01F800
01F800
01F800
03FC00
03DC00
039E00
079E00
070E00
0F0F00
0F0F00
0E0780
1E0780
1FFF80
3FFFC0
3FFFC0
3C01E0
7801E0
7801E0
F000F0
F000F0
ENDCHAR
STARTCHAR 0201
ENCODING 513
SWIDTH 514 0
DWIDTH 15 0
BBX 13 21 0 0
BITMAP
F700
7380
39C0
1CC0
0000
0000
07C0
1FF0
7FF0
3878
0078
0038
0038
07F8
3FF8
7C38
7038
7038
78F8
7FF8
1F38
ENDCHAR
STARTCHAR 0202
ENCODING 514
SWIDTH 685 0
DWIDTH 20 0
BBX 20 26 0 0
BITMAP
01F000
03FC00
071C00
070E00
000000
00F000
01F800
01F800
01F800
03FC00
03DC00
039E00
079E00
070E00
0F0F00
0F0F00
0E0780
1E0780
1FFF80
3FFFC0
3FFFC0
3C01E0
7801E0
7801E0
F000F0
F000F0
ENDCHAR
STARTCHAR 0203
ENCODING 515
SWIDTH 514 0
DWIDTH 15 0
BBX 12 21 1 0
BITMAP
1F00
3F80
31C0
70C0
0000
0000
0F80
3FE0
FFE0
70F0
00F0
0070
0070
0FF0
7FF0
F870
E070
E070
F1F0
FFF0
3E70
ENDCHAR
STARTCHAR 0204
ENCODING 516
SWIDTH 582 0
DWIDTH 17 0
BBX 15 26 1 0
BITMAP
F380
39C0
1CE0
0E70
0000
7FFE
7FFE
7FFE
7800
7800
7800
7800
7800
7800
7FF8
7FF8
7FF8
7800
7800
7800
7800
7800
7800
7FFE
7FFE
7FFE
ENDCHAR
STARTCHAR 0205
ENCODING 517
SWIDTH 514 0
DWIDTH 15 0
BBX 14 21 1 0
BITMAP
F700
7380
39C0
1CC0
0000
0000
0FC0
1FE0
3FF0
7878
F038
F038
FFFC
FFF8
F000
F000
F000
7838
3FF8
1FF0
0FC0
ENDCHAR
STARTCHAR 0206
ENCODING 518
SWIDTH 582 0
DWIDTH 17 0
BBX 14 26 2 0
BITMAP
0F80
1FE0
38E0
3870
0000
FFFC
FFFC
FFFC
F000
F000
F000
F000
F000
F000
FFF0
FFF0
FFF0
F000
F000
F000
F000
F000
F000
FFFC
FFFC
FFFC
ENDCHAR
STARTCHAR 0207
ENCODING 519
SWIDTH 514 0
DWIDTH 15 0
BBX 14 21 1 0
BITMAP
0F80
1FC0
18E0
3860
0000
0000
0FC0
1FE0
3FF0
7878
F038
F038
FFFC
FFF8
F000
F000
F000
7838
3FF8
1FF0
0FC0
ENDCHAR
STARTCHAR 0208
ENCODING 520
SWIDTH 308 0
DWIDTH 9 0
BBX 12 26 -3 0
BITMAP
F380
39C0
1CE0
0E70
0000
0780
0780
0780
0780
0780
0780
0780
0780
0780
0780
0780
0780
0780
0780
0780
0780
0780
0780
0780
0780
0780
ENDCHAR
STARTCHAR 0209
ENCODING 521
SWIDTH 240 0
DWIDTH 7 0
BBX 10 21 -3 0
BITMAP
F700
7380
39C0
1CC0
0000
0000
0700
0700
0700
0700
0700
0700
0700
0700
0700
0700
0700
0700
0700
0700
0700
ENDCHAR
STARTCHAR 020A
ENCODING 522
SWIDTH 308 0
DWIDTH 9 0
BBX 10 26 0 0
BITMAP
3E00
7F80
E380
E1C0
0000
3C00
3C00
3C00
3C00
3C00
3C00
3C00
3C00
3C00
3C00
3C00
3C00
3C00
3C00
3C00
3C00
3C00
3C00
3C00
3C00
3C00
ENDCHAR
STARTCHAR 020B
ENCODING 523
SWIDTH 240 0
DWIDTH 7 0
BBX 9 21 -1 0
BITMAP
3E00
7F00
6380
E180
0000
0000
1C00
1C00
1C00
1C00
1C00
1C00
1C00
1C00
1C00
1C00
1C00
1C00
1C00
1C00
1C00
ENDCHAR
STARTCHAR 020C
ENCODING 524
SWIDTH 788 0
DWIDTH 23 0
BBX 21 26 1 0
BITMAP
1E7000
073800
039C00
01CE00
000000
01FC00
07FF00
0FFFC0
1F07E0
3C01F0
7800F0
780078
F00078
F00078
F00078
F00078
F00078
F00078
F00078
780078
7800F0
3C01F0
1F07E0
0FFFC0
07FF80
01FC00
ENDCHAR
STARTCHAR 020D
ENCODING 525
SWIDTH 582 0
DWIDTH 17 0
BBX 15 21 1 0
BITMAP
7B80
39C0
1CE0
0E60
0000
0000
0FC0
1FF0
3FF8
787C
F03C
F01C
F01E
F01E
F01E
F01C
F03C
787C
3FF8
1FF0
0FC0
ENDCHAR
STARTCHAR 020E
ENCODING 526
SWIDTH 788 0
DWIDTH 23 0
BBX 21 26 1 0
BITMAP
00F800
01FE00
038E00
038700
000000
01FC00
07FF00
0FFFC0
1F07E0
3C01F0
7800F0
780078
F00078
F00078
F00078
F00078
F00078
F00078
F00078
780078
7800F0
3C01F0
1F07E0
0FFFC0
07FF80
01FC00
ENDCHAR
STARTCHAR 020F
ENCODING 527
SWIDTH 582 0
DWIDTH 17 0
BBX 15 21 1 0
BITMAP
07C0
0FE0
0C70
1C30
0000
0000
0FC0
1FF0
3FF8
787C
F03C
F01C
F01E
F01E
F01E
F01C
F03C
787C
3FF8
1FF0
0FC0
ENDCHAR
STARTCHAR 0210
ENCODING 528
SWIDTH 651 0
DWIDTH 19 0
BBX 18 26 1 0
BITMAP
F38000
39C000
1CE000
0E7000
000000
7FF000
7FFC00
7FFE00
783E00
781F00
780F00
780F00
780F00
781E00
783E00
7FFC00
7FF800
7FF000
78F800
787800
783C00
783E00
781E00
780F00
780F80
7807C0
ENDCHAR
STARTCHAR 0211
ENCODING 529
SWIDTH 377 0
DWIDTH 11 0
BBX 12 21 -1 0
BITMAP
F700
7380
39C0
1CC0
0000
0000
1CF0
1DF0
1FF0
1F00
1E00
1C00
1C00
1C00
1C00
1C00
1C00
1C00
1C00
1C00
1C00
ENDCHAR
STARTCHAR 0212
ENCODING 530
SWIDTH 651 0
DWIDTH 19 0
BBX 17 26 2 0
BITMAP
0F8000
1FE000
38E000
387000
000000
FFE000
FFF800
FFFC00
F07C00
F03E00
F01E00
F01E00
F01E00
F03C00
F07C00
FFF800
FFF000
FFE000
F1F000
F0F000
F07800
F07C00
F03C00
F01E00
F01F00
F00F80
ENDCHAR
STARTCHAR 0213
ENCODING 531
SWIDTH 377 0
DWIDTH 11 0
BBX 10 21 1 0
BITMAP
3E00
7F00
6380
E180
0000
0000
73C0
77C0
7FC0
7C00
7800
7000
7000
7000
7000
7000
7000
7000
7000
7000
7000
ENDCHAR
STARTCHAR 0214
ENCODING 532
SWIDTH 754 0
DWIDTH 22 0
BBX 17 26 2 0
BITMAP
79C000
1CE000
0E7000
073800
000000
F00380
F00380
F00380
F00380
F00380
F00380
F00380
F00380
F00380
F00380
F00380
F00380
F00380
F00780
F00780
780780
780F80
3E1F00
3FFE00
1FFC00
03F000
ENDCHAR
STARTCHAR 0215
ENCODING 533
SWIDTH 548 0
DWIDTH 16 0
BBX 14 21 1 0
BITMAP
F700
7380
39C0
1CC0
0000
0000
703C
703C
703C
703C
703C
703C
703C
703C
703C
703C
703C
787C
7FFC
3FFC
1F1C
ENDCHAR
STARTCHAR 0216
ENCODING 534
SWIDTH 754 0
DWIDTH 22 0
BBX 17 26 2 0
BITMAP
03E000
07F800
0E3800
0E1C00
000000
F00380
F00380
F00380
F00380
F00380
F00380
F00380
F00380
F00380
F00380
F00380
F00380
F00380
F00780
F00780
780780
780F80
3E1F00
3FFE00
1FFC00
03F000
ENDCHAR
STARTCHAR 0217
ENCODING 535
SWIDTH 548 0
DWIDTH 16 0
BBX 13 21 2 0
BITMAP
1F00
3F80
31C0
70C0
0000
0000
E078
E078
E078
E078
E078
E078
E078
E078
E078
E078
E078
F0F8
FFF8
7FF8
3E38
ENDCHAR
STARTCHAR 0218
ENCODING 536
SWIDTH 548 0
DWIDTH 16 0
BBX 14 26 1 -5
BITMAP
0FE0
1FF8
3FF8
7838
7000
7000
7000
7800
7F00
3FE0
1FF0
07F8
00FC
003C
003C
003C
603C
F078
FFF0
7FE0
1FC0
0000
0380
0700
0700
0600
ENDCHAR
STARTCHAR 0219
ENCODING 537
SWIDTH 445 0
DWIDTH 13 0
BBX 11 20 1 -5
BITMAP
1F00
7FC0
7FE0
F0C0
F000
F000
7E00
3F80
07C0
01E0
01E0
E1E0
FFC0
FFC0
3F00
0000
0E00
1C00
1C00
1800
ENDCHAR
STARTCHAR 021A
ENCODING 538
SWIDTH 582 0
DWIDTH 17 0
BBX 17 26 0 -5
BITMAP
FFFF80
FFFF80
FFFF80
01E000
01E000
01E000
01E000
01E000
01E000
01E000
01E000
01E000
01E000
01E000
01E000
01E000
01E000
01E000
01E000
01E000
01E000
000000
00E000
01C000
01C000
018000
ENDCHAR
STARTCHAR 021B
ENCODING 539
SWIDTH 377 0
DWIDTH 11 0
BBX 10 25 1 -5
BITMAP
1800
1800
3800
3800
3800
FF80
FF80
FF80
3800
3800
3800
3800
3800
3800
3800
3800
3C00
3F80
3FC0
1F00
0000
0700
0E00
0E00
0C00
ENDCHAR
STARTCHAR 021C
ENCODING 540
SWIDTH 582 0
DWIDTH 17 0
BBX 16 21 0 0
BITMAP
7FFE
7FFE
7FFE
003C
00F8
01F0
03E0
07C0
07F8
07FC
07FE
001F
000F
000F
000F
000F
301E
F83E
7FFC
3FF8
0FE0
ENDCHAR
STARTCHAR 021D
ENCODING 541
SWIDTH 445 0
DWIDTH 13 0
BBX 13 20 -1 -5
BITMAP
7FF0
7FF0
7FF0
00E0
01C0
03C0
0780
0F00
1FC0
1FF0
00F0
0078
0038
0038
0078
0078
70F0
FFF0
7FE0
1F80
ENDCHAR
STARTCHAR 021E
ENCODING 542
SWIDTH 754 0
DWIDTH 22 0
BBX 18 26 2 0
BITMAP
0E3C00
077800
03F000
01E000
000000
F003C0
F003C0
F003C0
F003C0
F003C0
F003C0
F003C0
F003C0
F003C0
FFFFC0
FFFFC0
FFFFC0
F003C0
F003C0
F003C0
F003C0
F003C0
F003C0
F003C0
F003C0
F003C0
ENDCHAR
STARTCHAR 021F
ENCODING 543
SWIDTH 548 0
DWIDTH 16 0
BBX 16 26 -1 0
BITMAP
E3C0
7780
3F00
1E00
0000
1C00
1C00
1C00
1C00
1C00
1C00
1CF8
1DFC
1FFE
1F1E
1C0F
1C0F
1C0F
1C0F
1C0F
1C0F
1C0F
1C0F
1C0F
1C0F
1C0F
ENDCHAR
STARTCHAR 0220
ENCODING 544
SWIDTH 720 0
DWIDTH 21 0
BBX 17 26 2 -5
BITMAP
F1F800
F3FE00
FFFF00
FE0F00
FC0780
F80780
F00780
F00780
F00780
F00780
F00780
F00780
F00780
F00780
F00780
F00780
F00780
F00780
F00780
F00780
F00780
000780
000780
000780
000780
000780
ENDCHAR
STARTCHAR 0221
ENCODING 545
SWIDTH 651 0
DWIDTH 19 0
BBX 19 26 1 -5
BITMAP
003C00
003C00
003C00
003C00
003C00
003C00
0FBC00
3FFC00
7FFC00
787C00
F03C00
F03C00
F03C00
F03C00
F03C00
F03C00
F03C00
787C00
7FFC00
3FFC00
1F1FC0
001FE0
001C60
001E60
003FE0
0037C0
ENDCHAR
STARTCHAR 0222
ENCODING 546
SWIDTH 651 0
DWIDTH 19 0
BBX 17 21 1 0
BITMAP
780E00
780F00
780F00
780F00
780F00
7C1E00
3E3E00
1FFC00
07F000
0FFC00
3E7E00
7C1F00
780F00
F00700
F00780
F00780
F80F00
7C1F00
3FFE00
1FFC00
07F000
ENDCHAR
STARTCHAR 0223
ENCODING 547
SWIDTH 548 0
DWIDTH 16 0
BBX 14 21 1 0
BITMAP
7038
F038
F038
F038
7038
7878
3CF0
1FE0
0FC0
1FE0
3DF0
7878
F038
F03C
F03C
F03C
F03C
F878
7FF8
3FF0
0FC0
ENDCHAR
STARTCHAR 0224
ENCODING 548
SWIDTH 617 0
DWIDTH 18 0
BBX 16 26 1 -5
BITMAP
FFFF
FFFF
FFFF
003E
003C
0078
00F8
00F0
01E0
03E0
07C0
0780
0F80
1F00
1E00
3C00
7C00
7800
FFFF
FFFF
FFFF
000F
000F
007E
00FE
00F8
ENDCHAR
STARTCHAR 0225
ENCODING 549
SWIDTH 480 0
DWIDTH 14 0
BBX 12 20 1 -5
BITMAP
FFE0
FFE0
FFE0
01C0
03C0
0780
0700
0E00
1E00
3C00
7800
7000
FFF0
FFF0
FFF0
0070
00F0
07E0
07E0
07C0
ENDCHAR
STARTCHAR 0226
ENCODING 550
SWIDTH 685 0
DWIDTH 20 0
BBX 20 26 0 0
BITMAP
00E000
00F000
00F000
00E000
000000
00F000
01F800
01F800
01F800
03FC00
03DC00
039E00
079E00
070E00
0F0F00
0F0F00
0E0780
1E0780
1FFF80
3FFFC0
3FFFC0
3C01E0
7801E0
7801E0
F000F0
F000F0
ENDCHAR
STARTCHAR 0227
ENCODING 551
SWIDTH 514 0
DWIDTH 15 0
BBX 12 21 1 0
BITMAP
0E00
0F00
0F00
0F00
0E00
0000
0F80
3FE0
FFE0
70F0
00F0
0070
0070
0FF0
7FF0
F870
E070
E070
F1F0
FFF0
3E70
ENDCHAR
STARTCHAR 0228
ENCODING 552
SWIDTH 582 0
DWIDTH 17 0
BBX 14 26 2 -5
BITMAP
FFFC
FFFC
FFFC
F000
F000
F000
F000
F000
F000
FFF0
FFF0
FFF0
F000
F000
F000
F000
F000
F000
FFFC
FFFC
FFFC
0300
03C0
00E0
07E0
07C0
ENDCHAR
STARTCHAR 0229
ENCODING 553
SWIDTH 514 0
DWIDTH 15 0
BBX 14 20 1 -5
BITMAP
0FC0
1FE0
7FF0
7878
F038
F038
FFFC
FFF8
F000
F000
7000
7838
3FF8
1FF0
07C0
0300
03C0
00C0
07C0
0780
ENDCHAR
STARTCHAR 022A
ENCODING 554
SWIDTH 788 0
DWIDTH 23 0
BBX 21 29 1 0
BITMAP
03FE00
03FE00
000000
038600
038F00
03CF00
038600
000000
01FC00
07FF00
0FFFC0
1F07E0
3C01F0
7800F0
780078
F00078
F00078
F00078
F00078
F00078
F00078
F00078
780078
7800F0
3C01F0
1F07E0
0FFFC0
07FF80
01FC00
ENDCHAR
STARTCHAR 022B
ENCODING 555
SWIDTH 582 0
DWIDTH 17 0
BBX 15 25 1 0
BITMAP
1FF0
1FF0
1FF0
0000
0C70
1E78
1E78
0C70
0000
0000
0FC0
1FF0
3FF8
787C
F03C
F01C
F01E
F01E
F01E
F01C
F03C
787C
3FF8
1FF0
0FC0
ENDCHAR
STARTCHAR 022C
ENCODING 556
SWIDTH 788 0
DWIDTH 23 0
BBX 21 29 1 0
BITMAP
03FE00
03FE00
000000
01E300
03FF00
03FE00
031E00
000000
01FC00
07FF00
0FFFC0
1F07E0
3C01F0
7800F0
780078
F00078
F00078
F00078
F00078
F00078
F00078
F00078
780078
7800F0
3C01F0
1F07E0
0FFFC0
07FF80
01FC00
ENDCHAR
STARTCHAR 022D
ENCODING 557
SWIDTH 582 0
DWIDTH 17 0
BBX 15 24 1 0
BITMAP
3FE0
3FE0
3FE0
0E60
1FE0
3FE0
31C0
0000
0000
0FC0
1FF0
3FF8
787C
F03C
F01C
F01E
F01E
F01E
F01C
F03C
787C
3FF8
1FF0
0FC0
ENDCHAR
STARTCHAR 022E
ENCODING 558
SWIDTH 788 0
DWIDTH 23 0
BBX 21 26 1 0
BITMAP
007000
007800
007800
007000
000000
01FC00
07FF00
0FFFC0
1F07E0
3C01F0
7800F0
780078
F00078
F00078
F00078
F00078
F00078
F00078
F00078
780078
7800F0
3C01F0
1F07E0
0FFFC0
07FF80
01FC00
ENDCHAR
STARTCHAR 022F
ENCODING 559
SWIDTH 582 0
DWIDTH 17 0
BBX 15 21 1 0
BITMAP
0380
03C0
03C0
03C0
0380
0000
0FC0
1FF0
3FF8
787C
F03C
F01C
F01E
F01E
F01E
F01C
F03C
787C
3FF8
1FF0
0FC0
ENDCHAR
STARTCHAR 0230
ENCODING 560
SWIDTH 788 0
DWIDTH 23 0
BBX 21 30 1 0
BITMAP
03FE00
03FE00
000000
000000
007000
007800
007800
007000
000000
01FC00
07FF00
0FFFC0
1F07E0
3C01F0
7800F0
780078
F00078
F00078
F00078
F00078
F00078
F00078
F00078
780078
7800F0
3C01F0
1F07E0
0FFFC0
07FF80
01FC00
ENDCHAR
STARTCHAR 0231
ENCODING 561
SWIDTH 582 0
DWIDTH 17 0
BBX 15 25 1 0
BITMAP
1FF0
1FF0
1FF0
0000
0380
03C0
03C0
03C0
0380
0000
0FC0
1FF0
3FF8
787C
F03C
F01C
F01E
F01E
F01E
F01C
F03C
787C
3FF8
1FF0
0FC0
ENDCHAR
STARTCHAR 0232
ENCODING 562
SWIDTH 651 0
DWIDTH 19 0
BBX 19 25 0 0
BITMAP
07FC00
07FC00
000000
000000
F003E0
7803C0
7807C0
3C0780
3E0F00
1E0F00
0F1E00
0F1E00
07BC00
07B800
03F800
01F000
01F000
01E000
01E000
01E000
01E000
01E000
01E000
01E000
01E000
ENDCHAR
STARTCHAR 0233
ENCODING 563
SWIDTH 514 0
DWIDTH 15 0
BBX 15 25 0 -5
BITMAP
1FF0
1FF0
1FF0
0000
0000
F00E
781E
781C
383C
3C38
3C38
1E78
1E70
0EF0
0FE0
07E0
07C0
07C0
03C0
0380
0780
0700
0F00
0E00
1E00
ENDCHAR
STARTCHAR 0234
ENCODING 564
SWIDTH 308 0
DWIDTH 9 0
BBX 10 26 1 -5
BITMAP
7000
7000
7000
7000
7000
7000
7000
7000
7000
7000
7000
7000
7000
7000
7000
7000
7000
7000
7000
7000
7700
7F80
79C0
79C0
FF80
6F00
ENDCHAR
STARTCHAR 0235
ENCODING 565
SWIDTH 617 0
DWIDTH 18 0
BBX 18 20 2 -5
BITMAP
E7C000
EFE000
FFF000
F8F000
E07800
E07800
E07800
E07800
E07800
E07800
E07800
E07800
E07800
E07800
E07F80
007FC0
0038C0
003CC0
007FC0
006F80
ENDCHAR
STARTCHAR 0236
ENCODING 566
SWIDTH 377 0
DWIDTH 11 0
BBX 11 25 1 -5
BITMAP
0800
1800
3800
3800
3800
FF80
FF80
FF80
3800
3800
3800
3800
3800
3800
3800
3800
3800
3800
3800
3B80
3FC0
3CE0
3CE0
7FC0
3780
ENDCHAR
STARTCHAR 0237
ENCODING 567
SWIDTH 240 0
DWIDTH 7 0
BBX 6 20 -1 -5
BITMAP
1C
1C
1C
1C
1C
1C
1C
1C
1C
1C
1C
1C
1C
1C
1C
1C
1C
FC
FC
F0
ENDCHAR
STARTCHAR 0238
ENCODING 568
SWIDTH 891 0
DWIDTH 26 0
BBX 24 21 1 0
BITMAP
003C00
003C00
003C00
003C00
003C00
003C00
0FBCF8
3FFFFC
7FFFFE
787E1E
F03C0E
F03C0F
F03C0F
F03C0F
F03C0F
F03C0F
F03C1E
787E3E
7FFFFC
3FBBF8
1F11F0
ENDCHAR
STARTCHAR 0239
ENCODING 569
SWIDTH 891 0
DWIDTH 26 0
BBX 24 20 1 -5
BITMAP
0F98F8
3FFBFC
7FFFFE
787E1E
F03C0E
F03C0F
F03C0F
F03C0F
F03C0F
F03C0F
F03C1E
787E3E
7FFFFC
3FBFF8
1F3DF0
003C00
003C00
003C00
003C00
003C00
ENDCHAR
STARTCHAR 023A
ENCODING 570
SWIDTH 685 0
DWIDTH 20 0
BBX 20 22 0 -1
BITMAP
00F070
01F8E0
01F9C0
01FB80
03FF00
03DE00
039E00
079E00
073E00
0F3F00
0F7F00
0EE780
1FC780
1FFF80
3FFFC0
3FFFC0
3F01E0
7E01E0
7C01E0
F800F0
F000F0
F00000
ENDCHAR
STARTCHAR 023B
ENCODING 571
SWIDTH 685 0
DWIDTH 20 0
BBX 20 22 0 -1
BITMAP
00FE70
03FFE0
0FFFE0
0F83C0
1E0780
3C0E00
3C0E00
7C1C00
783800
783800
787000
78E000
79C000
7DC000
3F8000
3F0000
1F0080
1F83C0
1FFFE0
3FFF80
38FE00
F00000
ENDCHAR
STARTCHAR 023C
ENCODING 572
SWIDTH 480 0
DWIDTH 14 0
BBX 16 20 -1 -2
BITMAP
0007
0006
000C
03FC
0FFC
1FFC
1E38
3C60
3CC0
3CC0
3D80
3F00
3F00
1E00
1E1C
1FFE
1FF8
33F0
3000
E000
ENDCHAR
STARTCHAR 023D
ENCODING 573
SWIDTH 514 0
DWIDTH 15 0
BBX 15 21 0 0
BITMAP
1C00
1C00
1C00
1C00
1C00
1C00
1C00
1C00
1C00
FF80
FF80
FF80
1C00
1C00
1C00
1C00
1C00
1C00
1FFE
1FFE
1FFE
ENDCHAR
STARTCHAR 023E
ENCODING 574
SWIDTH 617 0
DWIDTH 18 0
BBX 20 22 -1 -1
BITMAP
3FFFF0
3FFFE0
3FFFC0
3FFFC0
00F380
00F700
00FE00
00FE00
00FC00
00F800
00F000
00F000
00F000
01F000
03F000
07F000
07F000
0EF000
1CF000
38F000
38F000
F00000
ENDCHAR
STARTCHAR 023F
ENCODING 575
SWIDTH 445 0
DWIDTH 13 0
BBX 12 20 1 -5
BITMAP
1F00
7FC0
7FE0
F0C0
F000
F000
7E00
7F80
1FC0
03E0
01E0
01E0
F3C0
FFC0
7F00
1E00
0F00
07E0
03F0
01F0
ENDCHAR
STARTCHAR 0240
ENCODING 576
SWIDTH 445 0
DWIDTH 13 0
BBX 14 20 1 -5
BITMAP
FFE0
FFE0
FFE0
01E0
03C0
0780
0700
0F00
1E00
3C00
3800
7800
F800
FE00
FF00
0F80
03C0
01FC
00FC
007C
ENDCHAR
STARTCHAR 0241
ENCODING 577
SWIDTH 480 0
DWIDTH 14 0
BBX 13 21 0 0
BITMAP
1F80
7FE0
FFF0
E0F0
0078
0078
0038
0038
0078
0078
00F0
01F0
0FE0
0F80
0F00
0F00
0F00
0F00
0F00
0F00
0F00
ENDCHAR
STARTCHAR 0242
ENCODING 578
SWIDTH 480 0
DWIDTH 14 0
BBX 13 15 0 0
BITMAP
1F80
7FE0
FFF0
70F0
0078
0078
0078
0070
00F0
03E0
0FC0
0F80
0F00
0F00
0F00
ENDCHAR
STARTCHAR 0243
ENCODING 579
SWIDTH 651 0
DWIDTH 19 0
BBX 18 21 0 0
BITMAP
1FFC00
1FFF00
1FFF80
1C0F80
1C0780
1C03C0
1C0380
1C0780
1C0F00
1FFE00
1FFE00
1FFF80
1C07C0
FF83C0
FF83C0
FF83C0
1C03C0
1C07C0
1FFF80
1FFF00
1FFC00
ENDCHAR
STARTCHAR 0244
ENCODING 580
SWIDTH 754 0
DWIDTH 22 0
BBX 22 21 0 0
BITMAP
3C00F0
3C00F0
3C00F0
3C00F0
3C00F0
3C00F0
3C00F0
3C00F0
3C00F0
FFFFFC
FFFFFC
FFFFFC
3C00F0
3C00F0
3C00F0
1E01E0
1E01E0
0F87C0
0FFFC0
03FF00
00FC00
ENDCHAR
STARTCHAR 0245
ENCODING 581
SWIDTH 685 0
DWIDTH 20 0
BBX 20 21 0 0
BITMAP
00F000
00F000
01F800
01F800
03FC00
03FC00
03BC00
079E00
079E00
0F1F00
0F0F00
0E0F00
1E0780
1E0780
3C07C0
3C03C0
3803C0
7801E0
7801E0
F001F0
F000F0
ENDCHAR
STARTCHAR 0246
ENCODING 582
SWIDTH 582 0
DWIDTH 17 0
BBX 20 22 -1 -1
BITMAP
1FFFF0
1FFFE0
1FFFC0
1E0380
1E0700
1E0F00
1E0E00
1E1C00
1E3800
1FFE00
1FFE00
1FFE00
1FC000
1FC000
1F8000
1F0000
1E0000
1E0000
1FFF80
3FFF80
7FFF80
F00000
ENDCHAR
STARTCHAR 0247
ENCODING 583
SWIDTH 548 0
DWIDTH 16 0
BBX 15 20 0 -2
BITMAP
0006
000E
000C
07F8
0FF8
1FF8
3C3C
787C
78DC
7FFE
7FFE
7B00
7E00
3E00
3C1C
1FFC
1FF8
33E0
7000
E000
ENDCHAR
STARTCHAR 0248
ENCODING 584
SWIDTH 445 0
DWIDTH 13 0
BBX 13 21 0 0
BITMAP
03C0
03C0
03C0
03C0
03C0
03C0
03C0
03C0
03C0
0FF8
0FF8
0FF8
03C0
03C0
03C0
03C0
03C0
07C0
7F80
FF00
FC00
ENDCHAR
STARTCHAR 0249
ENCODING 585
SWIDTH 274 0
DWIDTH 8 0
BBX 9 26 -1 -5
BITMAP
0C00
1E00
1E00
1E00
0C00
0000
1E00
1E00
1E00
1E00
1E00
1E00
7F80
7F80
7F80
1E00
1E00
1E00
1E00
1E00
1E00
1E00
1E00
FE00
FC00
F800
ENDCHAR
STARTCHAR 024A
ENCODING 586
SWIDTH 754 0
DWIDTH 22 0
BBX 24 26 1 -5
BITMAP
01F9E0
07FFE0
1FFFE0
3F07E0
3C03E0
7C01E0
7801E0
7801E0
F001E0
F001E0
F001E0
F001E0
F001E0
F001E0
7801E0
7801E0
7C03E0
3E0FE0
1FFFE0
0FFDE0
03F1E0
0001E0
0001F0
0000FE
00007E
00003F
ENDCHAR
STARTCHAR 024B
ENCODING 587
SWIDTH 548 0
DWIDTH 16 0
BBX 17 20 1 -5
BITMAP
0F9C00
3FFC00
7FFC00
787C00
F03C00
F03C00
F03C00
F03C00
F03C00
F03C00
F03C00
787C00
7FFC00
3FBC00
1F3C00
003C00
003C00
001F80
001F80
000F80
ENDCHAR
STARTCHAR 024C
ENCODING 588
SWIDTH 651 0
DWIDTH 19 0
BBX 19 21 0 0
BITMAP
3FF800
3FFE00
3FFF00
3C1F00
3C0780
3C0780
3C0780
3C0780
3C0F80
3C1F00
FFFE00
FFFC00
FFF800
3C7C00
3C3C00
3C1E00
3C1F00
3C0F00
3C0780
3C07C0
3C03E0
ENDCHAR
STARTCHAR 024D
ENCODING 589
SWIDTH 377 0
DWIDTH 11 0
BBX 11 15 0 0
BITMAP
39E0
3BE0
3FE0
3E00
3C00
3C00
3C00
FF00
FF00
FF00
3C00
3C00
3C00
3C00
3C00
ENDCHAR
STARTCHAR 024E
ENCODING 590
SWIDTH 720 0
DWIDTH 21 0
BBX 21 21 0 0
BITMAP
7801F0
3C01E0
3C03E0
1E03C0
FFFFF8
FFFFF8
FFFFF8
078F00
078E00
03DE00
01DC00
01FC00
00F800
00F800
00F000
00F000
00F000
00F000
00F000
00F000
00F000
ENDCHAR
STARTCHAR 024F
ENCODING 591
SWIDTH 582 0
DWIDTH 17 0
BBX 17 20 0 -5
BITMAP
780F00
380F00
3C0E00
3C1E00
FFFF80
FFFF80
0E3C00
0F3800
077800
07F000
03F000
03E000
03E000
01E000
01C000
03C000
038000
078000
070000
0F0000
ENDCHAR
STARTCHAR 0250
ENCODING 592
SWIDTH 514 0
DWIDTH 15 0
BBX 12 15 2 0
BITMAP
C7C0
FFE0
F8F0
E070
E0F0
E1E0
FFC0
FF00
E000
E000
E000
F0E0
FFE0
7FC0
1F00
ENDCHAR
STARTCHAR 0251
ENCODING 593
SWIDTH 548 0
DWIDTH 16 0
BBX 14 15 1 0
BITMAP
0F9C
3FFC
7FFC
787C
F03C
F03C
F03C
F03C
F03C
F03C
F03C
787C
7FFC
3FBC
1F1C
ENDCHAR
STARTCHAR 0252
ENCODING 594
SWIDTH 548 0
DWIDTH 16 0
BBX 13 15 2 0
BITMAP
EF80
FFE0
FFF0
F0F8
E078
E078
E038
E038
E038
E038
E078
F8F8
FFF0
EFF0
E3C0
ENDCHAR
STARTCHAR 0253
ENCODING 595
SWIDTH 548 0
DWIDTH 16 0
BBX 13 21 2 0
BITMAP
1F00
7F00
FE00
F000
E000
E000
E3C0
EFF0
FFF0
F8F8
F078
E038
E038
E038
E038
E078
E078
F0F8
FFF0
EFE0
E780
ENDCHAR
STARTCHAR 0254
ENCODING 596
SWIDTH 480 0
DWIDTH 14 0
BBX 12 15 1 0
BITMAP
3F00
7FC0
FFE0
E1E0
00F0
00F0
00F0
00F0
00F0
00F0
00F0
61E0
FFE0
7FC0
3F00
ENDCHAR
STARTCHAR 0255
ENCODING 597
SWIDTH 514 0
DWIDTH 15 0
BBX 13 18 1 -3
BITMAP
0FC0
3FE0
7FF0
7820
F000
F000
F000
F1E0
F3F0
F3F8
7738
7F38
3FF0
1FF0
0FC0
0E00
0C00
0C00
ENDCHAR
STARTCHAR 0256
ENCODING 598
SWIDTH 548 0
DWIDTH 16 0
BBX 17 26 1 -5
BITMAP
003C00
003C00
003C00
003C00
003C00
003C00
0FBC00
3FFC00
7FFC00
787C00
F03C00
F03C00
F03C00
F03C00
F03C00
F03C00
F03C00
787C00
7FFC00
3FBC00
1F3C00
003C00
003C00
001F80
001F80
000F80
ENDCHAR
STARTCHAR 0257
ENCODING 599
SWIDTH 548 0
DWIDTH 16 0
BBX 18 21 1 0
BITMAP
0007C0
000FC0
001FC0
003C00
003C00
003C00
0FBC00
3FFC00
7FFC00
787C00
F03C00
F03C00
F03C00
F03C00
F03C00
F03C00
F03C00
787C00
7FFC00
3FBC00
1F1C00
ENDCHAR
STARTCHAR 0258
ENCODING 600
SWIDTH 514 0
DWIDTH 15 0
BBX 14 15 1 0
BITMAP
0F80
3FE0
7FF0
F0F8
E078
E038
FFFC
FFFC
0038
0038
0078
70F8
FFF0
7FE0
1F80
ENDCHAR
STARTCHAR 0259
ENCODING 601
SWIDTH 514 0
DWIDTH 15 0
BBX 14 15 1 0
BITMAP
1F80
7FE0
FFF0
70F0
0078
0038
0038
FFFC
FFFC
E038
E078
F0F8
7FF0
3FE0
0F80
ENDCHAR
STARTCHAR 025A
ENCODING 602
SWIDTH 720 0
DWIDTH 21 0
BBX 20 15 1 0
BITMAP
1F8000
7FE000
FFF000
70F100
007F80
007F80
03FB80
1FF9F0
FE38F0
F03800
E07800
F0F800
7FF000
3FE000
0F8000
ENDCHAR
STARTCHAR 025B
ENCODING 603
SWIDTH 445 0
DWIDTH 13 0
BBX 12 15 1 0
BITMAP
1F80
7FE0
7FE0
F040
F000
7000
7F00
3F00
7F00
F000
F000
F060
FFF0
7FE0
1F80
ENDCHAR
STARTCHAR 025C
ENCODING 604
SWIDTH 445 0
DWIDTH 13 0
BBX 11 15 1 0
BITMAP
3F00
FFC0
FFC0
61E0
01E0
01C0
1FC0
1F80
1FC0
01E0
00E0
E1E0
FFE0
7FC0
3F00
ENDCHAR
STARTCHAR 025D
ENCODING 605
SWIDTH 617 0
DWIDTH 18 0
BBX 17 15 1 0
BITMAP
3F0000
FFC000
FFC000
41E400
01FC00
01FC00
1FDC00
1F8F80
1FC780
01E000
00E000
E1E000
FFE000
7FC000
3F0000
ENDCHAR
STARTCHAR 025E
ENCODING 606
SWIDTH 582 0
DWIDTH 17 0
BBX 15 15 1 0
BITMAP
07E0
1FF8
3FFC
7C3C
F01C
F01C
F3F8
F3F8
F3FC
F01C
F01E
7C1E
3FFC
1FF8
07F0
ENDCHAR
STARTCHAR 025F
ENCODING 607
SWIDTH 308 0
DWIDTH 9 0
BBX 8 20 0 -5
BITMAP
1C
1C
1C
1C
1C
1C
7F
7F
7F
1C
1C
1C
1C
1C
1C
1C
3C
FC
F8
F0
ENDCHAR
STARTCHAR 0260
ENCODING 608
SWIDTH 548 0
DWIDTH 16 0
BBX 17 26 1 -5
BITMAP
000F80
001F80
001F80
003C00
003C00
003C00
0FBC00
3FFC00
7FFC00
787C00
F03C00
F03C00
F03C00
F03C00
F03C00
F03C00
F03C00
787C00
7FFC00
3FFC00
1F3C00
003800
30F800
7FF000
3FE000
1FC000
ENDCHAR
STARTCHAR 0261
ENCODING 609
SWIDTH 548 0
DWIDTH 16 0
BBX 14 20 1 -5
BITMAP
0F9C
3FFC
7FFC
787C
F03C
F03C
F03C
F03C
F03C
F03C
F03C
787C
7FFC
3FFC
1F3C
0038
3078
7FF0
3FE0
1FC0
ENDCHAR
STARTCHAR 0262
ENCODING 610
SWIDTH 514 0
DWIDTH 15 0
BBX 13 15 1 0
BITMAP
07E0
1FF8
3FF8
7C30
F000
F000
F000
E0F8
F0F8
F0F8
7038
7C38
3FF8
1FF8
07E0
ENDCHAR
STARTCHAR 0263
ENCODING 611
SWIDTH 480 0
DWIDTH 14 0
BBX 15 20 0 -5
BITMAP
F01E
F03C
783C
7878
3C70
1CF0
1EE0
0FE0
0FC0
07C0
0780
07C0
0FC0
0FE0
1EE0
1CE0
1CE0
0FE0
0FC0
0780
ENDCHAR
STARTCHAR 0264
ENCODING 612
SWIDTH 514 0
DWIDTH 15 0
BBX 15 15 0 0
BITMAP
F01E
F83E
7C7C
1EF0
0EE0
0FE0
07C0
07C0
0FE0
0EE0
0EE0
0EE0
0FE0
0FE0
07C0
ENDCHAR
STARTCHAR 0265
ENCODING 613
SWIDTH 548 0
DWIDTH 16 0
BBX 13 20 2 -5
BITMAP
E078
E078
E078
E078
E078
E078
E078
E078
E078
E078
E078
F0F8
FFF8
7FF8
3E78
0078
0078
0078
0078
0078
ENDCHAR
STARTCHAR 0266
ENCODING 614
SWIDTH 548 0
DWIDTH 16 0
BBX 13 21 2 0
BITMAP
1F00
7F00
FE00
F000
E000
E000
E7C0
EFE0
FFF0
F8F0
E078
E078
E078
E078
E078
E078
E078
E078
E078
E078
E078
ENDCHAR
STARTCHAR 0267
ENCODING 615
SWIDTH 548 0
DWIDTH 16 0
BBX 13 26 2 -5
BITMAP
1F00
7F00
FE00
F000
E000
E000
E7C0
EFE0
FFF0
F8F0
E078
E078
E078
E078
E078
E078
E078
E078
E078
E078
E078
0078
0078
03F0
03F0
07C0
ENDCHAR
STARTCHAR 0268
ENCODING 616
SWIDTH 308 0
DWIDTH 9 0
BBX 7 21 1 0
BITMAP
38
7C
7C
3C
38
00
38
38
38
38
38
38
38
FE
FE
FE
38
38
38
38
38
ENDCHAR
STARTCHAR 0269
ENCODING 617
SWIDTH 274 0
DWIDTH 8 0
BBX 6 15 2 0
BITMAP
E0
E0
E0
E0
E0
E0
E0
E0
E0
E0
E0
E0
FC
FC
3C
ENDCHAR
STARTCHAR 026A
ENCODING 618
SWIDTH 240 0
DWIDTH 7 0
BBX 3 15 2 0
BITMAP
E0
E0
E0
E0
E0
E0
E0
E0
E0
E0
E0
E0
E0
E0
E0
ENDCHAR
STARTCHAR 026B
ENCODING 619
SWIDTH 411 0
DWIDTH 12 0
BBX 12 21 0 0
BITMAP
0F00
0F00
0F00
0F00
0F00
0F00
0F00
3F70
7FE0
FFE0
EFC0
0F00
0F00
0F00
0F00
0F00
0F00
0F00
0F00
0F00
0F00
ENDCHAR
STARTCHAR 026C
ENCODING 620
SWIDTH 411 0
DWIDTH 12 0
BBX 11 21 0 0
BITMAP
0780
0780
0780
0780
0780
0780
3F80
7F80
E780
E780
FFE0
7FE0
3FE0
0780
0780
0780
0780
0780
0780
0780
0780
ENDCHAR
STARTCHAR 026D
ENCODING 621
SWIDTH 240 0
DWIDTH 7 0
BBX 8 26 2 -5
BITMAP
E0
E0
E0
E0
E0
E0
E0
E0
E0
E0
E0
E0
E0
E0
E0
E0
E0
E0
E0
E0
E0
E0
F0
FE
7F
1F
ENDCHAR
STARTCHAR 026E
ENCODING 622
SWIDTH 617 0
DWIDTH 18 0
BBX 15 26 2 -5
BITMAP
E000
E000
E000
E000
E000
E000
FFFC
FFFC
FFFC
E038
E078
E0F0
E1E0
E1C0
E3F0
E3FC
E07C
E01E
E01E
E00E
E01E
001E
183C
3FFC
1FF8
07E0
ENDCHAR
STARTCHAR 026F
ENCODING 623
SWIDTH 822 0
DWIDTH 24 0
BBX 21 15 2 0
BITMAP
E0F078
E0F078
E0F078
E0F078
E0F078
E0F078
E0F078
E0F078
E0F078
E0F078
E0F078
F1F8F8
FFBFF8
7FBFF8
3E1E38
ENDCHAR
STARTCHAR 0270
ENCODING 624
SWIDTH 822 0
DWIDTH 24 0
BBX 21 20 2 -5
BITMAP
E0F078
E0F078
E0F078
E0F078
E0F078
E0F078
E0F078
E0F078
E0F078
E0F078
E0F078
F1F8F8
FFBFF8
7FBF78
3E1E78
000078
000078
000078
000078
000078
ENDCHAR
STARTCHAR 0271
ENCODING 625
SWIDTH 822 0
DWIDTH 24 0
BBX 21 20 2 -5
BITMAP
E787C0
FFCFE0
FFFFF0
F0F8F0
E0F078
E0F078
E0F078
E0F078
E0F078
E0F078
E0F078
E0F078
E0F078
E0F078
E0F078
000078
000078
0003F0
0003F0
0007C0
ENDCHAR
STARTCHAR 0272
ENCODING 626
SWIDTH 548 0
DWIDTH 16 0
BBX 17 20 -2 -5
BITMAP
0E7C00
0FFE00
0FFF00
0F8F00
0E0780
0E0780
0E0780
0E0780
0E0780
0E0780
0E0780
0E0780
0E0780
0E0780
0E0780
0E0000
1E0000
FE0000
FC0000
F80000
ENDCHAR
STARTCHAR 0273
ENCODING 627
SWIDTH 548 0
DWIDTH 16 0
BBX 16 20 2 -5
BITMAP
E7C0
EFE0
FFF0
F8F0
E078
E078
E078
E078
E078
E078
E078
E078
E078
E078
E078
0078
0078
003F
003F
001F
ENDCHAR
STARTCHAR 0274
ENCODING 628
SWIDTH 582 0
DWIDTH 17 0
BBX 13 15 2 0
BITMAP
E038
F038
F038
F838
FC38
FE38
FF38
EF38
E7B8
E3F8
E1F8
E1F8
E0F8
E078
E038
ENDCHAR
STARTCHAR 0275
ENCODING 629
SWIDTH 582 0
DWIDTH 17 0
BBX 15 15 1 0
BITMAP
0FC0
1FF0
3FF8
787C
F03C
F01C
FFFE
FFFE
F01E
F01C
F03C
787C
3FF8
1FF0
0FC0
ENDCHAR
STARTCHAR 0276
ENCODING 630
SWIDTH 788 0
DWIDTH 23 0
BBX 21 15 1 0
BITMAP
0F9FF8
1FFFF8
3FFFF8
787C00
F03C00
F01C00
F01FE0
E01FE0
F01FE0
F01C00
F03C00
787C00
3FFFF8
1FFFF8
0F9FF8
ENDCHAR
STARTCHAR 0277
ENCODING 631
SWIDTH 788 0
DWIDTH 23 0
BBX 21 15 1 0
BITMAP
03FC00
0FFF80
3FFFC0
7E03E0
7800F0
F00070
F07078
F07078
F07078
F0F078
F0F078
78F8F0
7FFFF0
3FDFE0
0F0780
ENDCHAR
STARTCHAR 0278
ENCODING 632
SWIDTH 754 0
DWIDTH 22 0
BBX 20 20 1 -5
BITMAP
0C1F00
1C7FC0
3C7FE0
7871F0
70F0F0
F0F070
F0F070
F0F070
F0F070
F0F0F0
78F0F0
7CF3E0
3FFFC0
1FFF80
07FE00
00F000
00F000
00F000
00F000
00F000
ENDCHAR
STARTCHAR 0279
ENCODING 633
SWIDTH 377 0
DWIDTH 11 0
BBX 9 15 0 0
BITMAP
0780
0780
0780
0780
0780
0780
0780
0780
0780
0780
0780
0F80
FF80
FB80
F380
ENDCHAR
STARTCHAR 027A
ENCODING 634
SWIDTH 377 0
DWIDTH 11 0
BBX 9 21 0 0
BITMAP
0780
0780
0780
0780
0780
0780
0780
0780
0780
0780
0780
0780
0780
0780
0780
0780
0780
0F80
FF80
FB80
F380
ENDCHAR
STARTCHAR 027B
ENCODING 635
SWIDTH 377 0
DWIDTH 11 0
BBX 13 20 0 -5
BITMAP
0780
0780
0780
0780
0780
0780
0780
0780
0780
0780
0780
0F80
FF80
FF80
F780
0780
0380
03F0
03F8
00F0
ENDCHAR
STARTCHAR 027C
ENCODING 636
SWIDTH 377 0
DWIDTH 11 0
BBX 9 20 2 -5
BITMAP
E780
EF80
FF80
F800
F000
E000
E000
E000
E000
E000
E000
E000
E000
E000
E000
E000
E000
E000
E000
E000
ENDCHAR
STARTCHAR 027D
ENCODING 637
SWIDTH 377 0
DWIDTH 11 0
BBX 9 20 2 -5
BITMAP
E780
EF80
FF80
F800
F000
E000
E000
E000
E000
E000
E000
E000
E000
E000
E000
E000
F000
FE00
7E00
3E00
ENDCHAR
STARTCHAR 027E
ENCODING 638
SWIDTH 342 0
DWIDTH 10 0
BBX 8 15 3 0
BITMAP
3F
7E
FE
F0
E0
E0
E0
E0
E0
E0
E0
E0
E0
E0
E0
ENDCHAR
STARTCHAR 027F
ENCODING 639
SWIDTH 342 0
DWIDTH 10 0
BBX 8 15 0 0
BITMAP
F8
FE
FE
0F
0F
0F
0F
0F
0F
0F
0F
0F
0F
0F
0F
ENDCHAR
STARTCHAR 0280
ENCODING 640
SWIDTH 480 0
DWIDTH 14 0
BBX 12 15 2 0
BITMAP
FF00
FF80
FFC0
E1C0
E1E0
E1E0
E3C0
FFC0
FF80
FF00
E780
E3C0
E3C0
E1E0
E0F0
ENDCHAR
STARTCHAR 0281
ENCODING 641
SWIDTH 480 0
DWIDTH 14 0
BBX 12 15 2 0
BITMAP
E0F0
E1E0
E3C0
E3C0
E780
FF00
FF80
FFC0
E3C0
E1C0
E1E0
E1C0
FFC0
FF80
FF00
ENDCHAR
STARTCHAR 0282
ENCODING 642
SWIDTH 445 0
DWIDTH 13 0
BBX 11 20 1 -5
BITMAP
1F00
7FC0
7FE0
F0C0
F000
F000
7E00
3F80
07C0
01E0
00E0
61E0
FFC0
FFC0
FF00
E000
E000
FC00
7C00
3E00
ENDCHAR
STARTCHAR 0283
ENCODING 643
SWIDTH 240 0
DWIDTH 7 0
BBX 13 26 -3 -5
BITMAP
00F8
03F8
07F0
0780
0700
0700
0700
0700
0700
0700
0700
0700
0700
0700
0700
0700
0700
0700
0700
0700
0700
0700
0F00
7F00
FE00
FC00
ENDCHAR
STARTCHAR 0284
ENCODING 644
SWIDTH 308 0
DWIDTH 9 0
BBX 13 26 -2 -5
BITMAP
00F8
03F8
07F0
0780
0700
0700
0700
0700
0700
0700
0700
0700
1FC0
1FC0
1FC0
0700
0700
0700
0700
0700
0700
0700
0F00
7F00
FE00
F800
ENDCHAR
STARTCHAR 0285
ENCODING 645
SWIDTH 240 0
DWIDTH 7 0
BBX 13 26 -3 -5
BITMAP
7C00
FE00
7F00
0F00
0700
0700
0700
0700
0700
0700
0700
0700
0700
0700
0700
0700
0700
0700
0700
0700
0700
0700
0780
07F0
03F8
00F8
ENDCHAR
STARTCHAR 0286
ENCODING 646
SWIDTH 308 0
DWIDTH 9 0
BBX 14 26 -2 -5
BITMAP
00F8
01FC
03F8
03C0
0380
0380
0380
0380
0380
0380
0380
0380
0380
0380
0380
0380
0380
0380
0380
0380
7B80
FF80
E780
E780
FFC0
3D80
ENDCHAR
STARTCHAR 0287
ENCODING 647
SWIDTH 377 0
DWIDTH 11 0
BBX 10 20 0 0
BITMAP
3C00
FE00
7F00
4F00
0F00
0F00
0F00
0F00
0F00
0F00
0F00
0F00
0F00
FFC0
FFC0
FFC0
0F00
0F00
0E00
0E00
ENDCHAR
STARTCHAR 0288
ENCODING 648
SWIDTH 377 0
DWIDTH 11 0
BBX 9 25 1 -5
BITMAP
0800
1800
3800
3800
3800
FF80
FF80
FF80
3800
3800
3800
3800
3800
3800
3800
3800
3800
3800
3800
3800
3800
3C00
3F80
1F80
0F80
ENDCHAR
STARTCHAR 0289
ENCODING 649
SWIDTH 617 0
DWIDTH 18 0
BBX 16 15 1 0
BITMAP
781C
781C
781C
781C
781C
781C
FFFF
FFFF
FFFF
781C
781C
7C3C
3FFC
3FDC
0F9C
ENDCHAR
STARTCHAR 028A
ENCODING 650
SWIDTH 582 0
DWIDTH 17 0
BBX 15 15 1 0
BITMAP
FE7E
FE7E
FE7E
1E78
3C3C
781C
701E
F00E
F00E
F00E
701E
783C
3FFC
1FF0
07E0
ENDCHAR
STARTCHAR 028B
ENCODING 651
SWIDTH 548 0
DWIDTH 16 0
BBX 14 15 1 0
BITMAP
F3E0
71F8
71F8
703C
703C
703C
703C
703C
703C
7038
7078
78F0
7FF0
3FC0
0F80
ENDCHAR
STARTCHAR 028C
ENCODING 652
SWIDTH 514 0
DWIDTH 15 0
BBX 15 15 0 0
BITMAP
0380
07C0
07C0
07E0
0EE0
0EE0
1EF0
1E70
1C78
3C78
3838
783C
783C
701E
F01E
ENDCHAR
STARTCHAR 028D
ENCODING 653
SWIDTH 788 0
DWIDTH 23 0
BBX 23 15 0 0
BITMAP
0701C0
0F83E0
0F83E0
0F83E0
0FC370
1DC770
1DC770
1CE678
3CEE38
38EE38
387E3C
787C3C
707C1C
707C1E
F0381E
ENDCHAR
STARTCHAR 028E
ENCODING 654
SWIDTH 514 0
DWIDTH 15 0
BBX 15 20 0 0
BITMAP
00F0
00E0
01E0
01C0
01C0
0380
0380
07C0
07C0
0FE0
0EE0
0EF0
1CF0
1C70
3C78
3838
783C
783C
701E
F01E
ENDCHAR
STARTCHAR 028F
ENCODING 655
SWIDTH 480 0
DWIDTH 14 0
BBX 14 15 0 0
BITMAP
F03C
7838
3878
3C70
1CF0
1EE0
0FE0
0FC0
0780
0780
0780
0780
0780
0780
0780
ENDCHAR
STARTCHAR 0290
ENCODING 656
SWIDTH 445 0
DWIDTH 13 0
BBX 15 20 1 -5
BITMAP
FFE0
FFE0
FFE0
01C0
03C0
0780
0700
0E00
1E00
3C00
3800
7000
FFE0
FFE0
FFE0
00E0
00E0
00FC
007E
003C
ENDCHAR
STARTCHAR 0291
ENCODING 657
SWIDTH 582 0
DWIDTH 17 0
BBX 16 18 1 -3
BITMAP
FFE0
FFE0
FFE0
01C0
03C0
0780
0700
0E3C
1E7E
3CFE
38E7
70C7
FFFE
FFFE
FFF8
0180
0180
0180
ENDCHAR
STARTCHAR 0292
ENCODING 658
SWIDTH 445 0
DWIDTH 13 0
BBX 13 20 -1 -5
BITMAP
7FF0
7FF0
7FF0
00E0
01C0
03C0
0780
0F00
1FC0
1FF0
00F0
0078
0078
0038
0078
0078
70F0
FFF0
7FE0
1F80
ENDCHAR
STARTCHAR 0293
ENCODING 659
SWIDTH 445 0
DWIDTH 13 0
BBX 12 20 0 -5
BITMAP
7FF0
7FF0
7FE0
01C0
03C0
0780
0F00
1E00
1FC0
3FE0
01F0
00F0
0070
3C70
7F70
7FF0
E1E0
7FE0
7FF0
1F20
ENDCHAR
STARTCHAR 0294
ENCODING 660
SWIDTH 377 0
DWIDTH 11 0
BBX 13 21 -3 0
BITMAP
1F80
7FE0
FFF0
E0F0
0078
0078
0038
0038
0078
0078
00F0
01F0
0FE0
0F80
0F00
0F00
0F00
0F00
0F00
0F00
0F00
ENDCHAR
STARTCHAR 0295
ENCODING 661
SWIDTH 377 0
DWIDTH 11 0
BBX 13 21 1 0
BITMAP
0FC0
3FF0
7FF8
F870
F000
E000
E000
E000
E000
F000
F000
7800
3F80
1F80
0780
0780
0780
0780
0780
0780
0780
ENDCHAR
STARTCHAR 0296
ENCODING 662
SWIDTH 480 0
DWIDTH 14 0
BBX 13 21 0 0
BITMAP
0F00
0F00
0F00
0F00
0F00
0F00
0F00
0F80
0FE0
01F0
0070
0078
0038
0038
0038
0038
0078
60F8
FFF0
7FE0
1F80
ENDCHAR
STARTCHAR 0297
ENCODING 663
SWIDTH 480 0
DWIDTH 14 0
BBX 13 20 1 -5
BITMAP
07C0
1FF0
3FF8
3C30
7800
7800
7000
F000
F000
F000
F000
F000
F000
7000
7800
7800
3C30
3FF8
1FF0
07C0
ENDCHAR
STARTCHAR 0298
ENCODING 664
SWIDTH 754 0
DWIDTH 22 0
BBX 19 21 1 0
BITMAP
01F800
07FE00
1FFF00
3E0F80
3C03C0
7801C0
7001E0
F001E0
F0E0E0
F0F0E0
F0F0E0
F0E0E0
F000E0
F001E0
7001E0
7801C0
3C03C0
3E0F80
1FFF00
0FFE00
01F800
ENDCHAR
STARTCHAR 0299
ENCODING 665
SWIDTH 514 0
DWIDTH 15 0
BBX 12 15 2 0
BITMAP
FF80
FFC0
FFE0
E1E0
E0E0
E1C0
FF80
FFC0
E0E0
E0E0
E0F0
E0E0
FFE0
FFC0
FF80
ENDCHAR
STARTCHAR 029A
ENCODING 666
SWIDTH 582 0
DWIDTH 17 0
BBX 15 15 1 0
BITMAP
1FC0
7FF0
7FF8
F07C
F03C
701C
7F1E
3F1E
7F1E
F01C
E03C
F07C
FFF8
7FF0
1FC0
ENDCHAR
STARTCHAR 029B
ENCODING 667
SWIDTH 548 0
DWIDTH 16 0
BBX 17 19 1 0
BITMAP
000F80
001F00
001F00
003C00
07F800
1FF800
3FF800
7C3000
F00000
F00000
F00000
E0F800
F0F800
F0F800
703800
7C3800
3FF800
1FF800
07E000
ENDCHAR
STARTCHAR 029C
ENCODING 668
SWIDTH 582 0
DWIDTH 17 0
BBX 13 15 2 0
BITMAP
E078
E078
E078
E078
E078
E078
FFF8
FFF8
FFF8
E078
E078
E078
E078
E078
E078
ENDCHAR
STARTCHAR 029D
ENCODING 669
SWIDTH 308 0
DWIDTH 9 0
BBX 10 26 -2 -5
BITMAP
0380
0780
07C0
0780
0380
0000
0380
0380
0380
0380
0380
0380
0380
0380
0380
0380
0380
0380
0380
0380
7B80
7F80
E780
E780
7FC0
3D80
ENDCHAR
STARTCHAR 029E
ENCODING 670
SWIDTH 514 0
DWIDTH 15 0
BBX 14 20 0 -5
BITMAP
F03C
783C
3C3C
3C3C
1E3C
0F3C
0F3C
07FC
07FC
07FC
0F3C
1E3C
3E3C
3C3C
F83C
003C
003C
003C
003C
003C
ENDCHAR
STARTCHAR 029F
ENCODING 671
SWIDTH 377 0
DWIDTH 11 0
BBX 9 15 2 0
BITMAP
E000
E000
E000
E000
E000
E000
E000
E000
E000
E000
E000
E000
FF80
FF80
FF80
ENDCHAR
STARTCHAR 02A0
ENCODING 672
SWIDTH 548 0
DWIDTH 16 0
BBX 18 26 1 -5
BITMAP
0007C0
000FC0
001FC0
003C00
003C00
003C00
0FBC00
3FFC00
7FFC00
787C00
F03C00
F03C00
F03C00
F03C00
F03C00
F03C00
F03C00
787C00
7FFC00
3FBC00
1F3C00
003C00
003C00
003C00
003C00
003C00
ENDCHAR
STARTCHAR 02A1
ENCODING 673
SWIDTH 411 0
DWIDTH 12 0
BBX 14 21 -2 0
BITMAP
1F80
7FE0
FFF0
70F8
0078
0038
0038
003C
0038
0078
0078
01F0
0FE0
0FC0
0F00
0F00
3FC0
3FC0
3FC0
0F00
0F00
ENDCHAR
STARTCHAR 02A2
ENCODING 674
SWIDTH 411 0
DWIDTH 12 0
BBX 14 21 0 0
BITMAP
07E0
1FF8
3FFC
7C38
7800
F000
F000
F000
F000
7000
7800
3C00
1F80
0F80
0380
0380
0FE0
0FE0
0FE0
0380
0380
ENDCHAR
STARTCHAR 02A3
ENCODING 675
SWIDTH 925 0
DWIDTH 27 0
BBX 25 21 1 0
BITMAP
003C0000
003C0000
003C0000
003C0000
003C0000
003C0000
0FBFFF80
3FFFFF80
7FFFFF80
787C0700
F03C0E00
F03C1E00
F03C3C00
F03C7800
F03C7000
F03CF000
F03DE000
787FC000
7FFFFF80
3FBFFF80
1F1FFF80
ENDCHAR
STARTCHAR 02A4
ENCODING 676
SWIDTH 960 0
DWIDTH 28 0
BBX 26 26 1 -5
BITMAP
003C0000
003C0000
003C0000
003C0000
003C0000
003C0000
0FBFFF80
3FFFFF80
7FFFFF80
787C0F00
F03C0E00
F03C1C00
F03C3800
F03C7800
F03CFE00
F03CFF00
F03C0780
787C03C0
7FFC03C0
3FBC03C0
1F1C03C0
000003C0
00030780
0007FF80
0003FE00
0000FC00
ENDCHAR
STARTCHAR 02A5
ENCODING 677
SWIDTH 1062 0
DWIDTH 31 0
BBX 29 24 1 -3
BITMAP
003C0000
003C0000
003C0000
003C0000
003C0000
003C0000
0FBFFF80
3FFFFF80
7FFFFF80
787C0700
F03C0E00
F03C1E00
F03C3C00
F03C78F0
F03C71F8
F03CF3F8
F03DE398
787FC738
7FFFFFF8
3FBFFFF0
1F1FFFE0
00000E00
00000E00
00000600
ENDCHAR
STARTCHAR 02A6
ENCODING 678
SWIDTH 685 0
DWIDTH 20 0
BBX 19 20 0 0
BITMAP
0C0000
1C0000
1C0000
1C0000
1C0000
7FFF80
FFFFE0
FFFFE0
1C7840
1C7000
1C7800
1C7E00
1C3FC0
1C0FE0
1C01E0
1C00E0
1E01E0
1FFFE0
0FFFC0
03FF00
ENDCHAR
STARTCHAR 02A7
ENCODING 679
SWIDTH 548 0
DWIDTH 16 0
BBX 17 26 1 -5
BITMAP
000F80
001F80
183F80
383C00
387800
387800
FFF800
FFF800
FFF800
387800
387800
387800
387800
387800
387800
387800
387800
3CF800
3FF800
3FF800
0F7800
007800
007800
07F000
07F000
07C000
ENDCHAR
STARTCHAR 02A8
ENCODING 680
SWIDTH 754 0
DWIDTH 22 0
BBX 20 23 1 -3
BITMAP
180000
180000
380000
380000
380000
FFFFC0
FFFFE0
FFFFF0
387820
38F000
38F000
38E000
38E1E0
38E3F0
38F7F0
38F730
3CFE70
3FFFF0
3FDFE0
0F0FC0
000C00
000C00
001C00
ENDCHAR
STARTCHAR 02A9
ENCODING 681
SWIDTH 857 0
DWIDTH 25 0
BBX 22 26 1 -5
BITMAP
078000
1F8000
3F8000
3C0000
380000
380000
FFF3F0
FFFFF8
FFFFFC
387C3C
38781C
38781C
38781C
38781C
38781C
38781C
38781C
38781C
38781C
38781C
38781C
00001C
00003C
0001FC
0003F8
0003F0
ENDCHAR
STARTCHAR 02AA
ENCODING 682
SWIDTH 651 0
DWIDTH 19 0
BBX 16 21 2 0
BITMAP
E000
E000
E000
E000
E000
E000
E07C
E1FF
E3FF
E3C2
E380
E3C0
E3F0
E1FE
E07F
E00F
E007
F00F
FFFF
7FFE
1FF8
ENDCHAR
STARTCHAR 02AB
ENCODING 683
SWIDTH 651 0
DWIDTH 19 0
BBX 17 21 2 0
BITMAP
E00000
E00000
E00000
E00000
E00000
E00000
E7FF80
E7FF80
E7FF00
E00E00
E01E00
E03C00
E03800
E07000
E0F000
E1E000
E3C000
F38000
FFFF00
FFFF00
3FFF00
ENDCHAR
STARTCHAR 02AC
ENCODING 684
SWIDTH 548 0
DWIDTH 16 0
BBX 14 21 1 0
BITMAP
C31C
E71C
E798
6798
65B8
7CB0
7CF0
3CF0
38E0
3860
0000
C30C
E71C
E798
6798
65B8
6DB0
7CF0
3CF0
38F0
3860
ENDCHAR
STARTCHAR 02AD
ENCODING 685
SWIDTH 514 0
DWIDTH 15 0
BBX 13 21 1 0
BITMAP
FFF8
FFF8
FFF8
E018
E018
E018
E018
E018
0000
0000
0000
0000
0000
FFF8
FFF8
FFF8
E018
E018
E018
E018
E018
ENDCHAR
STARTCHAR 02AE
ENCODING 686
SWIDTH 548 0
DWIDTH 16 0
BBX 17 26 -2 -5
BITMAP
F80000
FC0000
FE0000
1E0000
0E0000
0E0000
0E0780
0E0780
0E0780
0E0780
0E0780
0E0780
0E0780
0E0780
0E0780
0E0780
0E0780
0F0F80
0FFF80
07FF80
03E780
000780
000780
000780
000780
000780
ENDCHAR
STARTCHAR 02AF
ENCODING 687
SWIDTH 548 0
DWIDTH 16 0
BBX 20 26 -2 -5
BITMAP
F80000
FC0000
FE0000
1E0000
0E0000
0E0000
0E0780
0E0780
0E0780
0E0780
0E0780
0E0780
0E0780
0E0780
0E0780
0E0780
0E0780
0F0F80
0FFF80
07FF80
03E780
000780
000780
0007F0
0003F0
0001F0
ENDCHAR
STARTCHAR 02B0
ENCODING 688
SWIDTH 308 0
DWIDTH 9 0
BBX 7 11 1 13
BITMAP
E0
E0
E0
FC
FE
E6
E6
E6
E6
E6
E6
ENDCHAR
STARTCHAR 02B1
ENCODING 689
SWIDTH 308 0
DWIDTH 9 0
BBX 7 11 1 13
BITMAP
38
78
E0
FC
FE
E6
E6
E6
E6
E6
E6
ENDCHAR
STARTCHAR 02B2
ENCODING 690
SWIDTH 171 0
DWIDTH 5 0
BBX 4 14 0 11
BITMAP
70
70
70
00
70
70
70
70
70
70
70
70
F0
E0
ENDCHAR
STARTCHAR 02B3
ENCODING 691
SWIDTH 205 0
DWIDTH 6 0
BBX 5 8 1 13
BITMAP
D8
F8
F8
E0
E0
E0
E0
E0
ENDCHAR
STARTCHAR 02B4
ENCODING 692
SWIDTH 205 0
DWIDTH 6 0
BBX 5 8 0 13
BITMAP
18
18
18
18
18
F8
F8
D8
ENDCHAR
STARTCHAR 02B5
ENCODING 693
SWIDTH 240 0
DWIDTH 7 0
BBX 6 11 1 10
BITMAP
38
38
38
38
38
F8
F8
F8
38
3C
1C
ENDCHAR
STARTCHAR 02B6
ENCODING 694
SWIDTH 308 0
DWIDTH 9 0
BBX 7 8 1 13
BITMAP
EE
EC
FC
F8
FC
EC
FC
F8
ENDCHAR
STARTCHAR 02B7
ENCODING 695
SWIDTH 445 0
DWIDTH 13 0
BBX 12 7 0 14
BITMAP
E730
6770
6770
7F60
3DE0
3DE0
39C0
ENDCHAR
STARTCHAR 02B8
ENCODING 696
SWIDTH 308 0
DWIDTH 9 0
BBX 9 10 0 11
BITMAP
E380
7700
7600
3600
3E00
1C00
1C00
1800
3800
3000
ENDCHAR
STARTCHAR 02B9
ENCODING 697
SWIDTH 342 0
DWIDTH 10 0
BBX 5 10 3 14
BITMAP
70
78
78
70
70
70
E0
E0
C0
C0
ENDCHAR
STARTCHAR 02BA
ENCODING 698
SWIDTH 548 0
DWIDTH 16 0
BBX 11 9 3 14
BITMAP
79E0
79E0
79C0
71C0
73C0
E380
E380
E300
C700
ENDCHAR
STARTCHAR 02BB
ENCODING 699
SWIDTH 240 0
DWIDTH 7 0
BBX 4 10 2 13
BITMAP
20
70
E0
E0
C0
C0
E0
E0
E0
80
ENDCHAR
STARTCHAR 02BC
ENCODING 700
SWIDTH 240 0
DWIDTH 7 0
BBX 4 9 1 13
BITMAP
60
F0
70
70
70
70
60
E0
40
ENDCHAR
STARTCHAR 02BD
ENCODING 701
SWIDTH 240 0
DWIDTH 7 0
BBX 5 9 1 14
BITMAP
40
70
70
E0
E0
60
70
70
38
ENDCHAR
STARTCHAR 02BE
ENCODING 702
SWIDTH 205 0
DWIDTH 6 0
BBX 4 6 1 16
BITMAP
C0
E0
60
70
E0
C0
ENDCHAR
STARTCHAR 02BF
ENCODING 703
SWIDTH 205 0
DWIDTH 6 0
BBX 4 6 1 16
BITMAP
30
70
C0
C0
70
30
ENDCHAR
STARTCHAR 02C0
ENCODING 704
SWIDTH 274 0
DWIDTH 8 0
BBX 8 11 0 13
BITMAP
3C
FE
46
07
07
0E
1E
18
18
18
18
ENDCHAR
STARTCHAR 02C1
ENCODING 705
SWIDTH 274 0
DWIDTH 8 0
BBX 7 11 1 13
BITMAP
3C
FE
E4
C0
C0
E0
78
38
38
38
38
ENDCHAR
STARTCHAR 02C2
ENCODING 706
SWIDTH 582 0
DWIDTH 17 0
BBX 12 13 2 3
BITMAP
0030
00F0
03E0
0FC0
3F00
FC00
F800
7E00
1F80
07E0
01F0
0070
0010
ENDCHAR
STARTCHAR 02C3
ENCODING 707
SWIDTH 582 0
DWIDTH 17 0
BBX 12 13 3 3
BITMAP
C000
F000
FC00
3F00
0FC0
03F0
01F0
07E0
1F80
7E00
F800
E000
8000
ENDCHAR
STARTCHAR 02C4
ENCODING 708
SWIDTH 480 0
DWIDTH 14 0
BBX 12 9 1 12
BITMAP
0600
0F00
0F00
1F80
1D80
39C0
38C0
70E0
F070
ENDCHAR
STARTCHAR 02C5
ENCODING 709
SWIDTH 480 0
DWIDTH 14 0
BBX 12 9 1 12
BITMAP
E070
70E0
30E0
39C0
19C0
1F80
0F80
0F00
0700
ENDCHAR
STARTCHAR 02C6
ENCODING 710
SWIDTH 411 0
DWIDTH 12 0
BBX 10 4 1 17
BITMAP
1E00
3F00
7780
E3C0
ENDCHAR
STARTCHAR 02C7
ENCODING 711
SWIDTH 411 0
DWIDTH 12 0
BBX 10 4 1 17
BITMAP
E3C0
7780
3F00
1E00
ENDCHAR
STARTCHAR 02C8
ENCODING 712
SWIDTH 240 0
DWIDTH 7 0
BBX 3 6 2 17
BITMAP
E0
E0
E0
E0
E0
E0
ENDCHAR
STARTCHAR 02C9
ENCODING 713
SWIDTH 411 0
DWIDTH 12 0
BBX 9 3 1 17
BITMAP
FF80
FF80
FF80
ENDCHAR
STARTCHAR 02CA
ENCODING 714
SWIDTH 411 0
DWIDTH 12 0
BBX 7 4 4 17
BITMAP
3E
38
78
F0
ENDCHAR
STARTCHAR 02CB
ENCODING 715
SWIDTH 411 0
DWIDTH 12 0
BBX 7 4 1 17
BITMAP
F8
38
3C
1E
ENDCHAR
STARTCHAR 02CC
ENCODING 716
SWIDTH 240 0
DWIDTH 7 0
BBX 3 6 2 -6
BITMAP
E0
E0
E0
E0
E0
E0
ENDCHAR
STARTCHAR 02CD
ENCODING 717
SWIDTH 411 0
DWIDTH 12 0
BBX 9 3 1 -4
BITMAP
FF80
FF80
FF80
ENDCHAR
STARTCHAR 02CE
ENCODING 718
SWIDTH 411 0
DWIDTH 12 0
BBX 7 5 3 -5
BITMAP
E0
78
38
1C
0E
ENDCHAR
STARTCHAR 02CF
ENCODING 719
SWIDTH 411 0
DWIDTH 12 0
BBX 7 5 2 -5
BITMAP
0E
3C
38
78
F0
ENDCHAR
STARTCHAR 02D0
ENCODING 720
SWIDTH 377 0
DWIDTH 11 0
BBX 6 15 2 0
BITMAP
FC
7C
38
38
10
00
00
00
00
00
10
38
38
7C
FC
ENDCHAR
STARTCHAR 02D1
ENCODING 721
SWIDTH 377 0
DWIDTH 11 0
BBX 6 5 2 5
BITMAP
FC
7C
38
38
10
ENDCHAR
STARTCHAR 02D2
ENCODING 722
SWIDTH 205 0
DWIDTH 6 0
BBX 4 6 1 5
BITMAP
C0
E0
60
70
E0
C0
ENDCHAR
STARTCHAR 02D3
ENCODING 723
SWIDTH 205 0
DWIDTH 6 0
BBX 4 6 1 5
BITMAP
30
70
C0
C0
70
30
ENDCHAR
STARTCHAR 02D4
ENCODING 724
SWIDTH 377 0
DWIDTH 11 0
BBX 8 7 2 5
BITMAP
38
38
38
38
FF
FF
FF
ENDCHAR
STARTCHAR 02D5
ENCODING 725
SWIDTH 377 0
DWIDTH 11 0
BBX 8 6 2 5
BITMAP
FF
FF
38
38
38
38
ENDCHAR
STARTCHAR 02D6
ENCODING 726
SWIDTH 377 0
DWIDTH 11 0
BBX 8 6 2 5
BITMAP
38
38
FF
FF
38
38
ENDCHAR
STARTCHAR 02D7
ENCODING 727
SWIDTH 377 0
DWIDTH 11 0
BBX 8 2 2 7
BITMAP
FF
FF
ENDCHAR
STARTCHAR 02D8
ENCODING 728
SWIDTH 411 0
DWIDTH 12 0
BBX 9 4 1 17
BITMAP
E180
6380
7F80
3E00
ENDCHAR
STARTCHAR 02D9
ENCODING 729
SWIDTH 411 0
DWIDTH 12 0
BBX 4 5 4 16
BITMAP
E0
F0
F0
F0
E0
ENDCHAR
STARTCHAR 02DA
ENCODING 730
SWIDTH 411 0
DWIDTH 12 0
BBX 6 6 3 16
BITMAP
78
FC
CC
CC
FC
78
ENDCHAR
STARTCHAR 02DB
ENCODING 731
SWIDTH 411 0
DWIDTH 12 0
BBX 6 5 3 -5
BITMAP
30
60
E0
F8
7C
ENDCHAR
STARTCHAR 02DC
ENCODING 732
SWIDTH 411 0
DWIDTH 12 0
BBX 9 4 1 17
BITMAP
3980
7F80
FF80
C700
ENDCHAR
STARTCHAR 02DD
ENCODING 733
SWIDTH 411 0
DWIDTH 12 0
BBX 11 4 2 17
BITMAP
3DE0
3B80
7700
EE00
ENDCHAR
STARTCHAR 02DE
ENCODING 734
SWIDTH 0 0
DWIDTH 0 0
BBX 8 6 2 6
BITMAP
10
F8
F8
B8
1F
0F
ENDCHAR
STARTCHAR 02DF
ENCODING 735
SWIDTH 377 0
DWIDTH 11 0
BBX 7 7 2 17
BITMAP
44
E6
7E
3C
3C
7E
E6
ENDCHAR
STARTCHAR 02E0
ENCODING 736
SWIDTH 308 0
DWIDTH 9 0
BBX 8 10 1 11
BITMAP
C7
66
6C
3C
38
38
3C
6C
3C
38
ENDCHAR
STARTCHAR 02E1
ENCODING 737
SWIDTH 171 0
DWIDTH 5 0
BBX 3 11 1 13
BITMAP
E0
E0
E0
E0
E0
E0
E0
E0
E0
E0
E0
ENDCHAR
STARTCHAR 02E2
ENCODING 738
SWIDTH 240 0
DWIDTH 7 0
BBX 6 8 1 13
BITMAP
78
FC
C0
F0
78
1C
F8
F0
ENDCHAR
STARTCHAR 02E3
ENCODING 739
SWIDTH 308 0
DWIDTH 9 0
BBX 9 8 0 13
BITMAP
7380
7700
3E00
1C00
1E00
3600
7700
E380
ENDCHAR
STARTCHAR 02E4
ENCODING 740
SWIDTH 274 0
DWIDTH 8 0
BBX 7 11 1 13
BITMAP
3C
FE
E4
C0
C0
E0
78
38
38
38
38
ENDCHAR
STARTCHAR 02E5
ENCODING 741
SWIDTH 377 0
DWIDTH 11 0
BBX 7 21 2 0
BITMAP
FE
FE
FE
0E
0E
0E
0E
0E
0E
0E
0E
0E
0E
0E
0E
0E
0E
0E
0E
0E
0E
ENDCHAR
STARTCHAR 02E6
ENCODING 742
SWIDTH 377 0
DWIDTH 11 0
BBX 7 21 2 0
BITMAP
0E
0E
0E
0E
0E
FE
FE
FE
0E
0E
0E
0E
0E
0E
0E
0E
0E
0E
0E
0E
0E
ENDCHAR
STARTCHAR 02E7
ENCODING 743
SWIDTH 377 0
DWIDTH 11 0
BBX 7 21 2 0
BITMAP
0E
0E
0E
0E
0E
0E
0E
0E
0E
FE
FE
FE
0E
0E
0E
0E
0E
0E
0E
0E
0E
ENDCHAR
STARTCHAR 02E8
ENCODING 744
SWIDTH 377 0
DWIDTH 11 0
BBX 7 21 2 0
BITMAP
0E
0E
0E
0E
0E
0E
0E
0E
0E
0E
0E
0E
0E
0E
FE
FE
FE
0E
0E
0E
0E
ENDCHAR
STARTCHAR 02E9
ENCODING 745
SWIDTH 377 0
DWIDTH 11 0
BBX 7 21 2 0
BITMAP
0E
0E
0E
0E
0E
0E
0E
0E
0E
0E
0E
0E
0E
0E
0E
0E
0E
0E
FE
FE
FE
ENDCHAR
STARTCHAR 02EA
ENCODING 746
SWIDTH 514 0
DWIDTH 15 0
BBX 8 11 2 2
BITMAP
C0
C0
C0
C0
C0
C0
C0
C0
C0
FF
FF
ENDCHAR
STARTCHAR 02EB
ENCODING 747
SWIDTH 514 0
DWIDTH 15 0
BBX 8 11 2 2
BITMAP
C0
C0
C0
C0
FF
FF
FF
C0
C0
C0
C0
ENDCHAR
STARTCHAR 02EC
ENCODING 748
SWIDTH 411 0
DWIDTH 12 0
BBX 10 4 1 17
BITMAP
E3C0
7780
3F00
1E00
ENDCHAR
STARTCHAR 02ED
ENCODING 749
SWIDTH 514 0
DWIDTH 15 0
BBX 12 7 1 18
BITMAP
FFF0
FFF0
0000
0000
FFF0
FFF0
FFF0
ENDCHAR
STARTCHAR 02EE
ENCODING 750
SWIDTH 377 0
DWIDTH 11 0
BBX 9 9 1 13
BITMAP
6300
F780
7380
7380
7380
7380
6300
E700
4200
ENDCHAR
STARTCHAR 02EF
ENCODING 751
SWIDTH 377 0
DWIDTH 11 0
BBX 7 5 2 -6
BITMAP
44
EE
7C
38
10
ENDCHAR
STARTCHAR 02F0
ENCODING 752
SWIDTH 377 0
DWIDTH 11 0
BBX 7 5 2 -6
BITMAP
10
38
7C
EE
44
ENDCHAR
STARTCHAR 02F1
ENCODING 753
SWIDTH 377 0
DWIDTH 11 0
BBX 5 7 3 -8
BITMAP
10
38
70
E0
70
38
10
ENDCHAR
STARTCHAR 02F2
ENCODING 754
SWIDTH 377 0
DWIDTH 11 0
BBX 5 7 4 -8
BITMAP
C0
E0
70
38
60
C0
40
ENDCHAR
STARTCHAR 02F3
ENCODING 755
SWIDTH 411 0
DWIDTH 12 0
BBX 6 6 3 -7
BITMAP
78
FC
CC
CC
FC
78
ENDCHAR
STARTCHAR 02F4
ENCODING 756
SWIDTH 411 0
DWIDTH 12 0
BBX 8 5 0 9
BITMAP
F0
7C
3C
1E
0F
ENDCHAR
STARTCHAR 02F5
ENCODING 757
SWIDTH 411 0
DWIDTH 12 0
BBX 12 4 0 9
BITMAP
F380
39C0
1CE0
0E70
ENDCHAR
STARTCHAR 02F6
ENCODING 758
SWIDTH 411 0
DWIDTH 12 0
BBX 12 4 4 9
BITMAP
3CF0
79C0
7380
E700
ENDCHAR
STARTCHAR 02F7
ENCODING 759
SWIDTH 411 0
DWIDTH 12 0
BBX 9 4 1 -5
BITMAP
3980
7F80
FF80
C700
ENDCHAR
STARTCHAR 02F8
ENCODING 760
SWIDTH 274 0
DWIDTH 8 0
BBX 5 14 2 7
BITMAP
70
F8
F8
70
00
00
00
00
00
00
70
F8
F8
70
ENDCHAR
STARTCHAR 02F9
ENCODING 761
SWIDTH 377 0
DWIDTH 11 0
BBX 7 7 2 17
BITMAP
FE
FE
FE
E0
E0
E0
E0
ENDCHAR
STARTCHAR 02FA
ENCODING 762
SWIDTH 377 0
DWIDTH 11 0
BBX 7 7 2 17
BITMAP
FE
FE
FE
06
06
06
06
ENDCHAR
STARTCHAR 02FB
ENCODING 763
SWIDTH 377 0
DWIDTH 11 0
BBX 7 7 2 0
BITMAP
E0
E0
E0
E0
FE
FE
FE
ENDCHAR
STARTCHAR 02FC
ENCODING 764
SWIDTH 377 0
DWIDTH 11 0
BBX 7 7 2 0
BITMAP
06
06
06
06
FE
FE
FE
ENDCHAR
STARTCHAR 02FD
ENCODING 765
SWIDTH 617 0
DWIDTH 18 0
BBX 16 5 1 -6
BITMAP
C003
C003
C003
FFFF
FFFF
ENDCHAR
STARTCHAR 02FE
ENCODING 766
SWIDTH 617 0
DWIDTH 18 0
BBX 16 5 1 -6
BITMAP
C000
C000
C000
FFFF
FFFF
ENDCHAR
STARTCHAR 02FF
ENCODING 767
SWIDTH 582 0
DWIDTH 17 0
BBX 9 7 3 -8
BITMAP
0800
1800
7F80
FF80
7F80
1800
0800
ENDCHAR
STARTCHAR 0300
ENCODING 768
SWIDTH 0 0
DWIDTH 0 0
BBX 7 4 -11 17
BITMAP
F8
38
3C
1E
ENDCHAR
STARTCHAR 0301
ENCODING 769
SWIDTH 0 0
DWIDTH 0 0
BBX 7 4 -8 17
BITMAP
3E
38
78
F0
ENDCHAR
STARTCHAR 0302
ENCODING 770
SWIDTH 0 0
DWIDTH 0 0
BBX 10 4 -11 17
BITMAP
1E00
3F00
7780
E3C0
ENDCHAR
STARTCHAR 0303
ENCODING 771
SWIDTH 0 0
DWIDTH 0 0
BBX 9 4 -11 17
BITMAP
3980
7F80
FF80
C700
ENDCHAR
STARTCHAR 0304
ENCODING 772
SWIDTH 0 0
DWIDTH 0 0
BBX 9 3 -11 17
BITMAP
FF80
FF80
FF80
ENDCHAR
STARTCHAR 0305
ENCODING 773
SWIDTH 0 0
DWIDTH 0 0
BBX 18 3 -9 22
BITMAP
FFFFC0
FFFFC0
FFFFC0
ENDCHAR
STARTCHAR 0306
ENCODING 774
SWIDTH 0 0
DWIDTH 0 0
BBX 9 4 -11 17
BITMAP
E180
6380
7F80
3E00
ENDCHAR
STARTCHAR 0307
ENCODING 775
SWIDTH 0 0
DWIDTH 0 0
BBX 4 5 -8 16
BITMAP
E0
F0
F0
F0
E0
ENDCHAR
STARTCHAR 0308
ENCODING 776
SWIDTH 0 0
DWIDTH 0 0
BBX 10 4 -11 17
BITMAP
6380
F3C0
F3C0
6380
ENDCHAR
STARTCHAR 0309
ENCODING 777
SWIDTH 0 0
DWIDTH 0 0
BBX 6 6 -9 15
BITMAP
F8
F8
1C
38
30
30
ENDCHAR
STARTCHAR 030A
ENCODING 778
SWIDTH 0 0
DWIDTH 0 0
BBX 6 6 -9 16
BITMAP
78
FC
CC
CC
FC
78
ENDCHAR
STARTCHAR 030B
ENCODING 779
SWIDTH 0 0
DWIDTH 0 0
BBX 11 4 -10 17
BITMAP
3DE0
3B80
7700
EE00
ENDCHAR
STARTCHAR 030C
ENCODING 780
SWIDTH 0 0
DWIDTH 0 0
BBX 10 4 -11 17
BITMAP
E3C0
7780
3F00
1E00
ENDCHAR
STARTCHAR 030D
ENCODING 781
SWIDTH 0 0
DWIDTH 0 0
BBX 2 6 5 17
BITMAP
C0
C0
C0
C0
C0
C0
ENDCHAR
STARTCHAR 030E
ENCODING 782
SWIDTH 0 0
DWIDTH 0 0
BBX 7 6 2 17
BITMAP
E6
E6
E6
E6
E6
E6
ENDCHAR
STARTCHAR 030F
ENCODING 783
SWIDTH 0 0
DWIDTH 0 0
BBX 10 4 -1 17
BITMAP
F700
7380
39C0
1CC0
ENDCHAR
STARTCHAR 0310
ENCODING 784
SWIDTH 0 0
DWIDTH 0 0
BBX 10 8 1 17
BITMAP
0C00
1E00
1E00
0C00
C1C0
E1C0
FF80
3F00
ENDCHAR
STARTCHAR 0311
ENCODING 785
SWIDTH 0 0
DWIDTH 0 0
BBX 9 4 1 17
BITMAP
3E00
7F00
6380
E180
ENDCHAR
STARTCHAR 0312
ENCODING 786
SWIDTH 0 0
DWIDTH 0 0
BBX 4 4 -8 17
BITMAP
30
70
70
E0
ENDCHAR
STARTCHAR 0313
ENCODING 787
SWIDTH 0 0
DWIDTH 0 0
BBX 4 7 4 16
BITMAP
60
F0
F0
70
20
60
40
ENDCHAR
STARTCHAR 0314
ENCODING 788
SWIDTH 0 0
DWIDTH 0 0
BBX 4 7 4 16
BITMAP
E0
F0
F0
E0
C0
60
20
ENDCHAR
STARTCHAR 0315
ENCODING 789
SWIDTH 0 0
DWIDTH 0 0
BBX 4 5 4 16
BITMAP
70
70
E0
E0
C0
ENDCHAR
STARTCHAR 0316
ENCODING 790
SWIDTH 0 0
DWIDTH 0 0
BBX 7 5 -9 -5
BITMAP
E0
78
38
1C
0E
ENDCHAR
STARTCHAR 0317
ENCODING 791
SWIDTH 0 0
DWIDTH 0 0
BBX 7 5 -10 -5
BITMAP
0E
3C
38
78
F0
ENDCHAR
STARTCHAR 0318
ENCODING 792
SWIDTH 0 0
DWIDTH 0 0
BBX 7 7 2 -7
BITMAP
06
06
FE
FE
FE
06
06
ENDCHAR
STARTCHAR 0319
ENCODING 793
SWIDTH 0 0
DWIDTH 0 0
BBX 7 7 2 -7
BITMAP
E0
E0
FE
FE
FE
E0
E0
ENDCHAR
STARTCHAR 031A
ENCODING 794
SWIDTH 0 0
DWIDTH 0 0
BBX 7 7 2 17
BITMAP
FE
FE
FE
06
06
06
06
ENDCHAR
STARTCHAR 031B
ENCODING 795
SWIDTH 0 0
DWIDTH 0 0
BBX 6 7 3 11
BITMAP
0C
3C
3C
1C
38
F8
E0
ENDCHAR
STARTCHAR 031C
ENCODING 796
SWIDTH 0 0
DWIDTH 0 0
BBX 4 6 1 16
BITMAP
30
70
C0
C0
70
30
ENDCHAR
STARTCHAR 031D
ENCODING 797
SWIDTH 0 0
DWIDTH 0 0
BBX 7 7 2 -7
BITMAP
38
38
38
38
FE
FE
FE
ENDCHAR
STARTCHAR 031E
ENCODING 798
SWIDTH 0 0
DWIDTH 0 0
BBX 7 6 2 -7
BITMAP
FE
FE
38
38
38
38
ENDCHAR
STARTCHAR 031F
ENCODING 799
SWIDTH 0 0
DWIDTH 0 0
BBX 7 7 2 -7
BITMAP
38
38
FE
FE
FE
38
38
ENDCHAR
STARTCHAR 0320
ENCODING 800
SWIDTH 0 0
DWIDTH 0 0
BBX 7 3 2 -5
BITMAP
FE
FE
FE
ENDCHAR
STARTCHAR 0321
ENCODING 801
SWIDTH 0 0
DWIDTH 0 0
BBX 8 6 1 -5
BITMAP
07
07
27
FF
7E
3C
ENDCHAR
STARTCHAR 0322
ENCODING 802
SWIDTH 0 0
DWIDTH 0 0
BBX 7 6 3 -5
BITMAP
C0
C0
E0
FE
FC
38
ENDCHAR
STARTCHAR 0323
ENCODING 803
SWIDTH 0 0
DWIDTH 0 0
BBX 4 4 -8 -5
BITMAP
60
F0
F0
60
ENDCHAR
STARTCHAR 0324
ENCODING 804
SWIDTH 0 0
DWIDTH 0 0
BBX 10 4 -11 -5
BITMAP
6380
F3C0
F3C0
6380
ENDCHAR
STARTCHAR 0325
ENCODING 805
SWIDTH 0 0
DWIDTH 0 0
BBX 6 6 3 -7
BITMAP
78
FC
CC
CC
FC
78
ENDCHAR
STARTCHAR 0326
ENCODING 806
SWIDTH 0 0
DWIDTH 0 0
BBX 4 4 -8 -5
BITMAP
70
E0
E0
C0
ENDCHAR
STARTCHAR 0327
ENCODING 807
SWIDTH 0 0
DWIDTH 0 0
BBX 6 6 -9 -5
BITMAP
30
30
78
1C
7C
F8
ENDCHAR
STARTCHAR 0328
ENCODING 808
SWIDTH 0 0
DWIDTH 0 0
BBX 6 5 -9 -5
BITMAP
30
60
E0
F8
7C
ENDCHAR
STARTCHAR 0329
ENCODING 809
SWIDTH 0 0
DWIDTH 0 0
BBX 2 6 5 -7
BITMAP
C0
C0
C0
C0
C0
C0
ENDCHAR
STARTCHAR 032A
ENCODING 810
SWIDTH 0 0
DWIDTH 0 0
BBX 10 4 1 -5
BITMAP
FFC0
FFC0
C1C0
C1C0
ENDCHAR
STARTCHAR 032B
ENCODING 811
SWIDTH 0 0
DWIDTH 0 0
BBX 10 4 1 -5
BITMAP
DDC0
FFC0
FF80
7780
ENDCHAR
STARTCHAR 032C
ENCODING 812
SWIDTH 0 0
DWIDTH 0 0
BBX 10 4 -11 -5
BITMAP
E3C0
7380
3F00
1E00
ENDCHAR
STARTCHAR 032D
ENCODING 813
SWIDTH 0 0
DWIDTH 0 0
BBX 10 4 -11 -5
BITMAP
1E00
3F00
7780
E3C0
ENDCHAR
STARTCHAR 032E
ENCODING 814
SWIDTH 0 0
DWIDTH 0 0
BBX 9 4 -11 -5
BITMAP
E180
6380
7F80
3E00
ENDCHAR
STARTCHAR 032F
ENCODING 815
SWIDTH 0 0
DWIDTH 0 0
BBX 9 4 1 17
BITMAP
3E00
7F00
6380
E180
ENDCHAR
STARTCHAR 0330
ENCODING 816
SWIDTH 0 0
DWIDTH 0 0
BBX 9 4 -11 -5
BITMAP
3980
7F80
FF80
C700
ENDCHAR
STARTCHAR 0331
ENCODING 817
SWIDTH 0 0
DWIDTH 0 0
BBX 9 3 -11 -4
BITMAP
FF80
FF80
FF80
ENDCHAR
STARTCHAR 0332
ENCODING 818
SWIDTH 0 0
DWIDTH 0 0
BBX 11 3 0 -4
BITMAP
FFE0
FFE0
FFE0
ENDCHAR
STARTCHAR 0333
ENCODING 819
SWIDTH 0 0
DWIDTH 0 0
BBX 11 3 0 -4
BITMAP
FFE0
FFE0
FFE0
ENDCHAR
STARTCHAR 0334
ENCODING 820
SWIDTH 0 0
DWIDTH 0 0
BBX 11 4 -12 10
BITMAP
3CE0
7FE0
FFE0
E7C0
ENDCHAR
STARTCHAR 0335
ENCODING 821
SWIDTH 0 0
DWIDTH 0 0
BBX 3 27 -6 -5
BITMAP
E0
E0
E0
E0
E0
E0
E0
E0
E0
E0
E0
E0
E0
E0
E0
E0
E0
E0
E0
E0
E0
E0
E0
E0
E0
E0
E0
ENDCHAR
STARTCHAR 0336
ENCODING 822
SWIDTH 0 0
DWIDTH 0 0
BBX 11 3 -5 7
BITMAP
FFE0
FFE0
FFE0
ENDCHAR
STARTCHAR 0337
ENCODING 823
SWIDTH 0 0
DWIDTH 0 0
BBX 12 17 -6 -1
BITMAP
0070
0060
00E0
01C0
01C0
0380
0380
0700
0600
0E00
1C00
1C00
3800
3800
7000
6000
E000
ENDCHAR
STARTCHAR 0338
ENCODING 824
SWIDTH 0 0
DWIDTH 0 0
BBX 16 23 -8 -2
BITMAP
0007
000E
001E
001C
003C
0038
0070
0070
00E0
01E0
01C0
03C0
0380
0780
0700
0E00
0E00
1C00
3C00
3800
7800
7000
E000
ENDCHAR
STARTCHAR 0339
ENCODING 825
SWIDTH 0 0
DWIDTH 0 0
BBX 4 6 1 16
BITMAP
30
70
C0
C0
70
30
ENDCHAR
STARTCHAR 033A
ENCODING 826
SWIDTH 0 0
DWIDTH 0 0
BBX 10 5 1 -5
BITMAP
C1C0
C1C0
C1C0
FFC0
FFC0
ENDCHAR
STARTCHAR 033B
ENCODING 827
SWIDTH 0 0
DWIDTH 0 0
BBX 7 7 2 -7
BITMAP
FE
FE
C6
C6
C6
FE
FE
ENDCHAR
STARTCHAR 033C
ENCODING 828
SWIDTH 0 0
DWIDTH 0 0
BBX 10 3 1 -5
BITMAP
7780
FFC0
5D00
ENDCHAR
STARTCHAR 033D
ENCODING 829
SWIDTH 0 0
DWIDTH 0 0
BBX 7 7 2 17
BITMAP
44
E6
7E
3C
3C
7E
E6
ENDCHAR
STARTCHAR 033E
ENCODING 830
SWIDTH 0 0
DWIDTH 0 0
BBX 4 9 4 17
BITMAP
70
F0
E0
E0
E0
70
70
E0
C0
ENDCHAR
STARTCHAR 033F
ENCODING 831
SWIDTH 0 0
DWIDTH 0 0
BBX 18 7 -9 22
BITMAP
FFFFC0
FFFFC0
FFFFC0
000000
FFFFC0
FFFFC0
FFFFC0
ENDCHAR
STARTCHAR 0340
ENCODING 832
SWIDTH 0 0
DWIDTH 0 0
BBX 7 4 -11 17
BITMAP
F8
38
3C
1E
ENDCHAR
STARTCHAR 0341
ENCODING 833
SWIDTH 0 0
DWIDTH 0 0
BBX 7 4 -8 17
BITMAP
3E
38
78
F0
ENDCHAR
STARTCHAR 0342
ENCODING 834
SWIDTH 0 0
DWIDTH 0 0
BBX 9 4 -11 17
BITMAP
3980
7F80
FF80
C700
ENDCHAR
STARTCHAR 0343
ENCODING 835
SWIDTH 0 0
DWIDTH 0 0
BBX 4 7 4 16
BITMAP
60
F0
F0
70
20
60
40
ENDCHAR
STARTCHAR 0344
ENCODING 836
SWIDTH 0 0
DWIDTH 0 0
BBX 11 5 -11 17
BITMAP
0E00
EEE0
EEE0
ECE0
0C00
ENDCHAR
STARTCHAR 0345
ENCODING 837
SWIDTH 0 0
DWIDTH 0 0
BBX 4 5 -5 -6
BITMAP
E0
E0
E0
F0
70
ENDCHAR
STARTCHAR 0346
ENCODING 838
SWIDTH 0 0
DWIDTH 0 0
BBX 10 4 1 -5
BITMAP
FFC0
FFC0
C1C0
C1C0
ENDCHAR
STARTCHAR 0347
ENCODING 839
SWIDTH 0 0
DWIDTH 0 0
BBX 11 3 0 -4
BITMAP
FFE0
FFE0
FFE0
ENDCHAR
STARTCHAR 0348
ENCODING 840
SWIDTH 0 0
DWIDTH 0 0
BBX 7 6 2 17
BITMAP
E6
E6
E6
E6
E6
E6
ENDCHAR
STARTCHAR 0349
ENCODING 841
SWIDTH 0 0
DWIDTH 0 0
BBX 7 7 2 17
BITMAP
FE
FE
FE
06
06
06
06
ENDCHAR
STARTCHAR 034A
ENCODING 842
SWIDTH 0 0
DWIDTH 0 0
BBX 10 9 1 14
BITMAP
0200
0700
76C0
FEC0
FFC0
DF80
DF00
3800
1000
ENDCHAR
STARTCHAR 034B
ENCODING 843
SWIDTH 0 0
DWIDTH 0 0
BBX 9 10 -10 15
BITMAP
0800
1C00
1C00
3D80
FF80
FF80
CF00
1C00
1C00
1C00
ENDCHAR
STARTCHAR 034C
ENCODING 844
SWIDTH 0 0
DWIDTH 0 0
BBX 9 9 -11 15
BITMAP
3980
7F80
FF80
C700
0000
3980
7F80
FF80
C700
ENDCHAR
STARTCHAR 034D
ENCODING 845
SWIDTH 0 0
DWIDTH 0 0
BBX 16 7 0 -8
BITMAP
0410
181C
7FFE
FFFF
7FFE
181C
0410
ENDCHAR
STARTCHAR 034E
ENCODING 846
SWIDTH 0 0
DWIDTH 0 0
BBX 6 7 5 -8
BITMAP
10
38
38
7C
FC
38
38
ENDCHAR
STARTCHAR 034F
ENCODING 847
SWIDTH 0 0
DWIDTH 0 0
BBX 0 0 0 0
BITMAP
ENDCHAR
STARTCHAR 0350
ENCODING 848
SWIDTH 0 0
DWIDTH 0 0
BBX 5 7 3 17
BITMAP
40
E0
70
38
38
70
E0
ENDCHAR
STARTCHAR 0351
ENCODING 849
SWIDTH 0 0
DWIDTH 0 0
BBX 4 6 3 17
BITMAP
30
70
E0
E0
70
30
ENDCHAR
STARTCHAR 0352
ENCODING 850
SWIDTH 0 0
DWIDTH 0 0
BBX 10 7 1 16
BITMAP
3F00
7F80
E1C0
DCC0
DEC0
1E00
1C00
ENDCHAR
STARTCHAR 0353
ENCODING 851
SWIDTH 0 0
DWIDTH 0 0
BBX 7 7 2 17
BITMAP
44
E6
7E
3C
3C
7E
E6
ENDCHAR
STARTCHAR 0354
ENCODING 852
SWIDTH 0 0
DWIDTH 0 0
BBX 5 7 3 -8
BITMAP
10
38
70
E0
70
38
10
ENDCHAR
STARTCHAR 0355
ENCODING 853
SWIDTH 0 0
DWIDTH 0 0
BBX 5 7 4 -8
BITMAP
C0
E0
70
38
60
C0
40
ENDCHAR
STARTCHAR 0356
ENCODING 854
SWIDTH 0 0
DWIDTH 0 0
BBX 12 7 0 -8
BITMAP
4000
E080
71C0
3BE0
7770
E220
4000
ENDCHAR
STARTCHAR 0357
ENCODING 855
SWIDTH 0 0
DWIDTH 0 0
BBX 3 6 5 17
BITMAP
C0
E0
60
60
E0
C0
ENDCHAR
STARTCHAR 0358
ENCODING 856
SWIDTH 0 0
DWIDTH 0 0
BBX 4 5 -8 16
BITMAP
E0
F0
F0
F0
E0
ENDCHAR
STARTCHAR 0359
ENCODING 857
SWIDTH 0 0
DWIDTH 0 0
BBX 5 5 2 -6
BITMAP
20
B8
60
B8
20
ENDCHAR
STARTCHAR 035A
ENCODING 858
SWIDTH 0 0
DWIDTH 0 0
BBX 9 5 2 -5
BITMAP
7700
FF80
CD80
FF80
7780
ENDCHAR
STARTCHAR 035B
ENCODING 859
SWIDTH 0 0
DWIDTH 0 0
BBX 7 8 3 16
BITMAP
70
70
60
FE
FC
1C
18
38
ENDCHAR
STARTCHAR 035C
ENCODING 860
SWIDTH 0 0
DWIDTH 0 0
BBX 30 5 1 -7
BITMAP
7000003C
FF8003FC
7FFFFFF8
0FFFFFC0
007FFC00
ENDCHAR
STARTCHAR 035D
ENCODING 861
SWIDTH 0 0
DWIDTH 0 0
BBX 30 5 1 17
BITMAP
7000003C
FF8003FC
7FFFFFF8
0FFFFFC0
007FFC00
ENDCHAR
STARTCHAR 035E
ENCODING 862
SWIDTH 0 0
DWIDTH 0 0
BBX 30 3 1 18
BITMAP
FFFFFFFC
FFFFFFFC
FFFFFFFC
ENDCHAR
STARTCHAR 035F
ENCODING 863
SWIDTH 0 0
DWIDTH 0 0
BBX 30 3 1 -6
BITMAP
FFFFFFFC
FFFFFFFC
FFFFFFFC
ENDCHAR
STARTCHAR 0360
ENCODING 864
SWIDTH 0 0
DWIDTH 0 0
BBX 29 6 2 16
BITMAP
1FE00000
7FFC0038
FFFFC078
F03FFFF0
E003FFE0
00003FC0
ENDCHAR
STARTCHAR 0361
ENCODING 865
SWIDTH 0 0
DWIDTH 0 0
BBX 30 5 -15 17
BITMAP
007FFC00
0FFFFFC0
3FFFFFF8
FF8003FC
7000003C
ENDCHAR
STARTCHAR 0362
ENCODING 866
SWIDTH 0 0
DWIDTH 0 0
BBX 30 7 1 -8
BITMAP
00000080
00000060
FFFFFFF8
FFFFFFFC
FFFFFFF8
00000060
00000080
ENDCHAR
STARTCHAR 0363
ENCODING 867
SWIDTH 0 0
DWIDTH 0 0
BBX 6 7 1 16
BITMAP
38
7C
0C
7C
EC
CC
74
ENDCHAR
STARTCHAR 0364
ENCODING 868
SWIDTH 0 0
DWIDTH 0 0
BBX 7 7 1 17
BITMAP
38
7C
E6
FE
E0
7E
3C
ENDCHAR
STARTCHAR 0365
ENCODING 869
SWIDTH 0 0
DWIDTH 0 0
BBX 3 10 1 16
BITMAP
60
E0
60
00
60
60
60
60
60
60
ENDCHAR
STARTCHAR 0366
ENCODING 870
SWIDTH 0 0
DWIDTH 0 0
BBX 7 7 1 16
BITMAP
3C
7E
E6
C6
E6
7E
3C
ENDCHAR
STARTCHAR 0367
ENCODING 871
SWIDTH 0 0
DWIDTH 0 0
BBX 7 7 1 16
BITMAP
E6
E6
E6
E6
E6
7E
76
ENDCHAR
STARTCHAR 0368
ENCODING 872
SWIDTH 0 0
DWIDTH 0 0
BBX 6 7 1 16
BITMAP
38
7C
E0
C0
E0
7C
38
ENDCHAR
STARTCHAR 0369
ENCODING 873
SWIDTH 0 0
DWIDTH 0 0
BBX 7 10 1 16
BITMAP
06
06
06
36
7E
E6
E6
E6
7E
76
ENDCHAR
STARTCHAR 036A
ENCODING 874
SWIDTH 0 0
DWIDTH 0 0
BBX 6 10 2 16
BITMAP
C0
C0
C0
F8
FC
CC
CC
CC
CC
CC
ENDCHAR
STARTCHAR 036B
ENCODING 875
SWIDTH 0 0
DWIDTH 0 0
BBX 10 7 2 16
BITMAP
F380
FFC0
DDC0
CDC0
CDC0
CDC0
CDC0
ENDCHAR
STARTCHAR 036C
ENCODING 876
SWIDTH 0 0
DWIDTH 0 0
BBX 5 7 1 16
BITMAP
D8
F8
E0
E0
E0
E0
E0
ENDCHAR
STARTCHAR 036D
ENCODING 877
SWIDTH 0 0
DWIDTH 0 0
BBX 5 9 1 16
BITMAP
60
60
F8
F8
60
60
60
78
78
ENDCHAR
STARTCHAR 036E
ENCODING 878
SWIDTH 0 0
DWIDTH 0 0
BBX 7 7 1 16
BITMAP
C6
EE
6C
6C
28
38
38
ENDCHAR
STARTCHAR 036F
ENCODING 879
SWIDTH 0 0
DWIDTH 0 0
BBX 7 7 1 16
BITMAP
E6
6C
3C
38
7C
6E
E6
ENDCHAR
STARTCHAR 0374
ENCODING 884
SWIDTH 240 0
DWIDTH 7 0
BBX 4 9 1 13
BITMAP
70
70
70
70
70
70
60
E0
40
ENDCHAR
STARTCHAR 0375
ENCODING 885
SWIDTH 240 0
DWIDTH 7 0
BBX 4 9 1 -4
BITMAP
70
70
70
70
70
70
60
E0
40
ENDCHAR
STARTCHAR 037A
ENCODING 890
SWIDTH 205 0
DWIDTH 6 0
BBX 4 5 1 -6
BITMAP
E0
E0
E0
F0
70
ENDCHAR
STARTCHAR 037B
ENCODING 891
SWIDTH 480 0
DWIDTH 14 0
BBX 13 15 0 0
BITMAP
1F80
3FE0
FFE0
70F0
0078
0078
0078
0078
0078
0078
0078
60F0
7FE0
7FC0
1F80
ENDCHAR
STARTCHAR 037C
ENCODING 892
SWIDTH 480 0
DWIDTH 14 0
BBX 13 15 1 0
BITMAP
0FC0
3FE0
7FF0
7820
F000
F000
F380
F3C0
F3C0
F3C0
F380
7870
7FF8
3FE0
0FC0
ENDCHAR
STARTCHAR 037D
ENCODING 893
SWIDTH 480 0
DWIDTH 14 0
BBX 12 15 1 0
BITMAP
3F00
7FC0
FFE0
E1E0
00F0
00F0
1CF0
1EF0
1EF0
1EF0
1CF0
61E0
FFE0
7FC0
3F00
ENDCHAR
STARTCHAR 037E
ENCODING 894
SWIDTH 274 0
DWIDTH 8 0
BBX 6 18 1 -4
BITMAP
70
F8
F8
70
00
00
00
00
00
00
38
78
7C
38
18
18
30
60
ENDCHAR
STARTCHAR 0384
ENCODING 900
SWIDTH 411 0
DWIDTH 12 0
BBX 4 5 5 16
BITMAP
F0
E0
E0
C0
C0
ENDCHAR
STARTCHAR 0385
ENCODING 901
SWIDTH 411 0
DWIDTH 12 0
BBX 11 5 1 17
BITMAP
0E00
EEE0
EEE0
ECE0
0C00
ENDCHAR
STARTCHAR 0386
ENCODING 902
SWIDTH 685 0
DWIDTH 20 0
BBX 20 21 0 0
BITMAP
3CF000
39F800
39F800
31F800
33FC00
03DC00
039E00
079E00
070E00
0F0F00
0F0F00
0E0780
1E0780
1FFF80
3FFFC0
3FFFC0
3C01E0
7801E0
7801E0
F000F0
F000F0
ENDCHAR
STARTCHAR 0387
ENCODING 903
SWIDTH 274 0
DWIDTH 8 0
BBX 6 5 1 6
BITMAP
78
F8
FC
FC
78
ENDCHAR
STARTCHAR 0388
ENCODING 904
SWIDTH 651 0
DWIDTH 19 0
BBX 19 21 0 0
BITMAP
F7FFE0
E7FFE0
E7FFE0
C78000
C78000
078000
078000
078000
078000
07FF80
07FF80
07FF80
078000
078000
078000
078000
078000
078000
07FFE0
07FFE0
07FFE0
ENDCHAR
STARTCHAR 0389
ENCODING 905
SWIDTH 754 0
DWIDTH 22 0
BBX 22 21 -2 0
BITMAP
FF003C
EF003C
EF003C
CF003C
CF003C
0F003C
0F003C
0F003C
0F003C
0FFFFC
0FFFFC
0FFFFC
0F003C
0F003C
0F003C
0F003C
0F003C
0F003C
0F003C
0F003C
0F003C
ENDCHAR
STARTCHAR 038A
ENCODING 906
SWIDTH 308 0
DWIDTH 9 0
BBX 9 21 -3 0
BITMAP
F780
E780
E780
C780
C780
0780
0780
0780
0780
0780
0780
0780
0780
0780
0780
0780
0780
0780
0780
0780
0780
ENDCHAR
STARTCHAR 038C
ENCODING 908
SWIDTH 788 0
DWIDTH 23 0
BBX 24 21 -2 0
BITMAP
F03F80
E0FFE0
E1FFF8
C3E0FC
C7803E
0F001E
0F000F
1E000F
1E000F
1E000F
1E000F
1E000F
1E000F
1E000F
0F000F
0F001E
07803E
03E0FC
01FFF8
00FFF0
003F80
ENDCHAR
STARTCHAR 038E
ENCODING 910
SWIDTH 651 0
DWIDTH 19 0
BBX 23 21 -4 0
BITMAP
FF003E
E7803C
E7807C
C3C078
C3E0F0
01E0F0
00F1E0
00F1E0
007BC0
007B80
003F80
001F00
001F00
001E00
001E00
001E00
001E00
001E00
001E00
001E00
001E00
ENDCHAR
STARTCHAR 038F
ENCODING 911
SWIDTH 822 0
DWIDTH 24 0
BBX 23 21 -1 0
BITMAP
F07F00
E1FFC0
E3FFF0
C7C1F8
CF007C
1F003C
1E001E
1E001E
1C001E
1C001E
1C001E
1E001E
1E001E
1E003C
0F003C
078078
07C1F0
01E3E0
3FE3FE
3FE3FE
3FE3FE
ENDCHAR
STARTCHAR 0390
ENCODING 912
SWIDTH 274 0
DWIDTH 8 0
BBX 11 22 -1 0
BITMAP
0E00
EEE0
EEE0
ECE0
0C00
0000
0000
1C00
1C00
1C00
1C00
1C00
1C00
1C00
1C00
1C00
1C00
1C00
1C00
1F80
1F80
0780
ENDCHAR
STARTCHAR 0391
ENCODING 913
SWIDTH 685 0
DWIDTH 20 0
BBX 20 21 0 0
BITMAP
00F000
01F800
01F800
01F800
03FC00
03DC00
039E00
079E00
070E00
0F0F00
0F0F00
0E0780
1E0780
1FFF80
3FFFC0
3FFFC0
3C01E0
7801E0
7801E0
F000F0
F000F0
ENDCHAR
STARTCHAR 0392
ENCODING 914
SWIDTH 651 0
DWIDTH 19 0
BBX 16 21 2 0
BITMAP
FFE0
FFF8
FFFC
F03E
F01E
F01E
F01E
F01E
F03C
FFF8
FFF8
FFFC
F01E
F00F
F00F
F00F
F00F
F01E
FFFE
FFFC
FFF0
ENDCHAR
STARTCHAR 0393
ENCODING 915
SWIDTH 548 0
DWIDTH 16 0
BBX 14 21 2 0
BITMAP
FFFC
FFFC
FFFC
F000
F000
F000
F000
F000
F000
F000
F000
F000
F000
F000
F000
F000
F000
F000
F000
F000
F000
ENDCHAR
STARTCHAR 0394
ENCODING 916
SWIDTH 685 0
DWIDTH 20 0
BBX 20 21 0 0
BITMAP
00F000
00F800
01F800
01FC00
03FC00
039C00
079E00
079E00
070F00
0F0F00
0E0780
1E0780
1E0780
3C03C0
3C03C0
3801E0
7801E0
7001E0
FFFFF0
FFFFF0
FFFFF0
ENDCHAR
STARTCHAR 0395
ENCODING 917
SWIDTH 582 0
DWIDTH 17 0
BBX 14 21 2 0
BITMAP
FFFC
FFFC
FFFC
F000
F000
F000
F000
F000
F000
FFF0
FFF0
FFF0
F000
F000
F000
F000
F000
F000
FFFC
FFFC
FFFC
ENDCHAR
STARTCHAR 0396
ENCODING 918
SWIDTH 617 0
DWIDTH 18 0
BBX 16 21 1 0
BITMAP
FFFF
FFFF
FFFF
003E
003C
0078
00F8
00F0
01E0
03E0
07C0
0780
0F80
1F00
1E00
3C00
7C00
7800
FFFF
FFFF
FFFF
ENDCHAR
STARTCHAR 0397
ENCODING 919
SWIDTH 754 0
DWIDTH 22 0
BBX 18 21 2 0
BITMAP
F003C0
F003C0
F003C0
F003C0
F003C0
F003C0
F003C0
F003C0
F003C0
FFFFC0
FFFFC0
FFFFC0
F003C0
F003C0
F003C0
F003C0
F003C0
F003C0
F003C0
F003C0
F003C0
ENDCHAR
STARTCHAR 0398
ENCODING 920
SWIDTH 788 0
DWIDTH 23 0
BBX 21 21 1 0
BITMAP
01FC00
07FF00
0FFFC0
1F07E0
3C01F0
7800F0
780078
F00078
F00078
F1FE78
F1FE78
F1FE78
F00078
F00078
780078
7800F0
3C01F0
1F07E0
0FFFC0
07FF80
01FC00
ENDCHAR
STARTCHAR 0399
ENCODING 921
SWIDTH 308 0
DWIDTH 9 0
BBX 4 21 2 0
BITMAP
F0
F0
F0
F0
F0
F0
F0
F0
F0
F0
F0
F0
F0
F0
F0
F0
F0
F0
F0
F0
F0
ENDCHAR
STARTCHAR 039A
ENCODING 922
SWIDTH 685 0
DWIDTH 20 0
BBX 18 21 2 0
BITMAP
F007C0
F00F00
F01F00
F03E00
F03C00
F07800
F0F000
F1F000
F1E000
FFC000
FFC000
FFE000
F1F000
F0F000
F07800
F07C00
F03E00
F01E00
F00F00
F00F80
F007C0
ENDCHAR
STARTCHAR 039B
ENCODING 923
SWIDTH 685 0
DWIDTH 20 0
BBX 20 21 0 0
BITMAP
00F000
00F000
01F800
01F800
03FC00
03FC00
03BC00
079E00
079E00
0F1F00
0F0F00
0E0F00
1E0780
1E0780
3C07C0
3C03C0
3803C0
7801E0
7801E0
F001F0
F000F0
ENDCHAR
STARTCHAR 039C
ENCODING 924
SWIDTH 925 0
DWIDTH 27 0
BBX 23 21 2 0
BITMAP
F8001E
F8003E
FC003E
FC007E
FE007E
FE00FE
FF00EE
F701EE
F781CE
F383CE
F3C38E
F1C78E
F1EF0E
F0EF0E
F0FE0E
F07E0E
F07C0E
F0380E
F0000E
F0000E
F0000E
ENDCHAR
STARTCHAR 039D
ENCODING 925
SWIDTH 754 0
DWIDTH 22 0
BBX 18 21 2 0
BITMAP
F001C0
F001C0
F801C0
FC01C0
FE01C0
FF01C0
FF01C0
F781C0
F7C1C0
F3E1C0
F1E1C0
F0F1C0
F0F9C0
F07DC0
F03FC0
F01FC0
F00FC0
F00FC0
F007C0
F003C0
F001C0
ENDCHAR
STARTCHAR 039E
ENCODING 926
SWIDTH 617 0
DWIDTH 18 0
BBX 16 21 1 0
BITMAP
FFFF
FFFF
FFFF
0000
0000
0000
0000
0000
0000
0FF0
0FF0
0FF0
0000
0000
0000
0000
0000
0000
FFFF
FFFF
FFFF
ENDCHAR
STARTCHAR 039F
ENCODING 927
SWIDTH 788 0
DWIDTH 23 0
BBX 21 21 1 0
BITMAP
01FC00
07FF00
0FFFC0
1F07E0
3C01F0
7800F0
780078
F00078
F00078
F00078
F00078
F00078
F00078
F00078
780078
7800F0
3C01F0
1F07E0
0FFFC0
07FF80
01FC00
ENDCHAR
STARTCHAR 03A0
ENCODING 928
SWIDTH 754 0
DWIDTH 22 0
BBX 18 21 2 0
BITMAP
FFFFC0
FFFFC0
FFFFC0
F003C0
F003C0
F003C0
F003C0
F003C0
F003C0
F003C0
F003C0
F003C0
F003C0
F003C0
F003C0
F003C0
F003C0
F003C0
F003C0
F003C0
F003C0
ENDCHAR
STARTCHAR 03A1
ENCODING 929
SWIDTH 617 0
DWIDTH 18 0
BBX 15 21 2 0
BITMAP
FFE0
FFF8
FFFC
F07E
F01E
F01E
F01E
F01E
F01E
F01E
F07C
FFFC
FFF8
FFE0
F000
F000
F000
F000
F000
F000
F000
ENDCHAR
STARTCHAR 03A3
ENCODING 931
SWIDTH 617 0
DWIDTH 18 0
BBX 16 21 1 0
BITMAP
FFFF
FFFF
FFFF
7800
3C00
1E00
0F00
0F80
07C0
03C0
01C0
03C0
0780
0F00
0F00
1E00
3C00
7800
FFFF
FFFF
FFFF
ENDCHAR
STARTCHAR 03A4
ENCODING 932
SWIDTH 582 0
DWIDTH 17 0
BBX 17 21 0 0
BITMAP
FFFF80
FFFF80
FFFF80
01E000
01E000
01E000
01E000
01E000
01E000
01E000
01E000
01E000
01E000
01E000
01E000
01E000
01E000
01E000
01E000
01E000
01E000
ENDCHAR
STARTCHAR 03A5
ENCODING 933
SWIDTH 651 0
DWIDTH 19 0
BBX 19 21 0 0
BITMAP
F003E0
7803C0
7807C0
3C0780
3E0F00
1E0F00
0F1E00
0F1E00
07BC00
07B800
03F800
01F000
01F000
01E000
01E000
01E000
01E000
01E000
01E000
01E000
01E000
ENDCHAR
STARTCHAR 03A6
ENCODING 934
SWIDTH 857 0
DWIDTH 25 0
BBX 23 24 1 -2
BITMAP
003800
003800
003800
03FF80
0FFFE0
1FFFF0
3E38F8
7C387C
F8383C
F0381E
F0381E
F0381E
F0381E
F0381E
F0381E
78383C
78387C
3E38F8
1FFFF0
0FFFE0
03FF80
003800
003800
003800
ENDCHAR
STARTCHAR 03A7
ENCODING 935
SWIDTH 651 0
DWIDTH 19 0
BBX 19 21 0 0
BITMAP
F801E0
7C03C0
3C07C0
1E0780
1F0F00
0F0F00
079E00
07BC00
03FC00
03F800
01F800
03F800
03FC00
07BE00
0F1E00
0F0F00
1E0F00
3C0780
3C07C0
7803C0
F801E0
ENDCHAR
STARTCHAR 03A8
ENCODING 936
SWIDTH 822 0
DWIDTH 24 0
BBX 22 21 1 0
BITMAP
F0783C
F0783C
F0783C
F0783C
F0783C
F0783C
F0783C
F0783C
F0783C
F0783C
78787C
787878
3E78F8
3FFFF0
0FFFE0
03FF00
007800
007800
007800
007800
007800
ENDCHAR
STARTCHAR 03A9
ENCODING 937
SWIDTH 822 0
DWIDTH 24 0
BBX 21 21 1 0
BITMAP
01FC00
07FF00
0FFFC0
1F07E0
3C01F0
7C00F0
780078
780078
700078
700078
700078
780078
780078
7800F0
3C00F0
1E01E0
1F07C0
078F80
FF8FF8
FF8FF8
FF8FF8
ENDCHAR
STARTCHAR 03AA
ENCODING 938
SWIDTH 308 0
DWIDTH 9 0
BBX 10 26 0 0
BITMAP
E180
E3C0
F3C0
E180
0000
3C00
3C00
3C00
3C00
3C00
3C00
3C00
3C00
3C00
3C00
3C00
3C00
3C00
3C00
3C00
3C00
3C00
3C00
3C00
3C00
3C00
ENDCHAR
STARTCHAR 03AB
ENCODING 939
SWIDTH 651 0
DWIDTH 19 0
BBX 19 26 0 0
BITMAP
070C00
071E00
079E00
070C00
000000
F003E0
7803C0
7807C0
3C0780
3E0F00
1E0F00
0F1E00
0F1E00
07BC00
07B800
03F800
01F000
01F000
01E000
01E000
01E000
01E000
01E000
01E000
01E000
01E000
ENDCHAR
STARTCHAR 03AC
ENCODING 940
SWIDTH 582 0
DWIDTH 17 0
BBX 16 21 1 0
BITMAP
03C0
0380
0380
0300
0300
0000
0F9C
1FDC
3FFC
7C7C
703C
F03C
F03C
F03C
F038
F038
F078
787C
7FFF
3FDF
0F0F
ENDCHAR
STARTCHAR 03AD
ENCODING 941
SWIDTH 445 0
DWIDTH 13 0
BBX 12 21 1 0
BITMAP
0780
0700
0700
0600
0600
0000
1F80
3FE0
7FE0
F040
F000
7000
7F80
3F80
7F80
F000
F000
F060
FFF0
7FE0
1F80
ENDCHAR
STARTCHAR 03AE
ENCODING 942
SWIDTH 582 0
DWIDTH 17 0
BBX 16 26 0 -5
BITMAP
01E0
01C0
01C0
0180
0180
0000
70F8
FBFC
FFFE
3F1E
1C0E
1C0F
1C0F
1C0F
1C0F
1C0F
1C0F
1C0F
1C0F
1C0F
1C0F
000F
000F
000F
000F
000F
ENDCHAR
STARTCHAR 03AF
ENCODING 943
SWIDTH 274 0
DWIDTH 8 0
BBX 6 21 2 0
BITMAP
78
70
70
60
60
00
E0
E0
E0
E0
E0
E0
E0
E0
E0
E0
E0
E0
FC
FC
3C
ENDCHAR
STARTCHAR 03B0
ENCODING 944
SWIDTH 548 0
DWIDTH 16 0
BBX 13 22 2 0
BITMAP
0700
7770
7770
7670
0600
0000
0000
E070
E070
E070
E078
E078
E078
E078
E078
E078
E078
E070
F0F0
FFE0
7FC0
1F80
ENDCHAR
STARTCHAR 03B1
ENCODING 945
SWIDTH 582 0
DWIDTH 17 0
BBX 16 15 1 0
BITMAP
0F9C
1FDC
3FFC
7C7C
703C
F03C
F03C
F03C
F038
F038
F078
787C
7FFF
3FDF
0F0F
ENDCHAR
STARTCHAR 03B2
ENCODING 946
SWIDTH 548 0
DWIDTH 16 0
BBX 14 26 2 -5
BITMAP
1F80
3FE0
7FF0
F8F0
F070
F070
E070
E0F0
E7E0
E7C0
E7F0
E0F8
E038
E038
E03C
E03C
E078
F0F8
FFF0
FFE0
E7C0
E000
E000
E000
E000
E000
ENDCHAR
STARTCHAR 03B3
ENCODING 947
SWIDTH 548 0
DWIDTH 16 0
BBX 15 20 1 -5
BITMAP
E01E
F81E
F81C
3C3C
1C3C
1E38
1E38
0E70
0F70
0FE0
07E0
07C0
07C0
0780
0780
0780
0780
0780
0780
0780
ENDCHAR
STARTCHAR 03B4
ENCODING 948
SWIDTH 548 0
DWIDTH 16 0
BBX 14 21 1 0
BITMAP
0FF0
1FF8
3FF0
3830
3800
3E00
1F00
0FC0
1FE0
3CF0
7878
F03C
F03C
F01C
F01C
F01C
F03C
787C
7FF8
3FF0
0FC0
ENDCHAR
STARTCHAR 03B5
ENCODING 949
SWIDTH 445 0
DWIDTH 13 0
BBX 12 15 1 0
BITMAP
1F80
3FE0
7FE0
F040
F000
7000
7F80
3F80
7F80
F000
F000
F060
FFF0
7FE0
1F80
ENDCHAR
STARTCHAR 03B6
ENCODING 950
SWIDTH 411 0
DWIDTH 12 0
BBX 11 26 1 -5
BITMAP
7FE0
7FE0
7FE0
03C0
0780
0F00
1E00
1C00
3800
7800
7000
F000
E000
E000
E000
F000
F800
7E00
7F80
1FC0
07E0
01E0
00E0
00E0
01E0
0040
ENDCHAR
STARTCHAR 03B7
ENCODING 951
SWIDTH 582 0
DWIDTH 17 0
BBX 16 20 0 -5
BITMAP
70F8
FBFC
FFFE
3F1E
1C0E
1C0F
1C0F
1C0F
1C0F
1C0F
1C0F
1C0F
1C0F
1C0F
1C0F
000F
000F
000F
000F
000F
ENDCHAR
STARTCHAR 03B8
ENCODING 952
SWIDTH 582 0
DWIDTH 17 0
BBX 15 21 1 0
BITMAP
07C0
1FF0
3FF8
3C7C
783C
781C
701E
701E
F00E
FFFE
FFFE
FFFE
F00E
701E
701E
701C
781C
3C3C
1FF8
1FF0
07C0
ENDCHAR
STARTCHAR 03B9
ENCODING 953
SWIDTH 274 0
DWIDTH 8 0
BBX 6 15 2 0
BITMAP
E0
E0
E0
E0
E0
E0
E0
E0
E0
E0
E0
E0
FC
FC
3C
ENDCHAR
STARTCHAR 03BA
ENCODING 954
SWIDTH 548 0
DWIDTH 16 0
BBX 14 15 2 0
BITMAP
E078
E0F0
E1E0
E1E0
E3C0
E780
FF00
FF00
FF80
E7C0
E3C0
E1E0
E0F0
E0F0
E07C
ENDCHAR
STARTCHAR 03BB
ENCODING 955
SWIDTH 548 0
DWIDTH 16 0
BBX 16 21 0 0
BITMAP
3C00
3E00
3F00
0F00
0780
0780
0380
03C0
03C0
07C0
07E0
0FE0
0FF0
0EF0
1E70
1C78
3C78
3C3C
783F
781F
F00F
ENDCHAR
STARTCHAR 03BC
ENCODING 956
SWIDTH 617 0
DWIDTH 18 0
BBX 16 20 2 -5
BITMAP
E078
E078
E078
E078
E078
E078
E078
E078
E078
E078
F078
F0F8
FFBF
FFBF
EF1E
E000
E000
E000
E000
E000
ENDCHAR
STARTCHAR 03BD
ENCODING 957
SWIDTH 514 0
DWIDTH 15 0
BBX 15 15 0 0
BITMAP
F01E
701E
781C
783C
383C
3C38
1C38
1E70
1E70
0E70
0EE0
07C0
07C0
0780
0380
ENDCHAR
STARTCHAR 03BE
ENCODING 958
SWIDTH 411 0
DWIDTH 12 0
BBX 11 26 1 -5
BITMAP
FFE0
FFE0
FFC0
1C00
3800
7000
7000
7000
7800
3F80
1F80
7F80
7800
F000
F000
F000
F000
F800
7F00
3FC0
0FC0
03E0
01E0
01E0
01C0
00C0
ENDCHAR
STARTCHAR 03BF
ENCODING 959
SWIDTH 582 0
DWIDTH 17 0
BBX 15 15 1 0
BITMAP
0FC0
1FF0
3FF8
787C
F03C
F01C
F01E
F01E
F01E
F01C
F03C
787C
3FF8
1FF0
0FC0
ENDCHAR
STARTCHAR 03C0
ENCODING 960
SWIDTH 617 0
DWIDTH 18 0
BBX 17 15 1 0
BITMAP
FFFF80
FFFF80
FFFF00
1C1C00
1C1C00
1C3C00
1C3C00
1C3C00
3C3C00
3C3C00
383C00
783C00
F83F00
F01F00
E00F00
ENDCHAR
STARTCHAR 03C1
ENCODING 961
SWIDTH 582 0
DWIDTH 17 0
BBX 14 20 2 -5
BITMAP
1F80
3FE0
7FF0
F8F8
F078
E038
E038
E03C
E038
E038
E078
F0F8
FFF0
FFE0
E7C0
E000
E000
E000
E000
E000
ENDCHAR
STARTCHAR 03C2
ENCODING 962
SWIDTH 480 0
DWIDTH 14 0
BBX 12 20 1 -5
BITMAP
0FC0
3FE0
7FF0
7860
F000
F000
F000
F000
F000
F000
F800
7E00
3F80
1FE0
07F0
00F0
00F0
00F0
00E0
0060
ENDCHAR
STARTCHAR 03C3
ENCODING 963
SWIDTH 617 0
DWIDTH 18 0
BBX 17 15 1 0
BITMAP
07FF80
1FFF80
3FFF80
7C3800
F83C00
F01C00
F01E00
F01E00
F01E00
F01C00
F03C00
787C00
3FF800
1FF000
0FC000
ENDCHAR
STARTCHAR 03C4
ENCODING 964
SWIDTH 480 0
DWIDTH 14 0
BBX 14 15 0 0
BITMAP
FFFC
FFFC
FFF8
0700
0700
0700
0700
0700
0700
0700
0700
0700
07E0
07E0
03E0
ENDCHAR
STARTCHAR 03C5
ENCODING 965
SWIDTH 548 0
DWIDTH 16 0
BBX 13 15 2 0
BITMAP
E070
E070
E070
E078
E078
E078
E078
E078
E078
E078
E070
F0F0
FFE0
7FC0
1F80
ENDCHAR
STARTCHAR 03C6
ENCODING 966
SWIDTH 754 0
DWIDTH 22 0
BBX 20 20 1 -5
BITMAP
0C1F00
1C7FC0
3C7FE0
7871F0
70F0F0
F0F070
F0F070
F0F070
F0F070
F0F0F0
78F0F0
7CF3E0
3FFFC0
1FFF80
07FE00
00F000
00F000
00F000
00F000
00F000
ENDCHAR
STARTCHAR 03C7
ENCODING 967
SWIDTH 480 0
DWIDTH 14 0
BBX 15 20 0 -5
BITMAP
F01C
F83C
FC38
3C78
1C70
1E70
0EE0
0FE0
07C0
07C0
07C0
0FC0
0FC0
1FE0
1CE0
3CF0
3870
7878
703E
F01C
ENDCHAR
STARTCHAR 03C8
ENCODING 968
SWIDTH 788 0
DWIDTH 23 0
BBX 20 26 2 -5
BITMAP
00E000
00E000
00E000
00E000
00E000
00E000
E0E1E0
E0E1E0
E0E1E0
E0E0E0
E0E0E0
E0E0E0
E0E0F0
E0E0F0
E0E0E0
E0E0E0
F0E1E0
F8E3E0
7FFFC0
3FFF80
0FFE00
00E000
00E000
00E000
00E000
00E000
ENDCHAR
STARTCHAR 03C9
ENCODING 969
SWIDTH 788 0
DWIDTH 23 0
BBX 21 15 1 0
BITMAP
3800E0
7800F0
7800F0
700070
F00078
F07078
F07078
F07078
F07078
F07078
70F878
78F8F0
7FDFF0
3FDFE0
0F0780
ENDCHAR
STARTCHAR 03CA
ENCODING 970
SWIDTH 274 0
DWIDTH 8 0
BBX 10 21 -1 0
BITMAP
6380
F3C0
F3C0
6380
0000
0000
1C00
1C00
1C00
1C00
1C00
1C00
1C00
1C00
1C00
1C00
1C00
1C00
1F80
1F80
0780
ENDCHAR
STARTCHAR 03CB
ENCODING 971
SWIDTH 548 0
DWIDTH 16 0
BBX 13 21 2 0
BITMAP
31C0
79E0
79E0
31C0
0000
0000
E070
E070
E070
E078
E078
E078
E078
E078
E078
E078
E070
F0F0
FFE0
7FC0
1F80
ENDCHAR
STARTCHAR 03CC
ENCODING 972
SWIDTH 582 0
DWIDTH 17 0
BBX 15 21 1 0
BITMAP
01E0
01C0
01C0
0180
0180
0000
0FC0
1FF0
3FF8
787C
F03C
F01C
F01E
F01E
F01E
F01C
F03C
787C
3FF8
1FF0
0FC0
ENDCHAR
STARTCHAR 03CD
ENCODING 973
SWIDTH 548 0
DWIDTH 16 0
BBX 13 21 2 0
BITMAP
0780
0700
0700
0600
0600
0000
E070
E070
E070
E078
E078
E078
E078
E078
E078
E078
E070
F0F0
FFE0
7FC0
1F80
ENDCHAR
STARTCHAR 03CE
ENCODING 974
SWIDTH 788 0
DWIDTH 23 0
BBX 21 21 1 0
BITMAP
003C00
003800
003800
003000
003000
000000
3800E0
7800F0
7800F0
700070
F00078
F07078
F07078
F07078
F07078
F07078
70F878
78F8F0
7FDFF0
3FDFE0
0F0780
ENDCHAR
STARTCHAR 03D0
ENCODING 976
SWIDTH 582 0
DWIDTH 17 0
BBX 15 21 1 0
BITMAP
03E0
0FF8
1FF8
3E3C
383C
783C
7038
7070
71E0
FFF8
FFFC
F81C
F01E
F01E
701E
701E
783C
7C7C
3FF8
1FF0
07C0
ENDCHAR
STARTCHAR 03D1
ENCODING 977
SWIDTH 651 0
DWIDTH 19 0
BBX 18 21 1 0
BITMAP
03E000
0FF800
0FF800
1E3C00
1E1E00
0F0E00
0FFFC0
07FFC0
F0FF80
F80E00
F80E00
380E00
380E00
380E00
380E00
381E00
3C1C00
3C3C00
1FF800
1FF000
07E000
ENDCHAR
STARTCHAR 03D2
ENCODING 978
SWIDTH 651 0
DWIDTH 19 0
BBX 19 21 0 0
BITMAP
F803E0
FC07E0
FE0FE0
1F1F00
071C00
03B800
03B800
01B800
01F000
01F000
01F000
01F000
01F000
00F000
00F000
00E000
00E000
00E000
00E000
00E000
00E000
ENDCHAR
STARTCHAR 03D3
ENCODING 979
SWIDTH 651 0
DWIDTH 19 0
BBX 23 21 -4 0
BITMAP
FF803E
EFC07E
EFE0FE
C1F1F0
C071C0
003B80
003B80
001B80
001F00
001F00
001F00
001F00
001F00
000F00
000F00
000E00
000E00
000E00
000E00
000E00
000E00
ENDCHAR
STARTCHAR 03D4
ENCODING 980
SWIDTH 651 0
DWIDTH 19 0
BBX 19 26 0 0
BITMAP
070C00
071E00
079E00
070C00
000000
F803E0
FC07E0
FE0FE0
1F1F00
071C00
03B800
03B800
01B800
01F000
01F000
01F000
01F000
01F000
00F000
00F000
00E000
00E000
00E000
00E000
00E000
00E000
ENDCHAR
STARTCHAR 03D5
ENCODING 981
SWIDTH 754 0
DWIDTH 22 0
BBX 20 26 1 -5
BITMAP
007000
007000
007000
007000
007000
007000
07FE00
1FFF80
3FFFE0
7C73E0
7870F0
F070F0
F07070
F07070
F07070
F07070
7870F0
7C73E0
3FFFE0
1FFF80
07FE00
007000
007000
007000
007000
007000
ENDCHAR
STARTCHAR 03D6
ENCODING 982
SWIDTH 891 0
DWIDTH 26 0
BBX 26 15 0 0
BITMAP
7FFFFFC0
FFFFFFC0
FFFFFFC0
1E001E00
1E001E00
1C1E0E00
1C1E0E00
1C1E0F00
1C1E0E00
1C1E0E00
1E1E1E00
1F3F1E00
0FFFFC00
07F3F800
03E1F000
ENDCHAR
STARTCHAR 03D7
ENCODING 983
SWIDTH 617 0
DWIDTH 18 0
BBX 17 20 1 -5
BITMAP
F00C00
F81E00
FC1E00
3C3E00
3C7C00
3CFC00
39FC00
3BF800
3FB800
3F3800
7E3800
7C7800
F83C00
F03F80
601F80
000380
000380
001F80
003F00
003E00
ENDCHAR
STARTCHAR 03D8
ENCODING 984
SWIDTH 720 0
DWIDTH 21 0
BBX 19 21 1 0
BITMAP
03F800
0FFE00
3FFF00
3E0F80
7807C0
F803C0
F003C0
F001E0
F001E0
F003C0
F803C0
7807C0
7E0F80
3FFF80
1FFF00
07FC00
01E000
01E000
01E000
01E000
01E000
ENDCHAR
STARTCHAR 03D9
ENCODING 985
SWIDTH 582 0
DWIDTH 17 0
BBX 15 20 1 -5
BITMAP
0FC0
1FF0
3FF8
787C
703C
F01C
F01E
F01E
F01E
F01E
F01C
703C
7878
3FF8
1FF0
0380
0380
0380
0380
0380
ENDCHAR
STARTCHAR 03DA
ENCODING 986
SWIDTH 582 0
DWIDTH 17 0
BBX 16 28 1 -5
BITMAP
0002
0007
01FF
07FF
1FFC
3F00
3C00
7800
7800
F000
F000
F000
F000
F000
F000
7800
7C00
3E00
3F00
1FE0
0FFC
03FE
007E
001E
000E
000E
001E
0004
ENDCHAR
STARTCHAR 03DB
ENCODING 987
SWIDTH 480 0
DWIDTH 14 0
BBX 12 20 1 -4
BITMAP
0030
0FF0
3FF0
7FE0
7800
F000
F000
F000
F000
F000
F000
7C00
7F00
3FC0
0FE0
01F0
00F0
00F0
00E0
00E0
ENDCHAR
STARTCHAR 03DC
ENCODING 988
SWIDTH 582 0
DWIDTH 17 0
BBX 14 21 2 0
BITMAP
FFFC
FFFC
FFFC
F000
F000
F000
F000
F000
F000
FFE0
FFF0
FFF0
F038
F000
F000
F000
F000
F000
F000
F000
F000
ENDCHAR
STARTCHAR 03DD
ENCODING 989
SWIDTH 445 0
DWIDTH 13 0
BBX 11 20 2 -5
BITMAP
1FE0
3FE0
7FC0
F800
F000
E000
E000
E000
FF80
FFC0
FFC0
E0C0
E000
E000
E000
E000
E000
E000
E000
E000
ENDCHAR
STARTCHAR 03DE
ENCODING 990
SWIDTH 582 0
DWIDTH 17 0
BBX 17 21 0 0
BITMAP
078000
078000
0F0000
0F0000
1E0000
1E0000
3C0000
3C0000
3C0000
7FFF80
7FFF00
FFFF00
001E00
001E00
003C00
003C00
003800
007800
007800
00F000
00F000
ENDCHAR
STARTCHAR 03DF
ENCODING 991
SWIDTH 514 0
DWIDTH 15 0
BBX 15 20 0 -5
BITMAP
0780
0F00
0F00
0F00
1E00
1E00
3C00
3C00
3800
7FFE
7FFC
FFFC
0038
0078
0070
00F0
00E0
01E0
01E0
03C0
ENDCHAR
STARTCHAR 03E0
ENCODING 992
SWIDTH 720 0
DWIDTH 21 0
BBX 20 21 0 0
BITMAP
07F800
3FFF00
FFFF80
7C0FC0
201FE0
007FE0
00FDE0
03F0F0
0FC3F0
078FF0
061FF0
007EF0
01F8F0
01F0F0
00C0E0
0001E0
0001E0
0003C0
0003C0
000780
000700
ENDCHAR
STARTCHAR 03E1
ENCODING 993
SWIDTH 582 0
DWIDTH 17 0
BBX 16 20 0 -5
BITMAP
0FE0
3FF8
FFFC
F83E
607E
00FF
03EF
078F
1F1F
0E3F
08F7
01E7
07C7
038F
010E
000E
001E
003C
003C
0038
ENDCHAR
STARTCHAR 03E2
ENCODING 994
SWIDTH 1097 0
DWIDTH 32 0
BBX 27 27 2 -6
BITMAP
F00F01E0
F00F01E0
F00F01E0
F00F01E0
F00F01E0
F00F01E0
F00F01E0
F00F01E0
F00F01E0
F00F01E0
F00F01E0
F00F01E0
F00F01E0
F00F01E0
F00F01E0
F01F01E0
781F03E0
7C3F87E0
7FF3FEE0
3FE3FCE0
0FC0F8E0
000001E0
000003E0
01FFFFC0
03FFFF80
07FFFE00
06000000
ENDCHAR
STARTCHAR 03E3
ENCODING 995
SWIDTH 822 0
DWIDTH 24 0
BBX 21 21 2 -6
BITMAP
E0F078
E0F078
E0F078
E0F078
E0F078
E0F078
E0F078
E0F078
E0F078
E0F078
E0F078
F1F8F8
FFBFF8
7FBF78
3E1E70
000070
0000F0
07FFF0
0FFFE0
0FFF80
0C0000
ENDCHAR
STARTCHAR 03E4
ENCODING 996
SWIDTH 651 0
DWIDTH 19 0
BBX 16 21 1 0
BITMAP
1E0F
7E0F
7E0F
F80F
F00F
F00F
F00F
F00F
F00F
F00F
FE3F
7FFF
3FFF
030F
000F
000F
000F
000F
000F
000F
000F
ENDCHAR
STARTCHAR 03E5
ENCODING 997
SWIDTH 548 0
DWIDTH 16 0
BBX 14 20 1 -5
BITMAP
1E3C
7E3C
7E3C
F03C
F03C
F03C
F03C
F03C
F03C
F83C
7FFC
3FFC
1FFC
003C
003C
003C
003C
003C
003C
003C
ENDCHAR
STARTCHAR 03E6
ENCODING 998
SWIDTH 651 0
DWIDTH 19 0
BBX 16 27 2 -6
BITMAP
F000
F000
F000
F000
F000
F000
F000
F000
F7F0
FFFC
FFFE
F81E
F00F
F00F
F00F
F00F
F00F
F00F
F00F
F00F
F00F
000F
001E
1FFE
3FFC
3FF0
3000
ENDCHAR
STARTCHAR 03E7
ENCODING 999
SWIDTH 548 0
DWIDTH 16 0
BBX 15 15 0 0
BITMAP
0FCE
1FFE
3FFC
3C7C
3C7C
3FFC
1FFE
0F9E
001E
001E
3C1E
7F3C
7FFC
E3F8
E1F0
ENDCHAR
STARTCHAR 03E8
ENCODING 1000
SWIDTH 548 0
DWIDTH 16 0
BBX 14 21 1 0
BITMAP
0FC0
3FF0
7FF0
7878
7078
7078
7878
70F8
01F0
0FF0
3FC0
7F00
7C00
F800
F000
F000
F018
783C
7FFC
3FF8
0FE0
ENDCHAR
STARTCHAR 03E9
ENCODING 1001
SWIDTH 445 0
DWIDTH 13 0
BBX 12 15 1 0
BITMAP
1F00
3FC0
7FC0
71E0
71C0
71C0
0780
3F00
7C00
F000
E000
F0E0
FFF0
7FE0
1F80
ENDCHAR
STARTCHAR 03EA
ENCODING 1002
SWIDTH 685 0
DWIDTH 20 0
BBX 22 21 -1 0
BITMAP
1F03E0
1FCFE0
1FCFE0
03FF00
00FC00
00FC00
00FC00
00FC00
01FE00
01FE00
03CF00
03CF00
078780
070380
0F03C0
1E01E0
1E01E0
3C00F0
3FFFF0
7FFFF8
FFFFFC
ENDCHAR
STARTCHAR 03EB
ENCODING 1003
SWIDTH 548 0
DWIDTH 16 0
BBX 17 15 0 0
BITMAP
1C3C00
1F7C00
1FFC00
07E000
03C000
03E000
07E000
0F7000
0E7800
1E3800
1C1C00
381E00
7FFE00
7FFF00
FFFF80
ENDCHAR
STARTCHAR 03EC
ENCODING 1004
SWIDTH 720 0
DWIDTH 21 0
BBX 19 23 1 0
BITMAP
000080
0000C0
07FFC0
1FFFC0
3FFF80
3E0000
780000
780000
71F800
F7FF00
FFFF80
FE0FC0
F803C0
F801E0
F001E0
F001E0
7801E0
7801E0
7C03C0
3E07C0
1FFF80
0FFF00
03F800
ENDCHAR
STARTCHAR 03ED
ENCODING 1005
SWIDTH 582 0
DWIDTH 17 0
BBX 15 22 1 0
BITMAP
000C
07FC
1FF8
3FF8
3C00
7800
7000
73E0
77F0
7FF8
FC3C
F81E
F01E
F01E
701E
701E
701E
783C
3C7C
3FF8
1FF0
07C0
ENDCHAR
STARTCHAR 03EE
ENCODING 1006
SWIDTH 582 0
DWIDTH 17 0
BBX 16 21 0 0
BITMAP
03C0
03C0
03C0
03C0
3FFF
7FFF
FFFF
E3C0
03C0
03C0
03C0
03C0
03C0
03C0
03C0
03C0
03C0
03C0
03C0
03C0
03C0
ENDCHAR
STARTCHAR 03EF
ENCODING 1007
SWIDTH 480 0
DWIDTH 14 0
BBX 14 26 0 -5
BITMAP
0780
0780
0780
0780
0780
0780
7FFC
FFFC
FFFC
E780
0780
0780
0780
0780
0780
0780
0780
0780
0780
0780
0780
0780
0780
0780
0780
0780
ENDCHAR
STARTCHAR 03F0
ENCODING 1008
SWIDTH 582 0
DWIDTH 17 0
BBX 15 15 1 0
BITMAP
F00C
F81E
FC3E
3C3E
3C7C
38FC
39FC
3BF8
37B8
7F38
7E38
7C38
F83E
703E
201E
ENDCHAR
STARTCHAR 03F1
ENCODING 1009
SWIDTH 582 0
DWIDTH 17 0
BBX 14 21 2 -6
BITMAP
1F80
3FE0
7FF0
F8F8
F078
E038
E038
E03C
E03C
E038
E078
F0F8
FFF0
FFE0
E7C0
E000
F000
7FF0
7FF0
1FF8
0018
ENDCHAR
STARTCHAR 03F2
ENCODING 1010
SWIDTH 480 0
DWIDTH 14 0
BBX 13 15 1 0
BITMAP
0FC0
3FE0
7FF0
7820
F000
F000
F000
F000
F000
F000
F000
7870
7FF8
3FE0
0FC0
ENDCHAR
STARTCHAR 03F3
ENCODING 1011
SWIDTH 240 0
DWIDTH 7 0
BBX 7 26 -1 -5
BITMAP
1C
3E
3E
3E
1C
00
1C
1C
1C
1C
1C
1C
1C
1C
1C
1C
1C
1C
1C
1C
1C
1C
3C
FC
F8
F0
ENDCHAR
STARTCHAR 03F4
ENCODING 1012
SWIDTH 788 0
DWIDTH 23 0
BBX 21 21 1 0
BITMAP
01FC00
07FF00
0FFFC0
1F07E0
3C01F0
7C00F0
7800F8
F80078
F00078
FFFFF8
FFFFF8
FFFFF8
F00078
F00078
780078
7800F0
3C01F0
1F07E0
0FFFC0
07FF80
01FC00
ENDCHAR
STARTCHAR 03F5
ENCODING 1013
SWIDTH 480 0
DWIDTH 14 0
BBX 12 15 1 0
BITMAP
07F0
1FE0
3FE0
7800
F000
F000
FFE0
FFE0
FFE0
F000
F000
7800
3FF0
1FF0
0FE0
ENDCHAR
STARTCHAR 03F6
ENCODING 1014
SWIDTH 480 0
DWIDTH 14 0
BBX 12 15 1 0
BITMAP
FE00
FF80
FFC0
03E0
01E0
00E0
7FF0
7FF0
7FF0
00E0
01E0
03E0
FFC0
FF80
FE00
ENDCHAR
STARTCHAR 03F7
ENCODING 1015
SWIDTH 617 0
DWIDTH 18 0
BBX 15 21 2 0
BITMAP
F000
F000
F000
F000
FFE0
FFF8
FFFC
F03E
F01E
F01E
F01E
F01E
F01E
F03E
FFFC
FFF8
FFE0
F000
F000
F000
F000
ENDCHAR
STARTCHAR 03F8
ENCODING 1016
SWIDTH 548 0
DWIDTH 16 0
BBX 14 26 1 -5
BITMAP
3C00
7C00
7000
7000
7000
7000
71E0
77F8
7FF8
7C7C
783C
701C
701C
701C
701C
703C
703C
787C
7FF8
77F0
73E0
7000
7000
7000
F000
E000
ENDCHAR
STARTCHAR 03F9
ENCODING 1017
SWIDTH 651 0
DWIDTH 19 0
BBX 18 21 1 0
BITMAP
01FC00
07FF00
1FFFC0
3F0780
3C0100
780000
780000
F80000
F00000
F00000
F00000
F00000
F00000
F80000
780000
7C0000
3C0100
3F0780
1FFFC0
07FF00
01FC00
ENDCHAR
STARTCHAR 03FA
ENCODING 1018
SWIDTH 857 0
DWIDTH 25 0
BBX 21 21 2 0
BITMAP
F800F8
FC01F8
FC01F8
FE03F8
FF07F8
F78FF8
F7DF78
F3DE78
F1FC78
F0F878
F0F878
F07078
F00078
F00078
F00078
F00078
F00078
F00078
F00078
F00078
F00078
ENDCHAR
STARTCHAR 03FB
ENCODING 1019
SWIDTH 685 0
DWIDTH 20 0
BBX 16 20 2 -5
BITMAP
F81F
F83F
FC3F
FE7F
EFF7
E7E7
E7C7
E3C7
E187
E007
E007
E007
E007
E007
E007
E000
E000
E000
E000
E000
ENDCHAR
STARTCHAR 03FC
ENCODING 1020
SWIDTH 582 0
DWIDTH 17 0
BBX 16 20 0 -5
BITMAP
07E0
0FF8
1FFC
3E3E
3C1E
380E
380E
380F
380F
380E
381E
3C3E
3FFC
3FF8
39F0
3800
FE00
FE00
FE00
3800
ENDCHAR
STARTCHAR 03FD
ENCODING 1021
SWIDTH 651 0
DWIDTH 19 0
BBX 18 21 0 0
BITMAP
0FE000
3FF800
7FFE00
783F00
200F80
000780
000780
0003C0
0003C0
0003C0
0003C0
0003C0
0003C0
0003C0
0007C0
000780
200F80
783F00
FFFE00
3FFC00
0FE000
ENDCHAR
STARTCHAR 03FE
ENCODING 1022
SWIDTH 651 0
DWIDTH 19 0
BBX 18 21 1 0
BITMAP
01FC00
07FF00
1FFFC0
3F0780
3C0100
780000
780000
F80000
F07000
F07800
F07800
F07800
F07000
F80000
780000
7C0000
3C0100
3F0780
1FFFC0
07FF00
01FC00
ENDCHAR
STARTCHAR 03FF
ENCODING 1023
SWIDTH 651 0
DWIDTH 19 0
BBX 18 21 0 0
BITMAP
0FE000
3FF800
7FFE00
783F00
200F80
000780
000780
0003C0
0383C0
03C3C0
03C3C0
03C3C0
0383C0
0003C0
0007C0
000780
200F80
783F00
FFFE00
3FFC00
0FE000
ENDCHAR
STARTCHAR 0400
ENCODING 1024
SWIDTH 582 0
DWIDTH 17 0
BBX 14 27 2 0
BITMAP
7800
3E00
1E00
0F00
0780
0000
FFFC
FFFC
FFFC
F000
F000
F000
F000
F000
F000
FFF0
FFF0
FFF0
F000
F000
F000
F000
F000
F000
FFFC
FFFC
FFFC
ENDCHAR
STARTCHAR 0401
ENCODING 1025
SWIDTH 582 0
DWIDTH 17 0
BBX 14 26 2 0
BITMAP
3860
38F0
3CF0
3860
0000
FFFC
FFFC
FFFC
F000
F000
F000
F000
F000
F000
FFF0
FFF0
FFF0
F000
F000
F000
F000
F000
F000
FFFC
FFFC
FFFC
ENDCHAR
STARTCHAR 0402
ENCODING 1026
SWIDTH 754 0
DWIDTH 22 0
BBX 21 21 0 0
BITMAP
FFFF00
FFFF00
FFFF00
03C000
03C000
03C000
03C000
03C000
03C000
03FF80
03FFE0
03FFF0
03C0F8
03C078
03C038
03C038
03C078
03C0F8
03CFF0
03CFE0
03CF80
ENDCHAR
STARTCHAR 0403
ENCODING 1027
SWIDTH 548 0
DWIDTH 16 0
BBX 13 27 2 0
BITMAP
0078
01F0
01E0
03C0
0780
0000
FFF8
FFF8
FFF8
F000
F000
F000
F000
F000
F000
F000
F000
F000
F000
F000
F000
F000
F000
F000
F000
F000
F000
ENDCHAR
STARTCHAR 0404
ENCODING 1028
SWIDTH 651 0
DWIDTH 19 0
BBX 18 21 1 0
BITMAP
01FC00
07FF00
1FFFC0
3F0780
3C0100
7C0000
780000
F80000
F00000
FFFC00
FFFC00
FFFC00
F00000
F00000
780000
780000
3C0100
3F0780
1FFFC0
07FF00
01FC00
ENDCHAR
STARTCHAR 0405
ENCODING 1029
SWIDTH 548 0
DWIDTH 16 0
BBX 14 21 1 0
BITMAP
0FE0
1FF8
3FF8
7838
7000
7000
7000
7800
7F00
3FE0
1FF0
07F8
00FC
003C
003C
003C
603C
F078
FFF0
7FE0
1FC0
ENDCHAR
STARTCHAR 0406
ENCODING 1030
SWIDTH 308 0
DWIDTH 9 0
BBX 4 21 2 0
BITMAP
F0
F0
F0
F0
F0
F0
F0
F0
F0
F0
F0
F0
F0
F0
F0
F0
F0
F0
F0
F0
F0
ENDCHAR
STARTCHAR 0407
ENCODING 1031
SWIDTH 308 0
DWIDTH 9 0
BBX 10 26 0 0
BITMAP
E180
E3C0
F3C0
E180
0000
3C00
3C00
3C00
3C00
3C00
3C00
3C00
3C00
3C00
3C00
3C00
3C00
3C00
3C00
3C00
3C00
3C00
3C00
3C00
3C00
3C00
ENDCHAR
STARTCHAR 0408
ENCODING 1032
SWIDTH 411 0
DWIDTH 12 0
BBX 10 21 0 0
BITMAP
03C0
03C0
03C0
03C0
03C0
03C0
03C0
03C0
03C0
03C0
03C0
03C0
03C0
03C0
03C0
03C0
03C0
07C0
7F80
FF00
FC00
ENDCHAR
STARTCHAR 0409
ENCODING 1033
SWIDTH 1062 0
DWIDTH 31 0
BBX 30 21 0 0
BITMAP
03FFE000
03FFE000
03FFE000
03C1E000
0381E000
0381E000
0381E000
0781E000
0781E000
0781FFC0
0781FFF0
0781FFF8
0781E07C
0701E03C
0F01E03C
0F01E03C
1F01E03C
1E01E07C
FE01FFF8
FC01FFF0
F001FFC0
ENDCHAR
STARTCHAR 040A
ENCODING 1034
SWIDTH 1097 0
DWIDTH 32 0
BBX 29 21 2 0
BITMAP
F003C000
F003C000
F003C000
F003C000
F003C000
F003C000
F003C000
F003C000
F003C000
FFFFFF80
FFFFFFE0
FFFFFFF0
F003C0F8
F003C078
F003C078
F003C078
F003C078
F003C0F0
F003FFF0
F003FFE0
F003FF80
ENDCHAR
STARTCHAR 040B
ENCODING 1035
SWIDTH 754 0
DWIDTH 22 0
BBX 21 21 0 0
BITMAP
FFFF00
FFFF00
FFFF00
03C000
03C000
03C000
03C000
03C000
03DFC0
03FFE0
03FFF0
03C0F8
03C078
03C078
03C078
03C078
03C078
03C078
03C078
03C078
03C078
ENDCHAR
STARTCHAR 040C
ENCODING 1036
SWIDTH 685 0
DWIDTH 20 0
BBX 18 27 2 0
BITMAP
001E00
007C00
007800
00F000
01E000
000000
F007C0
F00F80
F00F00
F01E00
F03E00
F03C00
F07800
F0F800
F0F000
FFE000
FFE000
FFF000
F0F800
F07800
F07C00
F03E00
F01E00
F01F00
F00F80
F00780
F007C0
ENDCHAR
STARTCHAR 040D
ENCODING 1037
SWIDTH 754 0
DWIDTH 22 0
BBX 18 27 2 0
BITMAP
1E0000
0F8000
078000
03C000
01E000
000000
F003C0
F007C0
F007C0
F00FC0
F01FC0
F01FC0
F03FC0
F07BC0
F073C0
F0F3C0
F1E3C0
F1C3C0
F3C3C0
F383C0
F703C0
FF03C0
FE03C0
FC03C0
FC03C0
F803C0
F003C0
ENDCHAR
STARTCHAR 040E
ENCODING 1038
SWIDTH 651 0
DWIDTH 19 0
BBX 19 26 0 0
BITMAP
070E00
071C00
03FC00
01F800
000000
F801E0
7803C0
7C03C0
3C0780
3E0780
1E0F00
0F0F00
0F1E00
079E00
07BC00
03FC00
03FC00
01F800
00F800
00F000
00F000
01E000
03E000
0FC000
0F8000
0F0000
ENDCHAR
STARTCHAR 040F
ENCODING 1039
SWIDTH 754 0
DWIDTH 22 0
BBX 17 26 2 -5
BITMAP
F00780
F00780
F00780
F00780
F00780
F00780
F00780
F00780
F00780
F00780
F00780
F00780
F00780
F00780
F00780
F00780
F00780
F00780
FFFF80
FFFF80
FFFF80
01E000
01E000
01E000
01E000
01C000
ENDCHAR
STARTCHAR 0410
ENCODING 1040
SWIDTH 685 0
DWIDTH 20 0
BBX 20 21 0 0
BITMAP
00F000
01F800
01F800
01F800
03FC00
039C00
079E00
079E00
070E00
0F0F00
0F0F00
0E0780
1E0780
1FFF80
3FFFC0
3FFFC0
3C01C0
7801E0
7801E0
F000F0
F000F0
ENDCHAR
STARTCHAR 0411
ENCODING 1041
SWIDTH 617 0
DWIDTH 18 0
BBX 15 21 2 0
BITMAP
FFFE
FFFE
FFFE
F000
F000
F000
F000
F000
F000
FFE0
FFF8
FFFC
F03E
F01E
F01E
F01E
F01E
F03E
FFFC
FFF8
FFE0
ENDCHAR
STARTCHAR 0412
ENCODING 1042
SWIDTH 651 0
DWIDTH 19 0
BBX 16 21 2 0
BITMAP
FFE0
FFF8
FFFC
F03E
F01E
F01E
F01E
F01E
F03C
FFF8
FFF8
FFFC
F01E
F00F
F00F
F00F
F00F
F01E
FFFE
FFFC
FFF0
ENDCHAR
STARTCHAR 0413
ENCODING 1043
SWIDTH 548 0
DWIDTH 16 0
BBX 13 21 2 0
BITMAP
FFF8
FFF8
FFF8
F000
F000
F000
F000
F000
F000
F000
F000
F000
F000
F000
F000
F000
F000
F000
F000
F000
F000
ENDCHAR
STARTCHAR 0414
ENCODING 1044
SWIDTH 788 0
DWIDTH 23 0
BBX 23 26 0 -5
BITMAP
03FFF0
03FFF0
03FFF0
03C0F0
03C0F0
03C0F0
03C0F0
03C0F0
0380F0
0380F0
0780F0
0780F0
0780F0
0780F0
0700F0
0F00F0
0F00F0
1E00F0
FFFFFE
FFFFFE
FFFFFE
F0001E
F0001E
F0001E
F0001E
F0001E
ENDCHAR
STARTCHAR 0415
ENCODING 1045
SWIDTH 582 0
DWIDTH 17 0
BBX 14 21 2 0
BITMAP
FFFC
FFFC
FFFC
F000
F000
F000
F000
F000
F000
FFF0
FFF0
FFF0
F000
F000
F000
F000
F000
F000
FFFC
FFFC
FFFC
ENDCHAR
STARTCHAR 0416
ENCODING 1046
SWIDTH 1062 0
DWIDTH 31 0
BBX 31 21 0 0
BITMAP
7803803C
3C038078
3C0380F8
1E0380F0
0F0381E0
0F0381E0
078383C0
07C38780
03C38780
01FFFF00
01FFFF00
03FFFF80
07C387C0
078383C0
0F0381E0
1F0381E0
1E0380F0
3E0380F8
3C038078
7803803C
F003801E
ENDCHAR
STARTCHAR 0417
ENCODING 1047
SWIDTH 582 0
DWIDTH 17 0
BBX 16 21 0 0
BITMAP
0FE0
3FF8
7FFC
383E
001E
001E
001E
003E
07FC
07F0
07FC
003E
001E
000F
000F
000F
701E
783E
FFFC
3FF8
0FE0
ENDCHAR
STARTCHAR 0418
ENCODING 1048
SWIDTH 754 0
DWIDTH 22 0
BBX 18 21 2 0
BITMAP
F003C0
F007C0
F007C0
F00FC0
F01FC0
F01FC0
F03FC0
F07BC0
F073C0
F0F3C0
F1E3C0
F1C3C0
F3C3C0
F383C0
F703C0
FF03C0
FE03C0
FC03C0
FC03C0
F803C0
F003C0
ENDCHAR
STARTCHAR 0419
ENCODING 1049
SWIDTH 754 0
DWIDTH 22 0
BBX 18 26 2 0
BITMAP
070E00
071C00
03FC00
01F800
000000
F003C0
F007C0
F007C0
F00FC0
F01FC0
F01FC0
F03FC0
F07BC0
F073C0
F0F3C0
F1E3C0
F1C3C0
F3C3C0
F383C0
F703C0
FF03C0
FE03C0
FC03C0
FC03C0
F803C0
F003C0
ENDCHAR
STARTCHAR 041A
ENCODING 1050
SWIDTH 685 0
DWIDTH 20 0
BBX 18 21 2 0
BITMAP
F007C0
F00F80
F00F00
F01E00
F03E00
F03C00
F07800
F0F800
F0F000
FFE000
FFE000
FFF000
F0F800
F07800
F07C00
F03E00
F01E00
F01F00
F00F80
F00780
F007C0
ENDCHAR
STARTCHAR 041B
ENCODING 1051
SWIDTH 754 0
DWIDTH 22 0
BBX 19 21 0 0
BITMAP
03FFE0
03FFE0
03FFE0
03C1E0
0381E0
0381E0
0381E0
0781E0
0781E0
0781E0
0781E0
0781E0
0781E0
0701E0
0F01E0
0F01E0
1F01E0
1E01E0
FE01E0
FC01E0
F001E0
ENDCHAR
STARTCHAR 041C
ENCODING 1052
SWIDTH 925 0
DWIDTH 27 0
BBX 23 21 2 0
BITMAP
F8001E
F8003E
FC003E
FC007E
FE007E
FE00FE
FF00EE
F701EE
F781CE
F383CE
F3C38E
F1C78E
F1EF0E
F0EF0E
F0FE0E
F07E0E
F07C0E
F0380E
F0000E
F0000E
F0000E
ENDCHAR
STARTCHAR 041D
ENCODING 1053
SWIDTH 754 0
DWIDTH 22 0
BBX 18 21 2 0
BITMAP
F003C0
F003C0
F003C0
F003C0
F003C0
F003C0
F003C0
F003C0
F003C0
FFFFC0
FFFFC0
FFFFC0
F003C0
F003C0
F003C0
F003C0
F003C0
F003C0
F003C0
F003C0
F003C0
ENDCHAR
STARTCHAR 041E
ENCODING 1054
SWIDTH 788 0
DWIDTH 23 0
BBX 21 21 1 0
BITMAP
01FC00
07FF00
0FFFC0
1F07E0
3C01F0
7800F0
780078
F00078
F00078
F00078
F00078
F00078
F00078
F00078
780078
7800F0
3C01F0
1F07E0
0FFFC0
07FF80
01FC00
ENDCHAR
STARTCHAR 041F
ENCODING 1055
SWIDTH 754 0
DWIDTH 22 0
BBX 17 21 2 0
BITMAP
FFFF80
FFFF80
FFFF80
F00780
F00780
F00780
F00780
F00780
F00780
F00780
F00780
F00780
F00780
F00780
F00780
F00780
F00780
F00780
F00780
F00780
F00780
ENDCHAR
STARTCHAR 0420
ENCODING 1056
SWIDTH 617 0
DWIDTH 18 0
BBX 15 21 2 0
BITMAP
FFE0
FFF8
FFFC
F07E
F01E
F01E
F01E
F01E
F01E
F01E
F07C
FFFC
FFF8
FFE0
F000
F000
F000
F000
F000
F000
F000
ENDCHAR
STARTCHAR 0421
ENCODING 1057
SWIDTH 651 0
DWIDTH 19 0
BBX 18 21 1 0
BITMAP
01FC00
07FF00
1FFFC0
3F0780
3C0100
780000
780000
F80000
F00000
F00000
F00000
F00000
F00000
F80000
780000
7C0000
3C0100
3F0780
1FFFC0
07FF00
01FC00
ENDCHAR
STARTCHAR 0422
ENCODING 1058
SWIDTH 582 0
DWIDTH 17 0
BBX 17 21 0 0
BITMAP
FFFF80
FFFF80
FFFF80
01E000
01E000
01E000
01E000
01E000
01E000
01E000
01E000
01E000
01E000
01E000
01E000
01E000
01E000
01E000
01E000
01E000
01E000
ENDCHAR
STARTCHAR 0423
ENCODING 1059
SWIDTH 651 0
DWIDTH 19 0
BBX 19 21 0 0
BITMAP
F801E0
7803C0
7C03C0
3C0780
3E0780
1E0F00
0F0F00
0F1E00
079E00
07BC00
03FC00
03FC00
01F800
00F800
00F000
00F000
01E000
03E000
0FC000
0F8000
0F0000
ENDCHAR
STARTCHAR 0424
ENCODING 1060
SWIDTH 788 0
DWIDTH 23 0
BBX 21 22 1 0
BITMAP
007800
007800
007800
03FF00
0FFFC0
3FFFE0
3E79F0
7878F0
F87878
F07878
F07878
F07838
F07878
F07878
F87878
7878F0
3E79F0
3FFFE0
0FFFC0
03FF00
007800
007800
ENDCHAR
STARTCHAR 0425
ENCODING 1061
SWIDTH 651 0
DWIDTH 19 0
BBX 19 21 0 0
BITMAP
F801E0
7C03C0
3C07C0
1E0780
1F0F00
0F0F00
079E00
07BC00
03FC00
03F800
01F800
03F800
03FC00
07BE00
0F1E00
0F0F00
1E0F00
3C0780
3C07C0
7803C0
F801E0
ENDCHAR
STARTCHAR 0426
ENCODING 1062
SWIDTH 788 0
DWIDTH 23 0
BBX 20 26 2 -5
BITMAP
F00780
F00780
F00780
F00780
F00780
F00780
F00780
F00780
F00780
F00780
F00780
F00780
F00780
F00780
F00780
F00780
F00780
F00780
FFFFF0
FFFFF0
FFFFF0
000070
000070
000070
000070
000070
ENDCHAR
STARTCHAR 0427
ENCODING 1063
SWIDTH 685 0
DWIDTH 20 0
BBX 16 21 1 0
BITMAP
F00F
F00F
F00F
F00F
F00F
F00F
F00F
F00F
F00F
7C0F
7FFF
3FFF
1FEF
000F
000F
000F
000F
000F
000F
000F
000F
ENDCHAR
STARTCHAR 0428
ENCODING 1064
SWIDTH 1062 0
DWIDTH 31 0
BBX 27 21 2 0
BITMAP
F00F01E0
F00F01E0
F00F01E0
F00F01E0
F00F01E0
F00F01E0
F00F01E0
F00F01E0
F00F01E0
F00F01E0
F00F01E0
F00F01E0
F00F01E0
F00F01E0
F00F01E0
F00F01E0
F00F01E0
F00F01E0
FFFFFFE0
FFFFFFE0
FFFFFFE0
ENDCHAR
STARTCHAR 0429
ENCODING 1065
SWIDTH 1131 0
DWIDTH 33 0
BBX 30 26 2 -5
BITMAP
F00F01E0
F00F01E0
F00F01E0
F00F01E0
F00F01E0
F00F01E0
F00F01E0
F00F01E0
F00F01E0
F00F01E0
F00F01E0
F00F01E0
F00F01E0
F00F01E0
F00F01E0
F00F01E0
F00F01E0
F00F01E0
FFFFFFFC
FFFFFFFC
FFFFFFFC
0000001C
0000001C
0000001C
0000001C
0000001C
ENDCHAR
STARTCHAR 042A
ENCODING 1066
SWIDTH 754 0
DWIDTH 22 0
BBX 21 21 0 0
BITMAP
FFC000
FFC000
FFC000
03C000
03C000
03C000
03C000
03C000
03C000
03FF80
03FFE0
03FFF0
03C0F8
03C078
03C078
03C078
03C078
03C0F8
03FFF0
03FFE0
03FF80
ENDCHAR
STARTCHAR 042B
ENCODING 1067
SWIDTH 925 0
DWIDTH 27 0
BBX 22 21 2 0
BITMAP
F0003C
F0003C
F0003C
F0003C
F0003C
F0003C
F0003C
F0003C
F0003C
FFE03C
FFF83C
FFFC3C
F03E3C
F01E3C
F01E3C
F01E3C
F01E3C
F03E3C
FFFC3C
FFF83C
FFE03C
ENDCHAR
STARTCHAR 042C
ENCODING 1068
SWIDTH 617 0
DWIDTH 18 0
BBX 15 21 2 0
BITMAP
F000
F000
F000
F000
F000
F000
F000
F000
F000
FFE0
FFF8
FFFC
F03E
F01E
F01E
F01E
F01E
F03E
FFFC
FFF8
FFE0
ENDCHAR
STARTCHAR 042D
ENCODING 1069
SWIDTH 651 0
DWIDTH 19 0
BBX 17 21 1 0
BITMAP
1FC000
7FF800
FFFC00
F07E00
601F00
000F00
000F80
000780
000780
1FFF80
1FFF80
1FFF80
000780
000780
000F80
000F00
401F00
F07E00
FFFC00
7FF800
1FE000
ENDCHAR
STARTCHAR 042E
ENCODING 1070
SWIDTH 1062 0
DWIDTH 31 0
BBX 28 21 2 0
BITMAP
F001F800
F00FFE00
F01FFF80
F03E0FC0
F07C03C0
F07801E0
F07801E0
F0F001E0
F0F000F0
FFF000F0
FFF000F0
FFF000F0
F0F000F0
F0F001E0
F07801E0
F07801E0
F07C03C0
F03E0FC0
F01FFF80
F00FFE00
F001F800
ENDCHAR
STARTCHAR 042F
ENCODING 1071
SWIDTH 685 0
DWIDTH 20 0
BBX 17 21 0 0
BITMAP
01FF80
07FF80
1FFF80
1E0780
3C0780
3C0780
3C0780
3C0780
1E0780
0FFF80
07FF80
01FF80
07C780
078780
0F0780
1F0780
1E0780
3C0780
7C0780
780780
F00780
ENDCHAR
STARTCHAR 0430
ENCODING 1072
SWIDTH 514 0
DWIDTH 15 0
BBX 12 15 1 0
BITMAP
0F80
3FE0
FFE0
70F0
00F0
0070
0070
0FF0
7FF0
F870
E070
E070
F1F0
FFF0
3E70
ENDCHAR
STARTCHAR 0431
ENCODING 1073
SWIDTH 582 0
DWIDTH 17 0
BBX 15 21 1 0
BITMAP
03FC
0FFC
1FFC
3C00
3800
7000
73E0
77F8
FFFC
FC3C
F81E
F01E
F01E
F01E
701E
701E
781E
3C3C
3FFC
1FF8
07E0
ENDCHAR
STARTCHAR 0432
ENCODING 1074
SWIDTH 514 0
DWIDTH 15 0
BBX 12 15 2 0
BITMAP
FF80
FFC0
FFE0
E1E0
E0E0
E1C0
FF80
FFC0
E0E0
E0E0
E0F0
E0E0
FFE0
FFC0
FF80
ENDCHAR
STARTCHAR 0433
ENCODING 1075
SWIDTH 411 0
DWIDTH 12 0
BBX 10 15 2 0
BITMAP
FFC0
FFC0
FFC0
E000
E000
E000
E000
E000
E000
E000
E000
E000
E000
E000
E000
ENDCHAR
STARTCHAR 0434
ENCODING 1076
SWIDTH 617 0
DWIDTH 18 0
BBX 18 20 0 -5
BITMAP
07FE00
07FE00
07FE00
070E00
070E00
070E00
0F0E00
0E0E00
0E0E00
0E0E00
1E0E00
3C0E00
FFFFC0
FFFFC0
FFFFC0
F001C0
F001C0
F001C0
F001C0
E001C0
ENDCHAR
STARTCHAR 0435
ENCODING 1077
SWIDTH 514 0
DWIDTH 15 0
BBX 14 15 1 0
BITMAP
0FC0
1FE0
3FF0
7878
F038
F038
FFFC
FFF8
F000
F000
F000
7838
3FF8
1FF0
0FC0
ENDCHAR
STARTCHAR 0436
ENCODING 1078
SWIDTH 822 0
DWIDTH 24 0
BBX 23 15 0 0
BITMAP
783C1E
383C3C
3C3C3C
1E3C78
1E3C70
0F3CF0
07FFE0
07FFE0
0FFFF0
1F3CF0
1E3C78
3C3C78
3C3C3C
783C1E
F03C1E
ENDCHAR
STARTCHAR 0437
ENCODING 1079
SWIDTH 445 0
DWIDTH 13 0
BBX 11 15 1 0
BITMAP
3F00
FFC0
FFC0
61E0
01E0
01C0
1FC0
1F80
1FC0
01E0
00E0
E1E0
FFE0
7FC0
3F00
ENDCHAR
STARTCHAR 0438
ENCODING 1080
SWIDTH 582 0
DWIDTH 17 0
BBX 13 15 2 0
BITMAP
E038
E078
E078
E0F8
E1F8
E3B8
E3B8
E738
EE38
EC38
FC38
F838
F038
F038
E038
ENDCHAR
STARTCHAR 0439
ENCODING 1081
SWIDTH 582 0
DWIDTH 17 0
BBX 13 21 2 0
BITMAP
3870
38E0
1FE0
0FC0
0000
0000
E038
E078
E078
E0F8
E1F8
E3B8
E3B8
E738
EE38
EC38
FC38
F838
F038
F038
E038
ENDCHAR
STARTCHAR 043A
ENCODING 1082
SWIDTH 548 0
DWIDTH 16 0
BBX 14 15 2 0
BITMAP
E078
E0F0
E0F0
E1E0
E3C0
E3C0
FF80
FF80
FFC0
E3C0
E1E0
E1F0
E0F0
E078
E07C
ENDCHAR
STARTCHAR 043B
ENCODING 1083
SWIDTH 582 0
DWIDTH 17 0
BBX 16 15 0 0
BITMAP
07FF
07FF
07FF
070F
070F
070F
070F
0F0F
0F0F
0E0F
1E0F
3E0F
FC0F
F80F
F00F
ENDCHAR
STARTCHAR 043C
ENCODING 1084
SWIDTH 720 0
DWIDTH 21 0
BBX 17 15 2 0
BITMAP
F00780
F00F80
F80F80
FC1F80
FC1F80
FE3B80
EE3B80
EF7380
E77380
E3E380
E3E380
E1C380
E1C380
E00380
E00380
ENDCHAR
STARTCHAR 043D
ENCODING 1085
SWIDTH 582 0
DWIDTH 17 0
BBX 13 15 2 0
BITMAP
E078
E078
E078
E078
E078
E078
FFF8
FFF8
FFF8
E078
E078
E078
E078
E078
E078
ENDCHAR
STARTCHAR 043E
ENCODING 1086
SWIDTH 582 0
DWIDTH 17 0
BBX 15 15 1 0
BITMAP
0FC0
1FF0
3FF8
787C
F03C
F01C
F01E
F01E
F01E
F01C
F03C
787C
3FF8
1FF0
0FC0
ENDCHAR
STARTCHAR 043F
ENCODING 1087
SWIDTH 582 0
DWIDTH 17 0
BBX 13 15 2 0
BITMAP
FFF8
FFF8
FFF8
E078
E078
E078
E078
E078
E078
E078
E078
E078
E078
E078
E078
ENDCHAR
STARTCHAR 0440
ENCODING 1088
SWIDTH 548 0
DWIDTH 16 0
BBX 13 20 2 -5
BITMAP
E7C0
EFF0
FFF0
F8F8
F078
E038
E038
E038
E038
E078
E078
F0F8
FFF0
FFE0
E7C0
E000
E000
E000
E000
E000
ENDCHAR
STARTCHAR 0441
ENCODING 1089
SWIDTH 480 0
DWIDTH 14 0
BBX 13 15 1 0
BITMAP
0FC0
3FE0
7FF0
7820
F000
F000
F000
F000
F000
F000
F000
7870
7FF8
3FE0
0FC0
ENDCHAR
STARTCHAR 0442
ENCODING 1090
SWIDTH 514 0
DWIDTH 15 0
BBX 15 15 0 0
BITMAP
FFFE
FFFE
FFFE
0380
0380
0380
0380
0380
0380
0380
0380
0380
0380
0380
0380
ENDCHAR
STARTCHAR 0443
ENCODING 1091
SWIDTH 514 0
DWIDTH 15 0
BBX 15 20 0 -5
BITMAP
F00E
781E
781C
383C
3C38
3C38
1E78
1E70
0EF0
0FE0
07E0
07C0
07C0
03C0
0380
0780
0700
0F00
0E00
1E00
ENDCHAR
STARTCHAR 0444
ENCODING 1092
SWIDTH 720 0
DWIDTH 21 0
BBX 19 26 1 -5
BITMAP
00E000
00E000
00E000
00E000
00E000
00E000
07FC00
1FFF00
3FFF80
78E3C0
F0E1E0
F0E1E0
F0E0E0
F0E0E0
F0E0E0
F0E1E0
F0E1E0
78E3C0
3FFF80
1FFF00
07FC00
00E000
00E000
00E000
00E000
00E000
ENDCHAR
STARTCHAR 0445
ENCODING 1093
SWIDTH 514 0
DWIDTH 15 0
BBX 15 15 0 0
BITMAP
F81E
783C
3C38
1C70
1EF0
0FE0
07C0
07C0
0FE0
0EE0
1EF0
3C78
3878
783C
F01E
ENDCHAR
STARTCHAR 0446
ENCODING 1094
SWIDTH 617 0
DWIDTH 18 0
BBX 15 20 2 -5
BITMAP
E078
E078
E078
E078
E078
E078
E078
E078
E078
E078
E078
E078
FFFE
FFFE
FFFE
000E
000E
000E
000E
000E
ENDCHAR
STARTCHAR 0447
ENCODING 1095
SWIDTH 514 0
DWIDTH 15 0
BBX 13 15 1 0
BITMAP
F078
F078
F078
F078
F078
F078
F078
FFF8
7FF8
3FF8
0078
0078
0078
0078
0078
ENDCHAR
STARTCHAR 0448
ENCODING 1096
SWIDTH 822 0
DWIDTH 24 0
BBX 20 15 2 0
BITMAP
E0F070
E0F070
E0F070
E0F070
E0F070
E0F070
E0F070
E0F070
E0F070
E0F070
E0F070
E0F070
FFFFF0
FFFFF0
FFFFF0
ENDCHAR
STARTCHAR 0449
ENCODING 1097
SWIDTH 891 0
DWIDTH 26 0
BBX 23 20 2 -5
BITMAP
E0F070
E0F070
E0F070
E0F070
E0F070
E0F070
E0F070
E0F070
E0F070
E0F070
E0F070
E0F070
FFFFFE
FFFFFE
FFFFFE
00000E
00000E
00000E
00000E
00000E
ENDCHAR
STARTCHAR 044A
ENCODING 1098
SWIDTH 582 0
DWIDTH 17 0
BBX 17 15 0 0
BITMAP
FF0000
FF0000
FF0000
070000
070000
07FC00
07FE00
07FF00
070700
070780
070780
070700
07FF00
07FE00
07FC00
ENDCHAR
STARTCHAR 044B
ENCODING 1099
SWIDTH 754 0
DWIDTH 22 0
BBX 18 15 2 0
BITMAP
E003C0
E003C0
E003C0
E003C0
E003C0
FF83C0
FFC3C0
FFE3C0
E0E3C0
E0E3C0
E0E3C0
E0E3C0
FFE3C0
FFC3C0
FF83C0
ENDCHAR
STARTCHAR 044C
ENCODING 1100
SWIDTH 480 0
DWIDTH 14 0
BBX 11 15 2 0
BITMAP
E000
E000
E000
E000
E000
FF80
FFC0
FFE0
E0E0
E0E0
E0E0
E0E0
FFE0
FFC0
FF80
ENDCHAR
STARTCHAR 044D
ENCODING 1101
SWIDTH 480 0
DWIDTH 14 0
BBX 12 15 1 0
BITMAP
3F00
FFC0
FFE0
41E0
00F0
00F0
3FF0
3FF0
3FF0
00F0
00F0
C1E0
FFE0
7FC0
1F00
ENDCHAR
STARTCHAR 044E
ENCODING 1102
SWIDTH 788 0
DWIDTH 23 0
BBX 20 15 2 0
BITMAP
E03F00
E07FC0
E0FFE0
E1E1E0
E1C0F0
E3C0F0
FFC070
FFC070
FFC070
E3C0F0
E1C0F0
E1E1E0
E0FFE0
E07FC0
E03F00
ENDCHAR
STARTCHAR 044F
ENCODING 1103
SWIDTH 514 0
DWIDTH 15 0
BBX 13 15 0 0
BITMAP
0FF8
1FF8
3FF8
3C38
3838
3838
3C38
1FF8
07F8
0F38
1E38
3C38
3C38
7838
F038
ENDCHAR
STARTCHAR 0450
ENCODING 1104
SWIDTH 514 0
DWIDTH 15 0
BBX 14 21 1 0
BITMAP
3E00
0E00
0F00
0700
0080
0000
0FC0
1FE0
3FF0
7878
F038
F038
FFFC
FFF8
F000
F000
F000
7838
3FF8
1FF0
0FC0
ENDCHAR
STARTCHAR 0451
ENCODING 1105
SWIDTH 514 0
DWIDTH 15 0
BBX 14 21 1 0
BITMAP
18E0
3CF0
3CF0
18E0
0000
0000
0FC0
1FE0
3FF0
7878
F038
F038
FFFC
FFF8
F000
F000
F000
7838
3FF8
1FF0
0FC0
ENDCHAR
STARTCHAR 0452
ENCODING 1106
SWIDTH 548 0
DWIDTH 16 0
BBX 16 26 -1 -5
BITMAP
1C00
1C00
1C00
FFE0
FFE0
FFE0
1C00
1CF8
1DFC
1FFE
1F1F
1C0F
1C0F
1C0F
1C0F
1C0F
1C0F
1C0F
1C0E
1C0E
1C1E
001E
001C
003C
0038
0008
ENDCHAR
STARTCHAR 0453
ENCODING 1107
SWIDTH 411 0
DWIDTH 12 0
BBX 10 21 2 0
BITMAP
07C0
0700
0F00
1E00
0000
0000
FFC0
FFC0
FFC0
E000
E000
E000
E000
E000
E000
E000
E000
E000
E000
E000
E000
ENDCHAR
STARTCHAR 0454
ENCODING 1108
SWIDTH 480 0
DWIDTH 14 0
BBX 13 15 1 0
BITMAP
0FC0
3FE0
7FF0
7820
F000
F000
FFC0
FFC0
FFC0
F000
F000
7830
7FF8
3FE0
0FC0
ENDCHAR
STARTCHAR 0455
ENCODING 1109
SWIDTH 445 0
DWIDTH 13 0
BBX 11 15 1 0
BITMAP
1F00
7FC0
7FE0
F0C0
F000
F000
7E00
3F80
07C0
01E0
01E0
E1E0
FFC0
FFC0
3F00
ENDCHAR
STARTCHAR 0456
ENCODING 1110
SWIDTH 240 0
DWIDTH 7 0
BBX 5 21 1 0
BITMAP
70
78
F8
78
70
00
70
70
70
70
70
70
70
70
70
70
70
70
70
70
70
ENDCHAR
STARTCHAR 0457
ENCODING 1111
SWIDTH 240 0
DWIDTH 7 0
BBX 9 21 -1 0
BITMAP
7380
F780
F780
7380
0000
0000
1C00
1C00
1C00
1C00
1C00
1C00
1C00
1C00
1C00
1C00
1C00
1C00
1C00
1C00
1C00
ENDCHAR
STARTCHAR 0458
ENCODING 1112
SWIDTH 240 0
DWIDTH 7 0
BBX 7 26 -1 -5
BITMAP
1C
1E
3E
1E
1C
00
1C
1C
1C
1C
1C
1C
1C
1C
1C
1C
1C
1C
1C
1C
1C
1C
1C
FC
FC
F0
ENDCHAR
STARTCHAR 0459
ENCODING 1113
SWIDTH 822 0
DWIDTH 24 0
BBX 24 15 0 0
BITMAP
07FF00
07FF00
07FF00
070F00
070F00
070FF8
070FFE
0F0FFE
0F0F0F
0E0F07
1E0F07
3E0F0F
FC0FFE
F80FFC
F00FF8
ENDCHAR
STARTCHAR 045A
ENCODING 1114
SWIDTH 822 0
DWIDTH 24 0
BBX 21 15 2 0
BITMAP
E07800
E07800
E07800
E07800
E07800
FFFFC0
FFFFF0
FFFFF0
E07878
E07838
E07838
E07878
E07FF0
E07FF0
E07FC0
ENDCHAR
STARTCHAR 045B
ENCODING 1115
SWIDTH 548 0
DWIDTH 16 0
BBX 15 21 0 0
BITMAP
3800
3800
3800
FF80
FF80
3800
39F0
3BF8
3FFC
3E3C
381E
381E
381E
381E
381E
381E
381E
381E
381E
381E
381E
ENDCHAR
STARTCHAR 045C
ENCODING 1116
SWIDTH 548 0
DWIDTH 16 0
BBX 14 21 2 0
BITMAP
03E0
0380
0780
0F00
0000
0000
E078
E0F0
E0F0
E1E0
E3C0
E3C0
FF80
FF80
FFC0
E3C0
E1E0
E1F0
E0F0
E078
E07C
ENDCHAR
STARTCHAR 045D
ENCODING 1117
SWIDTH 582 0
DWIDTH 17 0
BBX 13 21 2 0
BITMAP
3E00
0E00
0F00
0700
0080
0000
E038
E078
E078
E0F8
E1F8
E3B8
E3B8
E738
EE38
EC38
FC38
F838
F038
F038
E038
ENDCHAR
STARTCHAR 045E
ENCODING 1118
SWIDTH 514 0
DWIDTH 15 0
BBX 15 26 0 -5
BITMAP
1C38
1C70
0FF0
07E0
0000
0000
F00E
781E
781C
383C
3C38
3C38
1E78
1E70
0EF0
0FE0
07E0
07C0
07C0
03C0
0380
0780
0700
0F00
0E00
1E00
ENDCHAR
STARTCHAR 045F
ENCODING 1119
SWIDTH 582 0
DWIDTH 17 0
BBX 13 20 2 -5
BITMAP
E078
E078
E078
E078
E078
E078
E078
E078
E078
E078
E078
E078
FFF8
FFF8
FFF8
0700
0700
0700
0700
0700
ENDCHAR
STARTCHAR 0460
ENCODING 1120
SWIDTH 1062 0
DWIDTH 31 0
BBX 29 21 1 0
BITMAP
07E03F00
1FF8FFC0
3FF07FE0
3C3061E0
780000F0
780000F0
78000078
F0000078
F0000078
F0000078
F0078078
F0078078
F0078078
F0078078
78078078
780780F0
7C0F80F0
3E1FC1E0
1FFFFFE0
0FFCFFC0
03F03F00
ENDCHAR
STARTCHAR 0461
ENCODING 1121
SWIDTH 788 0
DWIDTH 23 0
BBX 20 15 1 0
BITMAP
F070F0
F07070
F07070
F07070
F07070
F07070
F07070
70F070
70F8F0
78F8F0
79F9E0
3FDDE0
3F8FC0
1F0FC0
0F0780
ENDCHAR
STARTCHAR 0462
ENCODING 1122
SWIDTH 720 0
DWIDTH 21 0
BBX 20 21 1 0
BITMAP
078000
078000
078000
FFFE00
FFFE00
FFFE00
078000
078000
078000
07FF00
07FFC0
07FFE0
0781E0
0780F0
0780F0
0780F0
0781E0
0783E0
07FFC0
07FF80
07FE00
ENDCHAR
STARTCHAR 0463
ENCODING 1123
SWIDTH 582 0
DWIDTH 17 0
BBX 16 19 0 0
BITMAP
0E00
0E00
0E00
0E00
FFF0
FFF0
FFF0
0E00
0E00
0FF8
0FFE
0FFE
0E0F
0E07
0E07
0E0F
0FFE
0FFE
0FF8
ENDCHAR
STARTCHAR 0464
ENCODING 1124
SWIDTH 960 0
DWIDTH 28 0
BBX 25 21 2 0
BITMAP
F001F800
F007FF00
F01FFF80
F03F0700
F03C0200
F0780000
F0780000
F0F80000
F0F00000
FFFFF800
FFFFF800
FFFFF800
F0F00000
F0F00000
F0780000
F0780000
F03C0300
F03F0780
F01FFF80
F00FFE00
F001F800
ENDCHAR
STARTCHAR 0465
ENCODING 1125
SWIDTH 685 0
DWIDTH 20 0
BBX 18 15 2 0
BITMAP
E03E00
E0FF80
E1FFC0
E3E100
E3C000
E38000
FFFE00
FFFE00
FFFE00
E38000
E3C000
E3E180
E1FFC0
E0FF80
E03E00
ENDCHAR
STARTCHAR 0466
ENCODING 1126
SWIDTH 720 0
DWIDTH 21 0
BBX 21 21 0 0
BITMAP
00F800
00F800
00F800
01FC00
01DC00
03DE00
03DE00
078F00
078F00
070700
0FFF80
0FFF80
1FFFC0
1E73C0
3C71E0
3C71E0
3C71E0
7870F0
7870F0
F07078
F07078
ENDCHAR
STARTCHAR 0467
ENCODING 1127
SWIDTH 582 0
DWIDTH 17 0
BBX 17 15 0 0
BITMAP
01C000
03E000
03E000
077000
077000
0E7800
0E3800
1FF800
1FFC00
3FFC00
39DE00
79CE00
79CF00
71C700
F1C780
ENDCHAR
STARTCHAR 0468
ENCODING 1128
SWIDTH 1028 0
DWIDTH 30 0
BBX 28 21 2 0
BITMAP
F001E000
F001F000
F003F000
F003F800
F003B800
F007BC00
F0073C00
F00F1C00
F00F1E00
F01E1E00
FFFFFF00
FFFFFF00
FFFFFF80
F03DE780
F079E780
F079E3C0
F0F1E3C0
F0F1E1E0
F0F1E1E0
F1E1E1E0
F1E1E0F0
ENDCHAR
STARTCHAR 0469
ENCODING 1129
SWIDTH 822 0
DWIDTH 24 0
BBX 22 15 2 0
BITMAP
E01E00
E01F00
E03F00
E03F80
E07B80
E07380
E0F1C0
FFFFC0
FFFFE0
FFFFE0
E1CEF0
E3CE70
E3CE78
E78E78
E78E3C
ENDCHAR
STARTCHAR 046A
ENCODING 1130
SWIDTH 857 0
DWIDTH 25 0
BBX 25 21 0 0
BITMAP
7FFFFF00
3FFFFE00
1FFFFC00
0F007800
0700F000
0781E000
03C1E000
01E3C000
00F78000
01F78000
07FFE000
0FFFF000
0F3C7800
1E3C3C00
1E3C3C00
3C3C1C00
3C3C1E00
3C3C1E00
783C0F00
783C0F00
F03C0F80
ENDCHAR
STARTCHAR 046B
ENCODING 1131
SWIDTH 651 0
DWIDTH 19 0
BBX 19 15 0 0
BITMAP
7FFFE0
3FFFC0
1FFF80
1E0700
0F0E00
079C00
03BC00
0FFE00
1FFF00
1CE780
38E380
38E3C0
78E1C0
70E1E0
F0E0E0
ENDCHAR
STARTCHAR 046C
ENCODING 1132
SWIDTH 1165 0
DWIDTH 34 0
BBX 32 21 2 0
BITMAP
F0FFFFFE
F07FFFFC
F03FFFF8
F01E00F0
F00E01E0
F00F03C0
F00783C0
F003C780
F001EF00
FFFFEF80
FFFFFFE0
FFFFFFF0
F01E78F0
F03C7878
F03C7878
F0787838
F078783C
F0F0783C
F0F0781E
F0F0781E
F1E0781F
ENDCHAR
STARTCHAR 046D
ENCODING 1133
SWIDTH 891 0
DWIDTH 26 0
BBX 24 15 2 0
BITMAP
E3FFFF
E1FFFC
E0FFFC
E07078
E038F0
E03CE0
FFFDE0
FFFFF8
FFFFF8
E0E73C
E1C71C
E1C71E
E3C70E
E3870F
E7870F
ENDCHAR
STARTCHAR 046E
ENCODING 1134
SWIDTH 548 0
DWIDTH 16 0
BBX 15 27 0 -6
BITMAP
0FE0
7FF0
7FFC
783C
201C
001E
001E
001C
007C
0FF8
0FF0
0FFC
003C
001E
001E
001E
001E
003E
3FFC
7FF8
7FE0
F000
F000
7FF0
7FF8
1FFC
000C
ENDCHAR
STARTCHAR 046F
ENCODING 1135
SWIDTH 445 0
DWIDTH 13 0
BBX 12 24 0 -6
BITMAP
38E0
1DE0
0F80
0700
3FC0
7FE0
60E0
00F0
00E0
0FC0
0FC0
0FE0
00F0
00F0
00F0
3FE0
7FE0
FF80
E000
E000
7FC0
7FE0
1FF0
0030
ENDCHAR
STARTCHAR 0470
ENCODING 1136
SWIDTH 822 0
DWIDTH 24 0
BBX 22 21 1 0
BITMAP
F0783C
F0783C
F0783C
F0783C
F0783C
F0783C
F0783C
F0783C
F0783C
F0783C
78787C
787878
3E78F8
3FFFF0
0FFFE0
03FF00
007800
007800
007800
007800
007800
ENDCHAR
STARTCHAR 0471
ENCODING 1137
SWIDTH 788 0
DWIDTH 23 0
BBX 20 26 2 -5
BITMAP
00E000
00E000
00E000
00E000
00E000
00E000
E0E1E0
E0E1E0
E0E1E0
E0E0E0
E0E0E0
E0E0E0
E0E0F0
E0E0F0
E0E0E0
E0E0E0
F0E1E0
F8E3E0
7FFFC0
3FFF80
0FFE00
00E000
00E000
00E000
00E000
00E000
ENDCHAR
STARTCHAR 0472
ENCODING 1138
SWIDTH 788 0
DWIDTH 23 0
BBX 21 21 1 0
BITMAP
01FC00
07FF00
0FFFC0
1F07E0
3C01F0
7C00F0
7800F8
F80078
F00078
FFFFF8
FFFFF8
FFFFF8
F00078
F00078
780078
7800F0
3C01F0
1F07E0
0FFFC0
07FF80
01FC00
ENDCHAR
STARTCHAR 0473
ENCODING 1139
SWIDTH 582 0
DWIDTH 17 0
BBX 15 15 1 0
BITMAP
0FC0
1FF0
3FF8
783C
F01C
F01C
FFFE
FFFE
FFFE
F01C
F01C
783C
3FF8
1FF0
0FC0
ENDCHAR
STARTCHAR 0474
ENCODING 1140
SWIDTH 720 0
DWIDTH 21 0
BBX 20 21 0 0
BITMAP
F000F0
F001F0
7801F0
7803C0
3C03C0
3C0380
3C0780
1E0780
1E0700
0F0F00
0F0F00
0F0E00
079E00
079E00
039C00
03FC00
03F800
01F800
01F800
00F000
00F000
ENDCHAR
STARTCHAR 0475
ENCODING 1141
SWIDTH 548 0
DWIDTH 16 0
BBX 16 15 0 0
BITMAP
F00F
701F
783E
7838
3838
3C78
1C70
1E70
1EF0
0EE0
0EE0
07E0
07C0
07C0
0380
ENDCHAR
STARTCHAR 0476
ENCODING 1142
SWIDTH 720 0
DWIDTH 21 0
BBX 20 26 0 0
BITMAP
3CF000
0E7000
073800
039C00
000000
F000F0
F001F0
7801F0
7803C0
3C03C0
3C0380
3C0780
1E0780
1E0700
0F0F00
0F0F00
0F0E00
079E00
079E00
039C00
03FC00
03F800
01F800
01F800
00F000
00F000
ENDCHAR
STARTCHAR 0477
ENCODING 1143
SWIDTH 548 0
DWIDTH 16 0
BBX 16 21 0 0
BITMAP
7B80
39C0
1CE0
0E60
0000
0000
F00F
701F
783E
7838
3838
3C78
1C70
1E70
1EF0
0EE0
0EE0
07E0
07C0
07C0
0380
ENDCHAR
STARTCHAR 0478
ENCODING 1144
SWIDTH 1337 0
DWIDTH 39 0
BBX 37 26 1 -5
BITMAP
01FC000000
07FF000000
0FFFC00000
1F07E00000
3C01F00000
7800F00000
78007BC038
F00079E078
F00079E070
F00078E0F0
F00078F0E0
F00078F0E0
F0007879E0
F0007879C0
7800783BC0
7800F03F80
3C01F01F80
1F07E01F00
0FFFC01F00
07FF800F00
01FC000E00
0000001E00
0000001C00
0000003C00
0000003800
0000007800
ENDCHAR
STARTCHAR 0479
ENCODING 1145
SWIDTH 1097 0
DWIDTH 32 0
BBX 31 20 1 -5
BITMAP
0FC0F00E
1FF0781E
3FF8781C
787C383C
F03C3C38
F01C3C38
F01E1E78
F01E1E70
F01E0EF0
F01C0FE0
F03C07E0
787C07C0
3FF807C0
1FF003C0
0FC00380
00000780
00000700
00000F00
00000E00
00001E00
ENDCHAR
STARTCHAR 047A
ENCODING 1146
SWIDTH 857 0
DWIDTH 25 0
BBX 23 24 1 -1
BITMAP
003800
00FE00
07FFC0
0FFFE0
1FFFF0
3F39F8
7C007C
78003C
78003C
F0001E
F0001E
F0001E
F0001E
F0001E
F0001E
78003C
78003C
7C007C
3E39F8
1FFFF0
0FFFE0
07FFC0
00FE00
003800
ENDCHAR
STARTCHAR 047B
ENCODING 1147
SWIDTH 651 0
DWIDTH 19 0
BBX 17 18 1 -1
BITMAP
01C000
03E000
1FFC00
3FFE00
7FFF00
79CF00
F00780
F00780
F00780
F00780
F00780
F00780
71CF00
7FFF00
3FFE00
1FFC00
07F000
01C000
ENDCHAR
STARTCHAR 047C
ENCODING 1148
SWIDTH 1062 0
DWIDTH 31 0
BBX 29 28 1 0
BITMAP
001F0000
003FC000
0031F800
00333800
00078000
00038000
00010000
07E33F00
1FF8FFC0
3FF07FE0
3C3061E0
780000F0
780000F0
78000078
F0000078
F0000078
F0000078
F0000078
F0000078
F0000078
F0000078
78000078
780700F0
7C0F80F0
3E1FC1E0
1FFFFFE0
0FFCFFC0
03F03F00
ENDCHAR
STARTCHAR 047D
ENCODING 1149
SWIDTH 788 0
DWIDTH 23 0
BBX 21 22 1 0
BITMAP
01F000
03FC00
031F80
077380
007000
007000
001000
1F6780
3F9FE0
7F8FF0
7908F0
F00070
F00070
F00078
E00078
F00078
F00070
F07070
78F8F0
7FFFE0
3FDFE0
0F8F80
ENDCHAR
ENDFONT
